<svg width="486" height="711" viewBox="0 0 486 711" fill="none" xmlns="http://www.w3.org/2000/svg">
<g clip-path="url(#clip0_609_11933)">
<rect width="486" height="711" fill="#371A4E"/>
<circle cx="460.5" cy="355.5" r="17.5" fill="#FFE6A2"/>
<rect x="57" y="54" width="372" height="249" stroke="#C493E1" stroke-width="8"/>
<rect x="57" y="403" width="372" height="254" stroke="#C493E1" stroke-width="8"/>
<rect width="380" height="38" transform="translate(53 334)" fill="#C493E1"/>
<path d="M140.361 360.5H132.633L132.729 359.756L133.641 359.372C134.089 359.18 134.385 358.98 134.529 358.772C134.673 358.564 134.769 358.268 134.817 357.884L136.305 347.276C136.337 347.068 136.361 346.876 136.377 346.7C136.409 346.524 136.425 346.372 136.425 346.244C136.425 346.004 136.361 345.812 136.233 345.668C136.121 345.508 135.905 345.348 135.585 345.188L134.793 344.804L134.913 344.06H142.545C144.033 344.06 145.337 344.332 146.457 344.876C147.577 345.404 148.449 346.18 149.073 347.204C149.697 348.228 150.009 349.476 150.009 350.948C150.009 352.356 149.769 353.644 149.289 354.812C148.825 355.964 148.161 356.972 147.297 357.836C146.433 358.684 145.409 359.34 144.225 359.804C143.057 360.268 141.769 360.5 140.361 360.5ZM139.857 345.476L137.937 359.084H139.761C140.753 359.084 141.665 358.876 142.497 358.46C143.329 358.044 144.041 357.468 144.633 356.732C145.241 355.98 145.713 355.116 146.049 354.14C146.385 353.148 146.553 352.076 146.553 350.924C146.553 349.788 146.353 348.82 145.953 348.02C145.553 347.204 144.985 346.58 144.249 346.148C143.513 345.7 142.641 345.476 141.633 345.476H139.857ZM154.083 360.404L150.963 360.74L152.379 350.804L152.283 350.708L149.955 351.812L149.715 351.116C150.451 350.412 151.091 349.852 151.635 349.436C152.195 349.004 152.699 348.692 153.147 348.5C153.595 348.292 154.011 348.188 154.395 348.188C154.731 348.188 154.995 348.292 155.187 348.5C155.379 348.708 155.475 348.98 155.475 349.316C155.475 349.444 155.467 349.596 155.451 349.772C155.435 349.948 155.403 350.18 155.355 350.468C155.307 350.74 155.243 351.108 155.163 351.572C155.099 352.02 155.003 352.588 154.875 353.276L155.139 353.42C155.907 351.596 156.667 350.268 157.419 349.436C158.171 348.604 158.971 348.188 159.819 348.188C160.555 348.188 161.187 348.468 161.715 349.028L160.971 352.052H160.299L158.835 350.756C158.435 350.804 158.003 351.036 157.539 351.452C157.091 351.868 156.643 352.476 156.195 353.276C155.763 354.076 155.363 355.068 154.995 356.252C154.627 357.436 154.323 358.82 154.083 360.404ZM174.797 360.5H167.357L167.453 359.756L168.437 359.372C168.933 359.164 169.269 358.948 169.445 358.724C169.621 358.5 169.733 358.22 169.781 357.884L171.533 345.476H169.901C169.517 345.476 169.181 345.532 168.893 345.644C168.621 345.74 168.349 345.932 168.077 346.22C167.805 346.492 167.469 346.908 167.069 347.468L166.061 348.908H165.293L166.301 344.06H180.437L180.053 348.908H179.285L178.661 347.468C178.437 346.908 178.229 346.492 178.037 346.22C177.861 345.932 177.653 345.74 177.413 345.644C177.173 345.532 176.853 345.476 176.453 345.476H174.821L173.141 357.26C173.109 357.516 173.085 357.724 173.069 357.884C173.053 358.028 173.045 358.132 173.045 358.196C173.045 358.436 173.117 358.652 173.261 358.844C173.405 359.02 173.669 359.196 174.053 359.372L174.893 359.756L174.797 360.5ZM181.807 360.74C180.799 360.74 179.991 360.356 179.383 359.588C178.775 358.804 178.471 357.732 178.471 356.372C178.471 355.252 178.663 354.196 179.047 353.204C179.447 352.212 180.007 351.34 180.727 350.588C181.447 349.836 182.287 349.252 183.247 348.836C184.207 348.404 185.247 348.188 186.367 348.188C186.735 348.188 187.135 348.22 187.567 348.284C188.015 348.348 188.543 348.46 189.151 348.62L190.423 348.068L190.927 348.476L189.583 358.124L189.679 358.22L191.983 357.116L192.271 357.836C191.519 358.54 190.863 359.108 190.303 359.54C189.759 359.956 189.271 360.26 188.839 360.452C188.423 360.644 188.023 360.74 187.639 360.74C187.271 360.74 186.983 360.636 186.775 360.428C186.583 360.22 186.487 359.948 186.487 359.612C186.487 359.5 186.495 359.364 186.511 359.204C186.527 359.028 186.559 358.804 186.607 358.532C186.655 358.244 186.719 357.868 186.799 357.404C186.879 356.94 186.983 356.356 187.111 355.652L186.823 355.532C186.071 357.372 185.287 358.7 184.471 359.516C183.655 360.332 182.767 360.74 181.807 360.74ZM183.127 358.628C183.495 358.628 183.895 358.396 184.327 357.932C184.759 357.468 185.183 356.836 185.599 356.036C186.031 355.22 186.423 354.3 186.775 353.276C187.143 352.236 187.447 351.14 187.687 349.988C187.367 349.812 187.071 349.684 186.799 349.604C186.543 349.508 186.271 349.436 185.983 349.388C185.247 349.5 184.559 349.884 183.919 350.54C183.295 351.18 182.791 351.996 182.407 352.988C182.023 353.98 181.831 355.052 181.831 356.204C181.831 356.956 181.943 357.548 182.167 357.98C182.407 358.412 182.727 358.628 183.127 358.628ZM196.112 360.404L192.992 360.764L194.408 350.804L194.312 350.708L191.984 351.812L191.744 351.116C192.496 350.396 193.144 349.828 193.688 349.412C194.248 348.98 194.744 348.668 195.176 348.476C195.624 348.284 196.04 348.188 196.424 348.188C196.776 348.188 197.04 348.3 197.216 348.524C197.408 348.732 197.504 348.996 197.504 349.316C197.504 349.444 197.496 349.596 197.48 349.772C197.464 349.948 197.432 350.18 197.384 350.468C197.336 350.74 197.272 351.108 197.192 351.572C197.128 352.02 197.032 352.588 196.904 353.276L197.168 353.42C197.936 351.596 198.744 350.268 199.592 349.436C200.44 348.604 201.44 348.188 202.592 348.188C203.312 348.188 203.88 348.412 204.296 348.86C204.712 349.292 204.92 349.876 204.92 350.612C204.92 350.868 204.896 351.204 204.848 351.62C204.816 352.02 204.768 352.388 204.704 352.724L203.816 358.1L203.936 358.22L206.216 357.14L206.48 357.836C205.344 358.876 204.4 359.628 203.648 360.092C202.896 360.54 202.208 360.764 201.584 360.764C201.248 360.764 200.984 360.668 200.792 360.476C200.616 360.268 200.528 359.996 200.528 359.66C200.528 359.532 200.536 359.364 200.552 359.156C200.584 358.948 200.64 358.58 200.72 358.052L201.608 352.94C201.656 352.716 201.688 352.492 201.704 352.268C201.72 352.044 201.728 351.86 201.728 351.716C201.728 351.412 201.656 351.18 201.512 351.02C201.384 350.844 201.184 350.756 200.912 350.756C200.48 350.756 200.048 350.964 199.616 351.38C199.184 351.796 198.76 352.412 198.344 353.228C197.928 354.044 197.528 355.052 197.144 356.252C196.776 357.452 196.432 358.836 196.112 360.404ZM209.56 360.74C208.552 360.74 207.744 360.356 207.136 359.588C206.528 358.804 206.224 357.732 206.224 356.372C206.224 355.252 206.416 354.196 206.8 353.204C207.2 352.212 207.76 351.34 208.48 350.588C209.2 349.836 210.04 349.252 211 348.836C211.96 348.404 213 348.188 214.12 348.188C214.488 348.188 214.888 348.22 215.32 348.284C215.768 348.348 216.296 348.46 216.904 348.62L218.176 348.068L218.68 348.476L217.336 358.124L217.432 358.22L219.736 357.116L220.024 357.836C219.272 358.54 218.616 359.108 218.056 359.54C217.512 359.956 217.024 360.26 216.592 360.452C216.176 360.644 215.776 360.74 215.392 360.74C215.024 360.74 214.736 360.636 214.528 360.428C214.336 360.22 214.24 359.948 214.24 359.612C214.24 359.5 214.248 359.364 214.264 359.204C214.28 359.028 214.312 358.804 214.36 358.532C214.408 358.244 214.472 357.868 214.552 357.404C214.632 356.94 214.736 356.356 214.864 355.652L214.576 355.532C213.824 357.372 213.04 358.7 212.224 359.516C211.408 360.332 210.52 360.74 209.56 360.74ZM210.88 358.628C211.248 358.628 211.648 358.396 212.08 357.932C212.512 357.468 212.936 356.836 213.352 356.036C213.784 355.22 214.176 354.3 214.528 353.276C214.896 352.236 215.2 351.14 215.44 349.988C215.12 349.812 214.824 349.684 214.552 349.604C214.296 349.508 214.024 349.436 213.736 349.388C213 349.5 212.312 349.884 211.672 350.54C211.048 351.18 210.544 351.996 210.16 352.988C209.776 353.98 209.584 355.052 209.584 356.204C209.584 356.956 209.696 357.548 209.92 357.98C210.16 358.412 210.48 358.628 210.88 358.628ZM219.552 366.5C219.04 366.5 218.584 366.324 218.184 365.972C217.768 365.62 217.384 365.052 217.032 364.268L217.416 363.62C218.056 363.828 218.584 363.932 219 363.932C219.544 363.932 220.056 363.836 220.536 363.644C221.032 363.468 221.544 363.14 222.072 362.66C222.6 362.196 223.184 361.524 223.824 360.644C223.504 359.06 223.192 357.676 222.888 356.492C222.584 355.308 222.288 354.252 222 353.324C221.728 352.396 221.448 351.54 221.16 350.756L220.992 350.732L219.048 352.004L218.568 351.428C219.16 350.66 219.68 350.036 220.128 349.556C220.576 349.076 220.992 348.732 221.376 348.524C221.76 348.3 222.128 348.188 222.48 348.188C222.896 348.188 223.24 348.3 223.512 348.524C223.784 348.748 224.016 349.172 224.208 349.796C224.544 350.868 224.856 352.02 225.144 353.252C225.448 354.468 225.744 355.772 226.032 357.164C226.64 356.172 227.128 355.324 227.496 354.62C227.864 353.9 228.152 353.276 228.36 352.748C228.568 352.204 228.712 351.716 228.792 351.284L228 349.82L228.144 349.172L230.664 348.212C230.872 348.42 231.032 348.684 231.144 349.004C231.256 349.324 231.312 349.652 231.312 349.988C231.312 350.308 231.24 350.692 231.096 351.14C230.952 351.588 230.688 352.172 230.304 352.892C229.936 353.596 229.408 354.5 228.72 355.604C228.032 356.692 227.152 358.052 226.08 359.684C225.296 360.868 224.592 361.892 223.968 362.756C223.344 363.62 222.776 364.324 222.264 364.868C221.752 365.428 221.272 365.836 220.824 366.092C220.392 366.364 219.968 366.5 219.552 366.5ZM233.985 360.74C232.977 360.74 232.169 360.356 231.561 359.588C230.953 358.804 230.649 357.732 230.649 356.372C230.649 355.252 230.841 354.196 231.225 353.204C231.625 352.212 232.185 351.34 232.905 350.588C233.625 349.836 234.465 349.252 235.425 348.836C236.385 348.404 237.425 348.188 238.545 348.188C238.913 348.188 239.313 348.22 239.745 348.284C240.193 348.348 240.721 348.46 241.329 348.62L242.601 348.068L243.105 348.476L241.761 358.124L241.857 358.22L244.161 357.116L244.449 357.836C243.697 358.54 243.041 359.108 242.481 359.54C241.937 359.956 241.449 360.26 241.017 360.452C240.601 360.644 240.201 360.74 239.817 360.74C239.449 360.74 239.161 360.636 238.953 360.428C238.761 360.22 238.665 359.948 238.665 359.612C238.665 359.5 238.673 359.364 238.689 359.204C238.705 359.028 238.737 358.804 238.785 358.532C238.833 358.244 238.897 357.868 238.977 357.404C239.057 356.94 239.161 356.356 239.289 355.652L239.001 355.532C238.249 357.372 237.465 358.7 236.649 359.516C235.833 360.332 234.945 360.74 233.985 360.74ZM235.305 358.628C235.673 358.628 236.073 358.396 236.505 357.932C236.937 357.468 237.361 356.836 237.777 356.036C238.209 355.22 238.601 354.3 238.953 353.276C239.321 352.236 239.625 351.14 239.865 349.988C239.545 349.812 239.249 349.684 238.977 349.604C238.721 349.508 238.449 349.436 238.161 349.388C237.425 349.5 236.737 349.884 236.097 350.54C235.473 351.18 234.969 351.996 234.585 352.988C234.201 353.98 234.009 355.052 234.009 356.204C234.009 356.956 234.121 357.548 234.345 357.98C234.585 358.412 234.905 358.628 235.305 358.628ZM263.295 360.116L261.711 360.836L253.239 347.852L251.919 357.26C251.887 357.484 251.863 357.676 251.847 357.836C251.831 357.996 251.823 358.116 251.823 358.196C251.823 358.468 251.895 358.692 252.039 358.868C252.183 359.028 252.447 359.196 252.831 359.372L253.719 359.756L253.623 360.5H247.983L248.103 359.756L249.039 359.348C249.439 359.172 249.719 358.988 249.879 358.796C250.039 358.588 250.143 358.284 250.191 357.884L251.703 347.108C251.735 346.884 251.751 346.716 251.751 346.604C251.767 346.476 251.775 346.38 251.775 346.316C251.775 346.012 251.703 345.78 251.559 345.62C251.431 345.46 251.231 345.316 250.959 345.188L250.215 344.804L250.311 344.06H254.679L262.239 355.82L263.439 347.132C263.471 346.94 263.487 346.764 263.487 346.604C263.503 346.444 263.511 346.332 263.511 346.268C263.511 345.996 263.439 345.796 263.295 345.668C263.167 345.524 262.911 345.372 262.527 345.212L261.615 344.804L261.711 344.06H267.351L267.255 344.804L266.343 345.212C265.927 345.404 265.639 345.604 265.479 345.812C265.319 346.004 265.207 346.3 265.143 346.7L263.295 360.116ZM269.251 360.74C268.243 360.74 267.435 360.356 266.827 359.588C266.219 358.804 265.915 357.732 265.915 356.372C265.915 355.252 266.107 354.196 266.491 353.204C266.891 352.212 267.451 351.34 268.171 350.588C268.891 349.836 269.731 349.252 270.691 348.836C271.651 348.404 272.691 348.188 273.811 348.188C274.179 348.188 274.579 348.22 275.011 348.284C275.459 348.348 275.987 348.46 276.595 348.62L277.867 348.068L278.371 348.476L277.027 358.124L277.123 358.22L279.427 357.116L279.715 357.836C278.963 358.54 278.307 359.108 277.747 359.54C277.203 359.956 276.715 360.26 276.283 360.452C275.867 360.644 275.467 360.74 275.083 360.74C274.715 360.74 274.427 360.636 274.219 360.428C274.027 360.22 273.931 359.948 273.931 359.612C273.931 359.5 273.939 359.364 273.955 359.204C273.971 359.028 274.003 358.804 274.051 358.532C274.099 358.244 274.163 357.868 274.243 357.404C274.323 356.94 274.427 356.356 274.555 355.652L274.267 355.532C273.515 357.372 272.731 358.7 271.915 359.516C271.099 360.332 270.211 360.74 269.251 360.74ZM270.571 358.628C270.939 358.628 271.339 358.396 271.771 357.932C272.203 357.468 272.627 356.836 273.043 356.036C273.475 355.22 273.867 354.3 274.219 353.276C274.587 352.236 274.891 351.14 275.131 349.988C274.811 349.812 274.515 349.684 274.243 349.604C273.987 349.508 273.715 349.436 273.427 349.388C272.691 349.5 272.003 349.884 271.363 350.54C270.739 351.18 270.235 351.996 269.851 352.988C269.467 353.98 269.275 355.052 269.275 356.204C269.275 356.956 269.387 357.548 269.611 357.98C269.851 358.412 270.171 358.628 270.571 358.628ZM283.555 360.404L280.435 360.74L281.851 350.804L281.755 350.708L279.427 351.812L279.187 351.116C279.923 350.412 280.563 349.852 281.107 349.436C281.667 349.004 282.171 348.692 282.619 348.5C283.067 348.292 283.483 348.188 283.867 348.188C284.203 348.188 284.467 348.292 284.659 348.5C284.851 348.708 284.947 348.98 284.947 349.316C284.947 349.444 284.939 349.596 284.923 349.772C284.907 349.948 284.875 350.18 284.827 350.468C284.779 350.74 284.715 351.108 284.635 351.572C284.571 352.02 284.475 352.588 284.347 353.276L284.611 353.42C285.379 351.596 286.139 350.268 286.891 349.436C287.643 348.604 288.443 348.188 289.291 348.188C290.027 348.188 290.659 348.468 291.187 349.028L290.443 352.052H289.771L288.307 350.756C287.907 350.804 287.475 351.036 287.011 351.452C286.563 351.868 286.115 352.476 285.667 353.276C285.235 354.076 284.835 355.068 284.467 356.252C284.099 357.436 283.795 358.82 283.555 360.404ZM295.051 360.74C294.059 360.74 293.195 360.524 292.459 360.092C291.723 359.66 291.155 359.052 290.755 358.268C290.355 357.468 290.155 356.548 290.155 355.508C290.155 354.468 290.323 353.508 290.659 352.628C290.995 351.732 291.459 350.956 292.051 350.3C292.659 349.628 293.371 349.108 294.187 348.74C295.003 348.372 295.883 348.188 296.827 348.188C298.043 348.188 299.027 348.476 299.779 349.052C300.531 349.612 300.907 350.356 300.907 351.284C300.907 352.116 300.635 352.852 300.091 353.492C299.563 354.132 298.819 354.636 297.859 355.004C296.915 355.372 295.827 355.556 294.595 355.556C294.387 355.556 294.203 355.556 294.043 355.556C293.883 355.54 293.731 355.524 293.587 355.508C293.651 356.548 293.899 357.356 294.331 357.932C294.763 358.492 295.371 358.772 296.155 358.772C296.747 358.772 297.379 358.612 298.051 358.292C298.739 357.972 299.403 357.524 300.043 356.948L300.475 357.644C299.787 358.604 298.963 359.364 298.003 359.924C297.043 360.468 296.059 360.74 295.051 360.74ZM298.027 351.116C298.027 350.7 297.939 350.356 297.763 350.084C297.587 349.796 297.347 349.596 297.043 349.484C296.451 349.532 295.899 349.788 295.387 350.252C294.891 350.7 294.483 351.292 294.163 352.028C293.843 352.748 293.651 353.556 293.587 354.452C293.667 354.452 293.747 354.452 293.827 354.452C293.923 354.452 294.027 354.452 294.139 354.452C294.859 354.452 295.507 354.3 296.083 353.996C296.675 353.692 297.147 353.292 297.499 352.796C297.851 352.284 298.027 351.724 298.027 351.116ZM305.285 360.404L302.165 360.764L303.581 350.804L303.485 350.708L301.157 351.812L300.917 351.116C301.669 350.396 302.317 349.828 302.861 349.412C303.421 348.98 303.917 348.668 304.349 348.476C304.797 348.284 305.213 348.188 305.597 348.188C305.949 348.188 306.213 348.3 306.389 348.524C306.581 348.732 306.677 348.996 306.677 349.316C306.677 349.444 306.669 349.596 306.653 349.772C306.637 349.948 306.605 350.18 306.557 350.468C306.509 350.74 306.445 351.108 306.365 351.572C306.301 352.02 306.205 352.588 306.077 353.276L306.341 353.42C307.109 351.596 307.917 350.268 308.765 349.436C309.613 348.604 310.613 348.188 311.765 348.188C312.485 348.188 313.053 348.412 313.469 348.86C313.885 349.292 314.093 349.876 314.093 350.612C314.093 350.868 314.069 351.204 314.021 351.62C313.989 352.02 313.941 352.388 313.877 352.724L312.989 358.1L313.109 358.22L315.389 357.14L315.653 357.836C314.517 358.876 313.573 359.628 312.821 360.092C312.069 360.54 311.381 360.764 310.757 360.764C310.421 360.764 310.157 360.668 309.965 360.476C309.789 360.268 309.701 359.996 309.701 359.66C309.701 359.532 309.709 359.364 309.725 359.156C309.757 358.948 309.813 358.58 309.893 358.052L310.781 352.94C310.829 352.716 310.861 352.492 310.877 352.268C310.893 352.044 310.901 351.86 310.901 351.716C310.901 351.412 310.829 351.18 310.685 351.02C310.557 350.844 310.357 350.756 310.085 350.756C309.653 350.756 309.221 350.964 308.789 351.38C308.357 351.796 307.933 352.412 307.517 353.228C307.101 354.044 306.701 355.052 306.317 356.252C305.949 357.452 305.605 358.836 305.285 360.404ZM318.733 360.74C317.725 360.74 316.917 360.356 316.309 359.588C315.701 358.804 315.397 357.732 315.397 356.372C315.397 355.252 315.597 354.204 315.997 353.228C316.397 352.236 316.949 351.364 317.653 350.612C318.373 349.844 319.213 349.252 320.173 348.836C321.133 348.404 322.173 348.188 323.293 348.188C323.533 348.188 323.773 348.212 324.013 348.26C324.253 348.292 324.533 348.332 324.853 348.38C324.965 347.692 325.045 347.164 325.093 346.796C325.141 346.412 325.173 346.132 325.189 345.956C325.205 345.764 325.213 345.636 325.213 345.572C325.213 345.348 325.149 345.188 325.021 345.092C324.893 344.98 324.677 344.9 324.373 344.852L323.269 344.732L323.365 344.012L328.237 342.5L328.717 342.884L326.509 358.124L326.605 358.22L328.909 357.116L329.197 357.836C328.445 358.54 327.789 359.108 327.229 359.54C326.685 359.956 326.197 360.26 325.765 360.452C325.349 360.644 324.949 360.74 324.565 360.74C324.197 360.74 323.909 360.636 323.701 360.428C323.509 360.22 323.413 359.948 323.413 359.612C323.413 359.5 323.421 359.372 323.437 359.228C323.453 359.068 323.477 358.852 323.509 358.58C323.557 358.292 323.621 357.916 323.701 357.452C323.781 356.988 323.885 356.388 324.013 355.652L323.749 355.556C322.997 357.38 322.213 358.7 321.397 359.516C320.581 360.332 319.693 360.74 318.733 360.74ZM320.053 358.628C320.421 358.628 320.821 358.396 321.253 357.932C321.685 357.468 322.109 356.836 322.525 356.036C322.957 355.22 323.349 354.3 323.701 353.276C324.069 352.236 324.373 351.14 324.613 349.988C324.293 349.812 323.997 349.684 323.725 349.604C323.453 349.508 323.181 349.436 322.909 349.388C322.365 349.468 321.845 349.708 321.349 350.108C320.853 350.492 320.413 350.996 320.029 351.62C319.645 352.244 319.333 352.948 319.093 353.732C318.869 354.516 318.757 355.34 318.757 356.204C318.757 356.956 318.869 357.548 319.093 357.98C319.333 358.412 319.653 358.628 320.053 358.628ZM332.991 360.404L329.871 360.74L331.287 350.804L331.191 350.708L328.863 351.812L328.623 351.116C329.359 350.412 329.999 349.852 330.543 349.436C331.103 349.004 331.607 348.692 332.055 348.5C332.503 348.292 332.919 348.188 333.303 348.188C333.639 348.188 333.903 348.292 334.095 348.5C334.287 348.708 334.383 348.98 334.383 349.316C334.383 349.444 334.375 349.596 334.359 349.772C334.343 349.948 334.311 350.18 334.263 350.468C334.215 350.74 334.151 351.108 334.071 351.572C334.007 352.02 333.911 352.588 333.783 353.276L334.047 353.42C334.815 351.596 335.575 350.268 336.327 349.436C337.079 348.604 337.879 348.188 338.727 348.188C339.463 348.188 340.095 348.468 340.623 349.028L339.879 352.052H339.207L337.743 350.756C337.343 350.804 336.911 351.036 336.447 351.452C335.999 351.868 335.551 352.476 335.103 353.276C334.671 354.076 334.271 355.068 333.903 356.252C333.535 357.436 333.231 358.82 332.991 360.404ZM342.806 360.74C341.798 360.74 340.99 360.356 340.382 359.588C339.774 358.804 339.47 357.732 339.47 356.372C339.47 355.252 339.662 354.196 340.046 353.204C340.446 352.212 341.006 351.34 341.726 350.588C342.446 349.836 343.286 349.252 344.246 348.836C345.206 348.404 346.246 348.188 347.366 348.188C347.734 348.188 348.134 348.22 348.566 348.284C349.014 348.348 349.542 348.46 350.15 348.62L351.422 348.068L351.926 348.476L350.582 358.124L350.678 358.22L352.982 357.116L353.27 357.836C352.518 358.54 351.862 359.108 351.302 359.54C350.758 359.956 350.27 360.26 349.838 360.452C349.422 360.644 349.022 360.74 348.638 360.74C348.27 360.74 347.982 360.636 347.774 360.428C347.582 360.22 347.486 359.948 347.486 359.612C347.486 359.5 347.494 359.364 347.51 359.204C347.526 359.028 347.558 358.804 347.606 358.532C347.654 358.244 347.718 357.868 347.798 357.404C347.878 356.94 347.982 356.356 348.11 355.652L347.822 355.532C347.07 357.372 346.286 358.7 345.47 359.516C344.654 360.332 343.766 360.74 342.806 360.74ZM344.126 358.628C344.494 358.628 344.894 358.396 345.326 357.932C345.758 357.468 346.182 356.836 346.598 356.036C347.03 355.22 347.422 354.3 347.774 353.276C348.142 352.236 348.446 351.14 348.686 349.988C348.366 349.812 348.07 349.684 347.798 349.604C347.542 349.508 347.27 349.436 346.982 349.388C346.246 349.5 345.558 349.884 344.918 350.54C344.294 351.18 343.79 351.996 343.406 352.988C343.022 353.98 342.83 355.052 342.83 356.204C342.83 356.956 342.942 357.548 343.166 357.98C343.406 358.412 343.726 358.628 344.126 358.628Z" fill="black"/>
<rect x="-5" y="171" width="17" height="105" fill="#FFE6A2"/>
<rect x="-5" y="429" width="17" height="105" fill="#FFE6A2"/>
</g>
<defs>
<clipPath id="clip0_609_11933">
<rect width="486" height="711" fill="white"/>
</clipPath>
</defs>
</svg>
