<svg xmlns="http://www.w3.org/2000/svg" width="600" height="600" viewBox="0 0 600 600"><rect width="100%" height="100%" fill="#e2c9f0"/><path fill="#6E3997" d="M118.635 297.895v6.44q.58.71 1.28 1 .69.3 1.46.3.8 0 1.43-.29.64-.29 1.09-.89.45-.61.68-1.56.24-.94.24-2.26 0-2.37-.78-3.42-.78-1.06-2.25-1.06-1 0-1.74.45-.74.46-1.41 1.29m0-10.64v8.2q.86-.91 1.92-1.45t2.42-.54q1.24 0 2.24.49t1.71 1.41 1.08 2.22q.38 1.3.38 2.92 0 1.75-.43 3.18t-1.24 2.44q-.8 1.02-1.94 1.58-1.13.56-2.52.56-.67 0-1.22-.13-.54-.14-1-.37-.47-.24-.85-.59-.39-.34-.74-.76l-.15.97q-.08.36-.29.52-.2.15-.55.15h-2.28v-20.8zm18.78 6.21q1.6 0 2.91.52t2.24 1.47 1.43 2.32q.51 1.38.51 3.07 0 1.71-.51 3.08-.5 1.37-1.43 2.34-.93.96-2.24 1.48t-2.91.52q-1.61 0-2.92-.52-1.32-.52-2.25-1.48-.93-.97-1.44-2.34t-.51-3.08q0-1.69.51-3.07.51-1.37 1.44-2.32t2.25-1.47q1.31-.52 2.92-.52m0 12.14q1.79 0 2.66-1.2.86-1.21.86-3.53 0-2.33-.86-3.54-.87-1.22-2.66-1.22-1.82 0-2.69 1.22-.88 1.23-.88 3.54t.88 3.52q.87 1.21 2.69 1.21m16.09-12.14q1.6 0 2.9.52 1.31.52 2.24 1.47t1.44 2.32q.5 1.38.5 3.07 0 1.71-.5 3.08-.51 1.37-1.44 2.34-.93.96-2.24 1.48-1.3.52-2.9.52-1.61 0-2.93-.52-1.31-.52-2.24-1.48-.93-.97-1.45-2.34-.51-1.37-.51-3.08 0-1.69.51-3.07.52-1.37 1.45-2.32t2.24-1.47q1.32-.52 2.93-.52m0 12.14q1.79 0 2.65-1.2.86-1.21.86-3.53 0-2.33-.86-3.54-.86-1.22-2.65-1.22-1.82 0-2.7 1.22-.87 1.23-.87 3.54t.87 3.52q.88 1.21 2.7 1.21m9.73-18.35h3.46v11.91h.64q.35 0 .55-.09.21-.09.42-.37l3.57-4.41q.22-.3.49-.45.28-.15.71-.15h3.17l-4.47 5.33q-.48.63-1.04.97.3.21.53.49t.44.6l4.79 6.97h-3.12q-.41 0-.7-.13-.3-.14-.49-.49l-3.67-5.44q-.2-.32-.41-.42t-.63-.1h-.78v6.58h-3.46zm14.85 13.79v-2.89h7.26v2.89zm21.76-5.58-.91 1.26q-.15.2-.3.31t-.43.11q-.26 0-.52-.16-.25-.16-.6-.36t-.83-.36q-.48-.17-1.2-.17-.91 0-1.59.33-.69.33-1.15.95-.45.61-.67 1.49-.23.87-.23 1.98 0 1.15.25 2.04.24.9.7 1.51.47.61 1.12.92.66.32 1.49.32.82 0 1.33-.21.52-.2.87-.44.35-.25.6-.45.26-.2.59-.2.42 0 .63.32l.99 1.26q-.57.67-1.25 1.12-.67.46-1.39.73-.72.28-1.48.39-.77.11-1.52.11-1.33 0-2.51-.5-1.17-.49-2.06-1.45-.88-.95-1.39-2.33t-.51-3.14q0-1.58.45-2.93.46-1.35 1.34-2.34t2.19-1.55q1.3-.56 2.99-.56 1.61 0 2.82.52t2.18 1.48m8.65-2q1.6 0 2.91.52t2.24 1.47 1.43 2.32q.51 1.38.51 3.07 0 1.71-.51 3.08-.5 1.37-1.43 2.34-.93.96-2.24 1.48t-2.91.52q-1.61 0-2.92-.52-1.32-.52-2.25-1.48-.93-.97-1.44-2.34t-.51-3.08q0-1.69.51-3.07.51-1.37 1.44-2.32t2.25-1.47q1.31-.52 2.92-.52m0 12.14q1.79 0 2.65-1.2.87-1.21.87-3.53 0-2.33-.87-3.54-.86-1.22-2.65-1.22-1.82 0-2.69 1.22-.88 1.23-.88 3.54t.88 3.52q.87 1.21 2.69 1.21m19.95-11.91h2.73l-5.7 14.36h-3.13l-5.7-14.36h2.86q.39 0 .65.18t.34.46l2.77 7.67q.23.67.39 1.32.17.64.3 1.29.14-.65.31-1.29.16-.65.4-1.32l2.83-7.67q.1-.28.35-.46t.6-.18m7.3 5.53h6.52q0-.68-.19-1.27-.19-.6-.57-1.04-.37-.45-.96-.71-.58-.26-1.35-.26-1.49 0-2.36.85-.86.86-1.09 2.43m8.82 2.08h-8.89q.08 1.11.39 1.91.31.81.81 1.33.5.53 1.2.79.69.26 1.53.26t1.45-.2 1.06-.43q.46-.24.8-.44.34-.19.67-.19.43 0 .64.32l.99 1.26q-.57.67-1.28 1.12-.72.46-1.5.73-.77.28-1.58.39-.8.11-1.56.11-1.5 0-2.78-.5-1.29-.49-2.24-1.47-.96-.97-1.5-2.41-.55-1.43-.55-3.32 0-1.47.48-2.77.47-1.29 1.36-2.25t2.17-1.52 2.89-.56q1.36 0 2.51.44 1.15.43 1.97 1.26.83.84 1.3 2.05t.47 2.76q0 .79-.17 1.06t-.64.27m6.45-6.75.21 1.63q.67-1.29 1.6-2.02.92-.74 2.18-.74.99 0 1.6.43l-.23 2.59q-.07.26-.2.36-.13.11-.36.11-.21 0-.62-.07t-.81-.07q-.57 0-1.02.16-.45.17-.8.49-.36.31-.63.76-.28.45-.51 1.02v8.85h-3.46v-14.36h2.03q.53 0 .74.18.21.19.28.68m7.28 6.49v-2.89h7.25v2.89zm14.01-13.79v7.98q.84-.79 1.85-1.28t2.37-.49q1.17 0 2.08.4t1.52 1.12.93 1.72q.31 1 .31 2.21v9.14h-3.46v-9.14q0-1.32-.6-2.04t-1.83-.72q-.9 0-1.68.41-.79.4-1.49 1.1v10.39h-3.45v-20.8zm12.45 6.44h3.47v14.36h-3.47zm3.95-4.19q0 .45-.18.84-.19.39-.49.69-.3.29-.7.47-.41.17-.87.17-.45 0-.85-.17-.4-.18-.69-.47-.3-.3-.47-.69-.18-.39-.18-.84 0-.46.18-.87.17-.4.47-.7.29-.29.69-.47.4-.17.85-.17.46 0 .87.17.4.18.7.47.3.3.49.7.18.41.18.87m6.05 4.82.23 1.13q.44-.43.92-.81.48-.37 1.02-.63.54-.25 1.16-.4.61-.15 1.34-.15 1.18 0 2.09.4t1.52 1.12.92 1.72q.32 1 .32 2.21v9.14h-3.46v-9.14q0-1.32-.6-2.04-.61-.72-1.84-.72-.89 0-1.68.41-.78.4-1.48 1.1v10.39h-3.46v-14.36h2.11q.68 0 .89.63m21.81 9.47v-6.44q-.59-.71-1.28-1-.7-.3-1.49-.3t-1.42.3q-.63.29-1.08.89-.44.59-.68 1.51-.24.91-.24 2.16 0 1.26.2 2.14.21.87.58 1.42.38.56.93.8.54.25 1.22.25 1.07 0 1.83-.45t1.43-1.28m0-16.54h3.46v20.8h-2.12q-.68 0-.87-.63l-.29-1.39q-.87 1-2 1.61-1.12.62-2.62.62-1.18 0-2.16-.49t-1.68-1.42q-.71-.93-1.1-2.3-.38-1.38-.38-3.14 0-1.6.43-2.97.44-1.37 1.25-2.38t1.95-1.57q1.13-.57 2.54-.57 1.21 0 2.06.38.86.38 1.53 1.02zm6.98 6.44h3.48v14.36h-3.48zm3.95-4.19q0 .45-.18.84t-.48.69q-.3.29-.71.47-.41.17-.87.17-.45 0-.85-.17-.39-.18-.69-.47-.29-.3-.47-.69-.17-.39-.17-.84 0-.46.17-.87.18-.4.47-.7.3-.29.69-.47.4-.17.85-.17.46 0 .87.17.41.18.71.47.3.3.48.7.18.41.18.87m2.94 11.54v-2.89h7.25v2.89zm14.02-3.15v6.44q.58.71 1.28 1 .69.3 1.5.3.79 0 1.42-.3.63-.29 1.07-.89t.68-1.52q.23-.92.23-2.16 0-1.26-.2-2.14-.2-.87-.58-1.42t-.92-.8-1.22-.25q-1.08 0-1.84.45-.75.46-1.42 1.29m-.47-3.57.28 1.33q.89-1 2.01-1.61 1.12-.62 2.63-.62 1.17 0 2.15.49.97.49 1.68 1.42.7.93 1.09 2.3.38 1.36.38 3.13 0 1.61-.43 2.98t-1.24 2.38q-.8 1.01-1.95 1.57-1.14.57-2.55.57-1.2 0-2.06-.37-.85-.37-1.52-1.03v5.88h-3.46v-19.05h2.11q.67 0 .88.63m12.95-7.07h3.46v20.8h-3.46zm14.51 17.09v-2.42q-1.5.07-2.52.26t-1.64.48-.88.69q-.27.39-.27.85 0 .91.54 1.3t1.41.39q1.06 0 1.84-.38.78-.39 1.52-1.17m-7.31-7.55-.62-1.1q2.48-2.27 5.97-2.27 1.26 0 2.25.41 1 .42 1.68 1.15.69.74 1.04 1.76.36 1.02.36 2.24v9.07h-1.57q-.49 0-.75-.15-.27-.14-.42-.59l-.31-1.04q-.55.49-1.06.86-.52.37-1.08.63-.56.25-1.2.38t-1.41.13q-.91 0-1.68-.24-.77-.25-1.33-.74t-.86-1.21q-.31-.73-.31-1.7 0-.54.18-1.08t.59-1.03q.42-.49 1.08-.93.65-.43 1.61-.75t2.24-.53q1.27-.2 2.91-.24v-.84q0-1.44-.62-2.14-.61-.69-1.78-.69-.84 0-1.39.2-.55.19-.97.44l-.77.44q-.34.19-.76.19-.36 0-.61-.18-.26-.19-.41-.45m25.13-1.33-.91 1.26q-.15.2-.3.31t-.43.11q-.26 0-.52-.16-.25-.16-.6-.36t-.83-.36q-.48-.17-1.2-.17-.91 0-1.59.33-.69.33-1.15.95-.45.61-.67 1.49-.23.87-.23 1.98 0 1.15.25 2.04.24.9.7 1.51.47.61 1.12.92.66.32 1.49.32.82 0 1.33-.21.52-.2.87-.44.35-.25.6-.45.26-.2.59-.2.42 0 .63.32l.99 1.26q-.57.67-1.25 1.12-.67.46-1.39.73-.72.28-1.48.39-.77.11-1.52.11-1.33 0-2.51-.5-1.17-.49-2.06-1.45-.88-.95-1.39-2.33t-.51-3.14q0-1.58.45-2.93.46-1.35 1.34-2.34t2.19-1.55q1.3-.56 2.99-.56 1.61 0 2.82.52t2.18 1.48m5.03 3.76h6.52q0-.68-.19-1.27-.19-.6-.57-1.04-.37-.45-.96-.71-.58-.26-1.35-.26-1.49 0-2.36.85-.86.86-1.09 2.43m8.82 2.08h-8.89q.08 1.11.39 1.91.31.81.81 1.33.5.53 1.2.79.69.26 1.53.26t1.45-.2 1.06-.43q.46-.24.8-.44.34-.19.67-.19.43 0 .64.32l.99 1.26q-.57.67-1.28 1.12-.72.46-1.5.73-.77.28-1.58.39-.8.11-1.56.11-1.5 0-2.78-.5-1.29-.49-2.24-1.47-.96-.97-1.5-2.41-.55-1.43-.55-3.32 0-1.47.48-2.77.47-1.29 1.36-2.25t2.17-1.52 2.89-.56q1.36 0 2.51.44 1.15.43 1.97 1.26.83.84 1.3 2.05t.47 2.76q0 .79-.17 1.06t-.64.27m6.86-14.05v7.98q.84-.79 1.84-1.28 1.01-.49 2.37-.49 1.18 0 2.09.4t1.51 1.12q.61.72.93 1.72.31 1 .31 2.21v9.14h-3.45v-9.14q0-1.32-.61-2.04-.6-.72-1.83-.72-.9 0-1.68.41-.78.4-1.48 1.1v10.39h-3.46v-20.8zm18.69 6.21q1.59 0 2.9.52t2.24 1.47 1.44 2.32q.5 1.38.5 3.07 0 1.71-.5 3.08-.51 1.37-1.44 2.34-.93.96-2.24 1.48t-2.9.52q-1.61 0-2.93-.52t-2.25-1.48q-.93-.97-1.44-2.34t-.51-3.08q0-1.69.51-3.07.51-1.37 1.44-2.32t2.25-1.47 2.93-.52m0 12.14q1.79 0 2.65-1.2.86-1.21.86-3.53 0-2.33-.86-3.54-.86-1.22-2.65-1.22-1.82 0-2.7 1.22-.87 1.23-.87 3.54t.87 3.52q.88 1.21 2.7 1.21m9.77-18.35h3.46v20.8h-3.46zm15.93 16.54v-6.44q-.59-.71-1.28-1-.69-.3-1.49-.3-.79 0-1.42.3-.63.29-1.07.89-.45.59-.69 1.51-.24.91-.24 2.16 0 1.26.2 2.14.21.87.59 1.42.37.56.92.8.55.25 1.22.25 1.08 0 1.83-.45.76-.45 1.43-1.28m0-16.54h3.46v20.8h-2.12q-.68 0-.86-.63l-.3-1.39q-.87 1-1.99 1.61-1.13.62-2.63.62-1.17 0-2.15-.49t-1.69-1.42-1.09-2.3q-.39-1.38-.39-3.14 0-1.6.44-2.97.43-1.37 1.24-2.38t1.95-1.57q1.13-.57 2.55-.57 1.2 0 2.05.38.86.38 1.53 1.02zm9.6 11.97h6.53q0-.68-.19-1.27-.19-.6-.57-1.04-.38-.45-.96-.71t-1.35-.26q-1.5 0-2.36.85-.86.86-1.1 2.43m8.82 2.08h-8.89q.09 1.11.4 1.91.3.81.81 1.33.5.53 1.19.79.7.26 1.54.26t1.45-.2 1.06-.43q.46-.24.8-.44.34-.19.66-.19.44 0 .65.32l.99 1.26q-.57.67-1.29 1.12-.71.46-1.49.73-.77.28-1.58.39-.8.11-1.56.11-1.5 0-2.79-.5-1.28-.49-2.24-1.47-.95-.97-1.49-2.41-.55-1.43-.55-3.32 0-1.47.48-2.77.47-1.29 1.36-2.25t2.17-1.52 2.89-.56q1.36 0 2.51.44 1.15.43 1.97 1.26.83.84 1.3 2.05t.47 2.76q0 .79-.17 1.06t-.65.27m6.46-6.75.21 1.63q.67-1.29 1.59-2.02.93-.74 2.19-.74.99 0 1.59.43l-.22 2.59q-.07.26-.2.36-.14.11-.36.11-.21 0-.62-.07-.42-.07-.81-.07-.57 0-1.02.16-.45.17-.81.49-.35.31-.63.76-.27.45-.51 1.02v8.85h-3.45v-14.36h2.03q.53 0 .74.18.21.19.28.68"/></svg>