<svg xmlns="http://www.w3.org/2000/svg" width="600" height="600" viewBox="0 0 600 600"><rect width="100%" height="100%" fill="#e2c9f0"/><path fill="#6E3997" d="M117.605 297.88v5.98q.55.66 1.19.94.64.27 1.36.27.74 0 1.33-.27.59-.26 1.01-.83.41-.56.64-1.44.22-.88.22-2.1 0-2.2-.73-3.18t-2.09-.98q-.93 0-1.62.42t-1.31 1.19m0-9.88v7.62q.81-.85 1.79-1.35t2.24-.5q1.16 0 2.09.46.93.45 1.58 1.31.66.85 1.01 2.06.35 1.2.35 2.71 0 1.63-.4 2.95-.4 1.33-1.15 2.27t-1.8 1.46q-1.06.53-2.34.53-.63 0-1.13-.13-.51-.12-.94-.34t-.79-.54q-.35-.32-.68-.71l-.14.9q-.08.33-.27.48-.19.14-.51.14h-2.12V288zm17.45 5.77q1.48 0 2.69.48 1.22.49 2.08 1.37.87.88 1.34 2.16.46 1.27.46 2.84 0 1.59-.46 2.86-.47 1.28-1.34 2.18-.86.89-2.08 1.37-1.21.49-2.69.49-1.5 0-2.72-.49-1.22-.48-2.09-1.37-.86-.9-1.34-2.18-.47-1.27-.47-2.86 0-1.57.47-2.84.48-1.28 1.34-2.16.87-.88 2.09-1.37 1.22-.48 2.72-.48m0 11.27q1.66 0 2.46-1.11.8-1.12.8-3.28t-.8-3.29-2.46-1.13q-1.69 0-2.51 1.14-.81 1.14-.81 3.28 0 2.15.81 3.27.82 1.12 2.51 1.12m14.93-11.27q1.49 0 2.7.48 1.22.49 2.08 1.37.87.88 1.33 2.16.47 1.27.47 2.84 0 1.59-.47 2.86-.46 1.28-1.33 2.18-.86.89-2.08 1.37-1.21.49-2.7.49t-2.71-.49q-1.23-.48-2.09-1.37-.86-.9-1.34-2.18-.47-1.27-.47-2.86 0-1.57.47-2.84.48-1.28 1.34-2.16t2.09-1.37q1.22-.48 2.71-.48m0 11.27q1.67 0 2.47-1.11.8-1.12.8-3.28t-.8-3.29-2.47-1.13q-1.69 0-2.5 1.14t-.81 3.28q0 2.15.81 3.27t2.5 1.12m9.04-17.04h3.21v11.06h.6q.32 0 .51-.08t.38-.34l3.32-4.1q.21-.27.46-.42.25-.14.66-.14h2.94l-4.15 4.95q-.44.59-.96.9.27.2.48.46.22.26.41.56l4.45 6.47h-2.9q-.38 0-.65-.12-.27-.13-.45-.45l-3.41-5.06q-.18-.3-.38-.39-.19-.09-.58-.09h-.73v6.11h-3.21zm13.79 12.81v-2.68h6.74v2.68zm20.2-5.18-.84 1.17q-.14.18-.28.29-.14.1-.4.1-.24 0-.48-.15-.23-.15-.56-.33-.32-.19-.77-.34t-1.11-.15q-.85 0-1.48.3-.64.31-1.06.88-.43.57-.63 1.39-.21.81-.21 1.83 0 1.07.23 1.9.22.83.65 1.4t1.04.86 1.38.29 1.24-.19q.48-.19.8-.41.33-.23.57-.42t.54-.19q.39 0 .58.3l.92 1.17q-.53.62-1.15 1.05-.63.42-1.3.67-.67.26-1.37.36-.71.11-1.42.11-1.23 0-2.32-.47-1.09-.46-1.91-1.34-.82-.89-1.3-2.17-.47-1.28-.47-2.92 0-1.46.42-2.72.42-1.25 1.24-2.17t2.03-1.44 2.78-.52q1.5 0 2.62.48 1.13.49 2.02 1.38m8.04-1.86q1.48 0 2.7.48 1.21.49 2.08 1.37.86.88 1.33 2.16.47 1.27.47 2.84 0 1.59-.47 2.86-.47 1.28-1.33 2.18-.87.89-2.08 1.37-1.22.49-2.7.49-1.5 0-2.72-.49-1.22-.48-2.09-1.37-.86-.9-1.33-2.18-.48-1.27-.48-2.86 0-1.57.48-2.84.47-1.28 1.33-2.16.87-.88 2.09-1.37 1.22-.48 2.72-.48m0 11.27q1.66 0 2.46-1.11.8-1.12.8-3.28t-.8-3.29-2.46-1.13q-1.69 0-2.5 1.14-.82 1.14-.82 3.28 0 2.15.82 3.27.81 1.12 2.5 1.12m18.52-11.06h2.54l-5.29 13.34h-2.92l-5.29-13.34h2.66q.36 0 .6.17t.32.43l2.57 7.12q.21.63.37 1.23.15.59.27 1.19.13-.6.29-1.19.15-.6.37-1.23l2.63-7.12q.09-.26.32-.43.24-.17.56-.17m6.78 5.14h6.05q0-.63-.17-1.18-.18-.55-.53-.97-.35-.41-.89-.65-.54-.25-1.25-.25-1.39 0-2.19.8-.8.79-1.02 2.25m8.19 1.93h-8.26q.08 1.03.36 1.78.29.75.76 1.23.47.49 1.11.73t1.42.24 1.35-.18q.56-.18.99-.4.42-.22.74-.41.32-.18.62-.18.4 0 .59.3l.93 1.17q-.54.62-1.2 1.05-.66.42-1.38.67-.73.26-1.47.36-.75.11-1.45.11-1.39 0-2.59-.47-1.2-.46-2.08-1.36-.88-.91-1.39-2.24t-.51-3.09q0-1.36.44-2.56.45-1.21 1.27-2.1.83-.89 2.02-1.41t2.68-.52q1.26 0 2.33.41 1.06.4 1.83 1.17.77.78 1.2 1.9.44 1.13.44 2.57 0 .73-.16.98-.15.25-.59.25m5.99-6.26.19 1.51q.63-1.2 1.49-1.88.85-.69 2.02-.69.93 0 1.49.41l-.21 2.4q-.07.24-.19.33-.12.1-.33.1-.2 0-.58-.06-.38-.07-.75-.07-.53 0-.95.16-.41.15-.74.45-.34.29-.59.7-.25.42-.47.95v8.22h-3.22v-13.34h1.89q.49 0 .69.18.19.17.26.63m6.76 6.02v-2.68h6.73v2.68zm13.01-2.93v5.98q.55.66 1.19.94.64.27 1.4.27.73 0 1.31-.27.59-.28 1-.83.41-.56.63-1.41.22-.86.22-2.01 0-1.17-.19-1.99-.19-.81-.54-1.32-.35-.5-.85-.74-.5-.23-1.14-.23-1 0-1.7.42t-1.33 1.19m-.43-3.31.26 1.23q.82-.92 1.86-1.49 1.04-.58 2.45-.58 1.09 0 1.99.46.9.45 1.56 1.32.66.86 1.02 2.13.35 1.27.35 2.91 0 1.49-.4 2.77-.4 1.27-1.15 2.21-.75.93-1.81 1.46t-2.37.53q-1.12 0-1.91-.35-.79-.34-1.42-.96v5.47h-3.21v-17.7h1.96q.63 0 .82.59m20.27-.59h3.21v13.34h-1.96q-.64 0-.81-.59l-.22-1.06q-.82.83-1.81 1.34-.98.52-2.32.52-1.1 0-1.93-.37-.84-.37-1.41-1.05-.58-.68-.87-1.6-.29-.93-.29-2.05v-8.48h3.21v8.48q0 1.22.57 1.89.56.67 1.69.67.83 0 1.56-.37t1.38-1.02zm9.16.59.23 1.05q.4-.4.85-.75.45-.34.95-.58t1.07-.38 1.25-.14q1.09 0 1.93.37.85.37 1.41 1.04.57.67.86 1.6t.29 2.05v8.49h-3.21v-8.49q0-1.22-.56-1.89-.55-.67-1.7-.67-.83 0-1.56.38-.73.37-1.38 1.02v9.65h-3.21v-13.34h1.97q.62 0 .81.59m11.99-.59h3.22v13.8q0 .87-.22 1.63-.23.77-.73 1.35t-1.31.91q-.82.33-1.99.33-.45 0-.84-.06t-.81-.19l.12-1.73q.04-.26.21-.33t.65-.07.81-.1q.33-.09.53-.31.19-.21.28-.56.08-.35.08-.87zm3.67-3.89q0 .42-.17.78-.17.37-.45.64t-.66.44q-.39.16-.82.16-.41 0-.78-.16-.36-.17-.63-.44-.28-.27-.44-.64-.16-.36-.16-.78t.16-.8.44-.65q.27-.27.63-.44.37-.16.78-.16.43 0 .82.16.38.17.66.44t.45.65.17.8m9.88 13.78v-2.24q-1.39.06-2.34.24-.95.17-1.52.44-.58.28-.82.64-.25.37-.25.79 0 .85.5 1.21.5.37 1.31.37.99 0 1.71-.36t1.41-1.09m-6.79-7-.57-1.03q2.3-2.11 5.54-2.11 1.17 0 2.09.39.92.38 1.56 1.06.64.69.97 1.64.33.94.33 2.08v8.42h-1.46q-.45 0-.7-.14-.24-.13-.39-.55l-.28-.96q-.51.45-.99.8-.48.34-1 .58-.52.23-1.11.35-.6.13-1.31.13-.85 0-1.56-.23-.72-.23-1.24-.68-.52-.46-.8-1.13-.29-.68-.29-1.58 0-.5.17-1t.55-.96q.39-.45 1-.86.61-.4 1.5-.7t2.07-.49q1.19-.19 2.71-.22v-.78q0-1.34-.57-1.99-.58-.64-1.66-.64-.78 0-1.29.18t-.9.41-.71.41-.71.18q-.34 0-.57-.17-.24-.18-.38-.41m16.15 1.01v5.98q.54.66 1.19.94.64.27 1.35.27.75 0 1.34-.27.59-.26 1.01-.83.41-.56.63-1.44t.22-2.1q0-2.2-.73-3.18-.72-.98-2.09-.98-.92 0-1.61.42t-1.31 1.19m0-9.88v7.62q.8-.85 1.78-1.35.99-.5 2.25-.5 1.15 0 2.08.46.93.45 1.59 1.31.66.85 1.01 2.06.35 1.2.35 2.71 0 1.63-.4 2.95-.41 1.33-1.16 2.27-.74.94-1.8 1.46-1.05.53-2.34.53-.62 0-1.13-.13-.5-.12-.93-.34t-.79-.54-.68-.71l-.15.9q-.07.33-.26.48-.19.14-.51.14h-2.12V288zm11.64 5.98h3.23v13.34h-3.23zm3.67-3.89q0 .42-.17.78-.17.37-.45.64t-.65.44q-.38.16-.81.16-.41 0-.79-.16-.37-.17-.64-.44t-.43-.64q-.17-.36-.17-.78t.17-.8q.16-.38.43-.65t.64-.44q.38-.16.79-.16.43 0 .81.16.37.17.65.44t.45.65.17.8m2.73 10.72v-2.68h6.74v2.68zm13.01-2.93v5.98q.55.66 1.19.94.65.27 1.4.27.73 0 1.31-.27.59-.28 1-.83.41-.56.63-1.41.22-.86.22-2.01 0-1.17-.19-1.99-.19-.81-.54-1.32-.35-.5-.85-.74-.5-.23-1.14-.23-1 0-1.7.42t-1.33 1.19m-.42-3.31.26 1.23q.81-.92 1.85-1.49 1.04-.58 2.45-.58 1.09 0 1.99.46.91.45 1.56 1.32.66.86 1.02 2.13.35 1.27.35 2.91 0 1.49-.4 2.77-.4 1.27-1.15 2.21-.75.93-1.81 1.46-1.05.53-2.37.53-1.12 0-1.91-.35-.79-.34-1.42-.96v5.47h-3.21v-17.7h1.97q.62 0 .82.59m12.02-6.57h3.21v19.32h-3.21zm13.47 15.87v-2.24q-1.39.06-2.34.24-.95.17-1.52.44-.58.28-.82.64-.25.37-.25.79 0 .85.5 1.21.5.37 1.31.37.99 0 1.71-.36t1.41-1.09m-6.79-7-.57-1.03q2.3-2.11 5.54-2.11 1.17 0 2.09.39.92.38 1.56 1.06.64.69.97 1.64.33.94.33 2.08v8.42h-1.46q-.45 0-.7-.14-.24-.13-.39-.55l-.28-.96q-.51.45-.99.8-.48.34-1 .58-.52.23-1.11.35-.6.13-1.31.13-.85 0-1.56-.23-.72-.23-1.24-.68-.52-.46-.8-1.13-.29-.68-.29-1.58 0-.5.17-1t.55-.96q.39-.45 1-.86.61-.4 1.5-.7t2.07-.49q1.19-.19 2.71-.22v-.78q0-1.34-.57-1.99-.58-.64-1.66-.64-.78 0-1.29.18t-.9.41-.71.41-.71.18q-.34 0-.57-.17-.24-.18-.38-.41m23.34-1.24-.85 1.17q-.14.18-.28.29-.13.1-.39.1-.25 0-.48-.15-.24-.15-.56-.33-.33-.19-.78-.34t-1.11-.15q-.84 0-1.48.3-.64.31-1.06.88t-.63 1.39q-.21.81-.21 1.83 0 1.07.23 1.9t.65 1.4q.43.57 1.05.86.61.29 1.37.29.77 0 1.24-.19.48-.19.8-.41.33-.23.57-.42t.54-.19q.39 0 .58.3l.93 1.17q-.54.62-1.16 1.05-.62.42-1.29.67-.67.26-1.38.36-.71.11-1.41.11-1.24 0-2.33-.47-1.09-.46-1.91-1.34-.82-.89-1.29-2.17-.48-1.28-.48-2.92 0-1.46.42-2.72.43-1.25 1.25-2.17.81-.92 2.02-1.44t2.79-.52q1.49 0 2.62.48 1.12.49 2.02 1.38m4.66 3.49h6.06q0-.63-.17-1.18-.18-.55-.53-.97-.35-.41-.89-.65-.54-.25-1.25-.25-1.4 0-2.2.8-.8.79-1.02 2.25m8.19 1.93h-8.25q.08 1.03.36 1.78.29.75.76 1.23.46.49 1.11.73.64.24 1.42.24t1.35-.18q.56-.18.99-.4.42-.22.74-.41.32-.18.61-.18.41 0 .6.3l.92 1.17q-.53.62-1.19 1.05-.66.42-1.39.67-.72.26-1.46.36-.75.11-1.45.11-1.4 0-2.59-.47-1.2-.46-2.08-1.36-.89-.91-1.39-2.24-.51-1.33-.51-3.09 0-1.36.44-2.56.45-1.21 1.27-2.1.83-.89 2.02-1.41t2.68-.52q1.26 0 2.33.41 1.06.4 1.83 1.17.77.78 1.2 1.9.44 1.13.44 2.57 0 .73-.16.98-.15.25-.6.25m6.37-13.05v7.41q.78-.73 1.72-1.18.94-.46 2.2-.46 1.09 0 1.93.37.85.37 1.41 1.04.57.67.86 1.6t.29 2.05v8.49h-3.21v-8.49q0-1.22-.56-1.89-.55-.67-1.7-.67-.83 0-1.56.38-.73.37-1.38 1.02v9.65h-3.21V288zm17.36 5.77q1.48 0 2.7.48 1.21.49 2.08 1.37.86.88 1.33 2.16.47 1.27.47 2.84 0 1.59-.47 2.86-.47 1.28-1.33 2.18-.87.89-2.08 1.37-1.22.49-2.7.49-1.5 0-2.72-.49-1.22-.48-2.08-1.37-.87-.9-1.34-2.18-.48-1.27-.48-2.86 0-1.57.48-2.84.47-1.28 1.34-2.16.86-.88 2.08-1.37 1.22-.48 2.72-.48m0 11.27q1.66 0 2.46-1.11.8-1.12.8-3.28t-.8-3.29-2.46-1.13q-1.69 0-2.5 1.14-.82 1.14-.82 3.28 0 2.15.82 3.27.81 1.12 2.5 1.12m9.07-17.04h3.21v19.32h-3.21zm14.8 15.37v-5.98q-.55-.67-1.19-.94-.65-.27-1.39-.27-.72 0-1.31.27t-1 .83q-.42.55-.64 1.4t-.22 2.01q0 1.17.19 1.98t.54 1.33q.35.51.86.74.5.23 1.13.23 1 0 1.7-.42t1.33-1.18m0-15.37h3.21v19.32h-1.97q-.63 0-.8-.59l-.27-1.28q-.81.92-1.86 1.49-1.04.58-2.43.58-1.1 0-2.01-.46t-1.56-1.32q-.66-.86-1.02-2.14-.35-1.27-.35-2.91 0-1.48.4-2.76.4-1.27 1.16-2.21.75-.93 1.8-1.46 1.06-.53 2.37-.53 1.12 0 1.91.36.79.35 1.42.94zm8.92 11.12h6.05q0-.63-.17-1.18-.18-.55-.53-.97-.35-.41-.89-.65-.54-.25-1.25-.25-1.39 0-2.19.8-.8.79-1.02 2.25m8.19 1.93h-8.26q.08 1.03.36 1.78.29.75.76 1.23.47.49 1.11.73t1.42.24 1.35-.18q.56-.18.99-.4.42-.22.74-.41.32-.18.62-.18.4 0 .59.3l.93 1.17q-.54.62-1.2 1.05-.66.42-1.38.67-.73.26-1.47.36-.75.11-1.45.11-1.39 0-2.59-.47-1.2-.46-2.08-1.36-.88-.91-1.39-2.24t-.51-3.09q0-1.36.44-2.56.45-1.21 1.27-2.1.83-.89 2.02-1.41t2.68-.52q1.26 0 2.33.41 1.06.4 1.83 1.17.77.78 1.2 1.9.44 1.13.44 2.57 0 .73-.16.98-.15.25-.59.25m5.99-6.26.19 1.51q.63-1.2 1.48-1.88.86-.69 2.03-.69.93 0 1.48.41l-.2 2.4q-.07.24-.19.33-.13.1-.33.1t-.58-.06q-.39-.07-.75-.07-.53 0-.95.16-.41.15-.75.45-.33.29-.58.7-.25.42-.48.95v8.22h-3.21v-13.34h1.89q.49 0 .69.18.19.17.26.63"/></svg>