<svg viewBox="0 0 24.7334 80.6067" fill="none" xmlns="http://www.w3.org/2000/svg">
<path id="doodle arrow" d="M0.267936 78.9255C-0.108298 79.3298 -0.0855373 79.9625 0.318773 80.3388C0.723083 80.715 1.35584 80.6923 1.73207 80.2879L1 79.6067L0.267936 78.9255ZM24.7303 1.78413C24.7736 1.23355 24.3623 0.752107 23.8117 0.708803L14.8394 0.00312912C14.2889 -0.0401746 13.8074 0.371058 13.7641 0.921642C13.7208 1.47223 14.132 1.95367 14.6826 1.99697L22.658 2.62424L22.0307 10.5996C21.9874 11.1502 22.3987 11.6316 22.9492 11.6749C23.4998 11.7182 23.9813 11.307 24.0246 10.7564L24.7303 1.78413ZM1 79.6067L1.73207 80.2879C2.19256 79.7931 2.64046 79.3008 3.07608 78.811L2.32886 78.1464L1.58163 77.4818C1.15616 77.9602 0.718373 78.4414 0.267936 78.9255L1 79.6067ZM4.82637 75.2001L5.60501 75.8276C6.45169 74.7769 7.2425 73.738 7.98069 72.7103L7.16851 72.1269L6.35632 71.5435C5.64036 72.5402 4.87198 73.5498 4.04773 74.5726L4.82637 75.2001ZM9.32688 68.9176L10.1742 69.4487C10.8955 68.2979 11.5522 67.1615 12.1491 66.039L11.2662 65.5695L10.3833 65.1C9.80916 66.1796 9.17632 67.2749 8.47956 68.3865L9.32688 68.9176ZM12.9474 62.0876L13.8647 62.4859C14.4053 61.2409 14.8749 60.0139 15.281 58.804L14.333 58.4858L13.385 58.1676C12.9972 59.3231 12.548 60.4967 12.0302 61.6893L12.9474 62.0876ZM15.3969 54.7716L16.3697 55.0031C16.6838 53.6833 16.9273 52.3854 17.1111 51.1087L16.1213 50.9662L15.1315 50.8237C14.956 52.0429 14.7237 53.2812 14.4241 54.5401L15.3969 54.7716ZM16.5054 47.1269L17.5037 47.1845C17.5811 45.8435 17.6014 44.5273 17.5789 43.2349L16.5791 43.2523L15.5792 43.2698C15.601 44.5175 15.5813 45.7834 15.507 47.0692L16.5054 47.1269ZM16.3915 39.3925L17.3885 39.3159C17.2869 37.9934 17.1534 36.6959 17.0052 35.4233L16.0119 35.539L15.0186 35.6547C15.1648 36.9096 15.2953 38.1799 15.3944 39.4692L16.3915 39.3925ZM15.527 31.6994L16.5185 31.569C16.3474 30.2686 16.1796 28.9985 16.0333 27.7477L15.0401 27.8639L14.0469 27.98C14.1951 29.2479 14.365 30.5333 14.5356 31.8299L15.527 31.6994ZM14.6742 24.0113L15.672 23.9448C15.5865 22.6609 15.5487 21.404 15.5806 20.169L14.5809 20.1433L13.5812 20.1175C13.5475 21.4273 13.5879 22.7474 13.6764 24.0777L14.6742 24.0113ZM14.9315 16.295L15.9182 16.4575C16.1171 15.2491 16.4104 14.0587 16.8208 12.882L15.8766 12.5526L14.9324 12.2232C14.481 13.5174 14.1608 14.8202 13.9447 16.1326L14.9315 16.295ZM17.4755 9.03679L18.3449 9.53089C18.925 8.51011 19.6166 7.49175 20.4379 6.474L19.6597 5.84601L18.8815 5.21802C17.9949 6.31671 17.2417 7.42431 16.6061 8.54269L17.4755 9.03679ZM22.2769 3.01856L22.9669 3.74237C23.4128 3.31729 23.8843 2.89189 24.3828 2.4661L23.7333 1.70572L23.0838 0.945352C22.5587 1.39387 22.0601 1.84362 21.5869 2.29475L22.2769 3.01856Z" fill="var(--stroke-0, #280F31)"/>
</svg>
