<svg viewBox="0 0 80.9747 84.1289" fill="none" xmlns="http://www.w3.org/2000/svg">
<path id="doodle arrow" d="M0.389644 75.2079C-0.0478148 75.545 -0.129158 76.1729 0.20796 76.6104L5.70161 83.7392C6.03872 84.1767 6.66664 84.258 7.1041 83.9209C7.54156 83.5838 7.6229 82.9559 7.28578 82.5184L2.40254 76.1817L8.73926 71.2984C9.17672 70.9613 9.25806 70.3334 8.92094 69.896C8.58383 69.4585 7.95591 69.3772 7.51845 69.7143L0.389644 75.2079ZM45.0001 39.5075L45.6108 38.7156L45.5995 38.7069L45.5879 38.6985L45.0001 39.5075ZM80.9747 1C80.9747 0.447715 80.527 0 79.9747 0C79.4225 0 78.9747 0.447715 78.9747 1H79.9747H80.9747ZM1.00005 76L0.871579 76.9917C18.3162 79.2515 28.4799 76.9506 34.1498 72.1877C39.8643 67.3874 40.7267 60.3405 40.2421 53.9256C39.9988 50.7048 39.4111 47.5754 38.8842 44.8821C38.3474 42.1378 37.8963 39.9408 37.8606 38.4326C37.8423 37.6644 37.9422 37.2668 38.0435 37.0938C38.0799 37.0317 38.1038 37.0201 38.1152 37.0146C38.1348 37.0051 38.2102 36.975 38.3903 36.9857C38.7832 37.009 39.4477 37.2109 40.4882 37.7661C41.5062 38.3093 42.7952 39.1413 44.4122 40.3164L45.0001 39.5075L45.5879 38.6985C43.9356 37.4977 42.5629 36.6062 41.4298 36.0016C40.3192 35.409 39.3432 35.0388 38.509 34.9892C38.0756 34.9634 37.6408 35.0216 37.2415 35.2155C36.834 35.4134 36.5302 35.7205 36.318 36.0826C35.9221 36.7582 35.841 37.6315 35.8611 38.48C35.902 40.2051 36.4046 42.6244 36.9214 45.2661C37.4482 47.9588 38.0143 50.985 38.2478 54.0763C38.7169 60.2854 37.8255 66.4881 32.8634 70.6563C27.8568 74.8619 18.4212 77.2485 1.12852 75.0083L1.00005 76ZM45.0001 39.5075L44.3893 40.2993C48.6238 43.5654 53.0126 46.4521 57.2273 47.9968C61.4527 49.5454 65.6483 49.7929 69.3264 47.5413C72.9655 45.3137 75.8545 40.7829 77.8447 33.3607C79.8399 25.9194 80.9747 15.4145 80.9747 1H79.9747H78.9747C78.9747 15.3355 77.8434 25.6431 75.9129 32.8427C73.9774 40.0614 71.2812 43.9998 68.2822 45.8355C65.3224 47.6474 61.8271 47.5525 57.9155 46.1189C53.9932 44.6813 49.7989 41.9459 45.6108 38.7156L45.0001 39.5075Z" fill="var(--stroke-0, #280F31)"/>
</svg>
