<svg width="55" height="115" viewBox="0 0 55 115" fill="none" xmlns="http://www.w3.org/2000/svg">
<path d="M45.1571 112.25C45.6039 112.575 45.7028 113.2 45.3782 113.647C45.0535 114.093 44.4281 114.192 43.9814 113.868L44.5692 113.059L45.1571 112.25ZM25.1641 64.904L25.9445 65.5292L25.1641 64.904ZM53.2637 76.354L52.2748 76.2055L53.2637 76.354ZM16.1163 0.042351C16.6453 -0.116377 17.2028 0.183771 17.3615 0.712748L19.9482 9.33302C20.107 9.862 19.8068 10.4195 19.2778 10.5782C18.7488 10.737 18.1913 10.4368 18.0326 9.90784L15.7333 2.24538L8.07086 4.54466C7.54188 4.7034 6.98437 4.40325 6.82564 3.87427C6.66691 3.34529 6.96706 2.78779 7.49604 2.62905L16.1163 0.042351ZM44.5692 113.059C43.9814 113.868 43.981 113.868 43.9805 113.867C43.9801 113.867 43.9794 113.866 43.9787 113.866C43.9773 113.865 43.9753 113.863 43.9728 113.862C43.9677 113.858 43.9604 113.853 43.951 113.846C43.9321 113.832 43.9046 113.811 43.8688 113.785C43.7973 113.732 43.6927 113.654 43.5577 113.551C43.2878 113.347 42.8964 113.045 42.4057 112.655C41.4246 111.875 40.0453 110.738 38.4456 109.307C35.2502 106.448 31.1567 102.397 27.6005 97.6523C24.0512 92.9169 20.9884 87.4256 19.9382 81.6883C18.8801 75.9074 19.8748 69.9069 24.3836 64.2788L25.1641 64.904L25.9445 65.5292C21.832 70.6627 20.9417 76.0623 21.9055 81.3282C22.8774 86.6377 25.7435 91.84 29.2008 96.4529C32.6512 101.056 36.642 105.009 39.7792 107.816C41.3458 109.218 42.695 110.33 43.6507 111.09C44.1284 111.47 44.5075 111.762 44.766 111.958C44.8952 112.056 44.9943 112.13 45.0604 112.179C45.0934 112.203 45.1183 112.221 45.1345 112.233C45.1426 112.239 45.1486 112.244 45.1524 112.246C45.1542 112.248 45.1556 112.249 45.1564 112.249C45.1568 112.25 45.1569 112.25 45.1571 112.25C45.1572 112.25 45.1571 112.25 44.5692 113.059ZM25.1641 64.904L24.3836 64.2788C27.3049 60.6323 30.7802 58.7072 34.3421 58.1306C37.8884 57.5566 41.4436 58.331 44.5346 59.9462C50.6539 63.1437 55.2548 69.8309 54.2526 76.5026L53.2637 76.354L52.2748 76.2055C53.113 70.6253 49.2207 64.6514 43.6084 61.7188C40.8337 60.2689 37.7134 59.611 34.6616 60.105C31.6254 60.5964 28.5799 62.2396 25.9445 65.5292L25.1641 64.904ZM53.2637 76.354L54.2526 76.5026C53.6183 80.7256 50.0385 83.3794 45.4168 84.6211C40.7693 85.8699 34.8047 85.7884 28.7718 84.3744C16.7309 81.5523 3.97984 73.2959 0.785367 58.9166L1.76157 58.6997L2.73777 58.4828C5.70314 71.8309 17.6064 79.7033 29.2282 82.4272C35.0267 83.7862 40.6455 83.8322 44.8979 82.6896C49.176 81.5402 51.8124 79.284 52.2748 76.2055L53.2637 76.354ZM1.76157 58.6997L0.785367 58.9166C-0.454238 53.3367 -0.117978 46.8842 1.04129 40.3988C2.20249 33.9025 4.2019 27.3069 6.34389 21.4112C8.4869 15.5127 10.7796 10.296 12.5361 6.5543C13.4146 4.68286 14.1598 3.1789 14.686 2.14144C14.9491 1.62268 15.1576 1.22045 15.3006 0.94713C15.3722 0.810465 15.4274 0.706017 15.4649 0.635341C15.4837 0.599996 15.4981 0.573096 15.5078 0.554826C15.5127 0.545698 15.5164 0.538717 15.519 0.533925C15.5203 0.531529 15.5213 0.529683 15.522 0.528379C15.5223 0.527723 15.5227 0.527163 15.5228 0.526834C15.5231 0.526408 15.5232 0.526116 16.4037 1.00016C17.2842 1.47421 17.2842 1.47419 17.2842 1.47431C17.284 1.47453 17.2839 1.4748 17.2837 1.47524C17.2832 1.47614 17.2824 1.47758 17.2813 1.47957C17.2792 1.48354 17.2759 1.4897 17.2715 1.498C17.2626 1.5146 17.2491 1.53982 17.2313 1.57345C17.1955 1.64073 17.1422 1.74167 17.0725 1.87473C16.9332 2.14086 16.7287 2.53545 16.4696 3.04616C15.9515 4.06765 15.2154 5.55323 14.3465 7.4042C12.6081 11.1073 10.3408 16.2669 8.22367 22.0942C6.1055 27.9243 4.14456 34.404 3.01008 40.7507C1.87366 47.1083 1.57889 53.2664 2.73777 58.4828L1.76157 58.6997Z" fill="#280F31"/>
</svg>
