<svg viewBox="0 0 34.1217 48.0003" fill="none" xmlns="http://www.w3.org/2000/svg">
<path id="doodle arrow" d="M0.000188947 47.0037C0.00207335 47.556 0.451314 48.0021 1.0036 48.0003C1.55588 47.9984 2.00206 47.5491 2.00018 46.9969L1.00018 47.0003L0.000188947 47.0037ZM30.9381 0.653462C30.7465 0.135454 30.1713 -0.129202 29.6533 0.0623361L21.2119 3.18362C20.6939 3.37516 20.4292 3.95036 20.6208 4.46837C20.8123 4.98638 21.3875 5.25103 21.9055 5.05949L29.409 2.28502L32.1835 9.7885C32.375 10.3065 32.9502 10.5712 33.4682 10.3796C33.9862 10.1881 34.2509 9.61289 34.0593 9.09488L30.9381 0.653462ZM1.00018 47.0003L2.00018 46.9969C1.96628 37.0623 6.79884 30.5646 12.9166 24.0762C18.9966 17.6278 26.4402 11.1297 30.9086 1.41826L30.0001 1.00027L29.0917 0.582283C24.8008 9.90799 17.7092 16.0779 11.4614 22.7042C5.25137 29.2905 -0.0364209 36.2742 0.000188947 47.0037L1.00018 47.0003Z" fill="var(--stroke-0, #280F31)"/>
</svg>
