<svg viewBox="0 0 111.88 36.375" fill="none" xmlns="http://www.w3.org/2000/svg">
<path id="doodle arrow" d="M90.5236 31.5L90.3466 31.0324L90.5236 31.5ZM108.357 0.127032C108.151 -0.0568808 107.834 -0.0389853 107.651 0.167002L104.654 3.52376C104.47 3.72975 104.488 4.04583 104.694 4.22974C104.9 4.41365 105.216 4.39576 105.4 4.18977L108.064 1.20598L111.047 3.87C111.253 4.05392 111.569 4.03602 111.753 3.83003C111.937 3.62404 111.919 3.30797 111.713 3.12406L108.357 0.127032ZM0.0235592 35C-0.000717649 35.4994 -0.000416256 35.4994 0.000158861 35.4995C0.000716176 35.4995 0.00156511 35.4995 0.0026779 35.4996C0.00490351 35.4997 0.00822041 35.4998 0.0126211 35.5001C0.0214225 35.5005 0.034559 35.5011 0.051971 35.5019C0.0867948 35.5036 0.13872 35.5061 0.207268 35.5093C0.344364 35.5157 0.547951 35.5251 0.8142 35.5371C1.3467 35.5611 2.12984 35.5953 3.133 35.6363C5.1393 35.7184 8.02572 35.8278 11.5471 35.9373C18.5895 36.1561 28.1731 36.375 38.3361 36.375C48.4978 36.375 59.2451 36.1562 68.6133 35.4988C77.9615 34.8428 85.9986 33.7467 90.7005 31.9676L90.5236 31.5L90.3466 31.0324C85.7985 32.7533 77.8981 33.8448 68.5432 34.5012C59.2082 35.1563 48.4869 35.375 38.3361 35.375C28.1865 35.375 18.6139 35.1564 11.5782 34.9377C8.06046 34.8284 5.17735 34.7191 3.17388 34.6371C2.17216 34.5962 1.39036 34.562 0.859139 34.5381C0.593528 34.5262 0.39056 34.5168 0.254066 34.5104C0.185818 34.5072 0.13419 34.5047 0.0996588 34.5031C0.0823932 34.5023 0.0694019 34.5016 0.0607449 34.5012C0.0564164 34.501 0.0531714 34.5009 0.0510174 34.5007C0.0499404 34.5007 0.0491451 34.5007 0.0486057 34.5006C0.0480841 34.5006 0.0478361 34.5006 0.0235592 35ZM90.5236 31.5L90.7005 31.9676C100.327 28.3251 104.779 20.4084 106.822 13.4663C107.844 9.99389 108.269 6.75052 108.439 4.37633C108.524 3.18851 108.545 2.21632 108.545 1.53938C108.545 1.20085 108.539 0.936014 108.534 0.754796C108.531 0.664183 108.528 0.594462 108.526 0.546876C108.525 0.523082 108.524 0.504821 108.524 0.492248C108.524 0.485961 108.523 0.481095 108.523 0.477671C108.523 0.475959 108.523 0.474607 108.523 0.473618C108.523 0.473124 108.523 0.472654 108.523 0.472407C108.523 0.472029 108.523 0.471741 108.024 0.500005C107.524 0.528268 107.524 0.528163 107.524 0.528149C107.524 0.528265 107.524 0.52834 107.524 0.528572C107.524 0.529035 107.524 0.529858 107.525 0.53104C107.525 0.533404 107.525 0.537202 107.525 0.542414C107.526 0.552838 107.526 0.568919 107.527 0.590502C107.529 0.633669 107.532 0.698838 107.534 0.784773C107.54 0.956654 107.545 1.21155 107.545 1.53957C107.545 2.19572 107.524 3.14388 107.441 4.30505C107.275 6.62884 106.86 9.79804 105.863 13.184C103.869 19.9587 99.5712 27.542 90.3466 31.0324L90.5236 31.5Z" fill="var(--stroke-0, #280F31)"/>
</svg>
