<svg viewBox="0 0 56.6243 36.0002" fill="none" xmlns="http://www.w3.org/2000/svg">
<path id="doodle arrow" d="M55.6308 1.99998C56.1831 1.99639 56.6279 1.54577 56.6243 0.993496C56.6207 0.441223 56.1701 -0.00357091 55.6178 2.16365e-05L55.6243 1L55.6308 1.99998ZM4.2355 35.4582C4.48858 35.9491 5.09168 36.1419 5.58257 35.8888L13.582 31.7647C14.0729 31.5116 14.2657 30.9085 14.0126 30.4176C13.7596 29.9268 13.1565 29.734 12.6656 29.987L5.55493 33.6529L1.88904 26.5423C1.63596 26.0514 1.03286 25.8586 0.541974 26.1117C0.0510859 26.3648 -0.141698 26.9679 0.111379 27.4588L4.2355 35.4582ZM55.6243 1L55.6178 2.16365e-05C39.5512 0.104535 28.7095 2.21846 20.8515 7.67917C12.9748 13.1528 8.27335 21.8643 4.17181 34.6955L5.12433 35L6.07685 35.3045C10.1395 22.5949 14.6697 14.4106 21.9928 9.32154C29.3346 4.21954 39.6608 2.10386 55.6308 1.99998L55.6243 1Z" fill="var(--stroke-0, #280F31)"/>
</svg>
