<svg width="170" height="105" viewBox="0 0 170 105" fill="none" xmlns="http://www.w3.org/2000/svg">
<ellipse cx="111.141" cy="15.5" rx="58" ry="15.5" fill="#FFD700"/>
<path d="M142.141 43C147.141 37 148.495 32.5889 148.141 26.5H142.641C145.319 31.4826 144.641 36.5 142.141 43Z" fill="#FFD700"/>
<path d="M65.2047 20H64.2387L68.0047 10.62H68.9427L72.7087 20H71.6867L68.9427 13.014L68.4527 11.558L67.9627 13.014L65.2047 20ZM70.9307 17.116H65.9467V16.304H70.9307V17.116ZM76.0639 20.14C75.6065 20.14 75.1679 20.07 74.7479 19.93C74.3372 19.79 73.9779 19.58 73.6699 19.3C73.3619 19.0107 73.1379 18.6467 72.9979 18.208L73.6839 17.69C73.7492 17.9887 73.8845 18.2687 74.0899 18.53C74.3045 18.782 74.5752 18.9827 74.9019 19.132C75.2379 19.2813 75.6345 19.356 76.0919 19.356C76.5399 19.356 76.8992 19.2673 77.1699 19.09C77.4405 18.9033 77.5759 18.6373 77.5759 18.292C77.5759 17.9467 77.4359 17.6947 77.1559 17.536C76.8852 17.3773 76.5212 17.242 76.0639 17.13L75.1539 16.92C74.8365 16.836 74.5239 16.724 74.2159 16.584C73.9172 16.444 73.6699 16.2527 73.4739 16.01C73.2872 15.758 73.1939 15.4313 73.1939 15.03C73.1939 14.4513 73.4039 13.994 73.8239 13.658C74.2439 13.3127 74.8039 13.14 75.5039 13.14C76.2225 13.14 76.8105 13.2987 77.2679 13.616C77.7252 13.9333 78.0379 14.33 78.2059 14.806L77.5059 15.324C77.3472 14.8667 77.0952 14.5167 76.7499 14.274C76.4045 14.0313 75.9705 13.91 75.4479 13.91C75.0465 13.91 74.7152 14.0033 74.4539 14.19C74.1925 14.3767 74.0619 14.6427 74.0619 14.988C74.0619 15.3333 74.1879 15.59 74.4399 15.758C74.6919 15.926 75.0605 16.066 75.5459 16.178L76.4419 16.402C77.1419 16.57 77.6412 16.808 77.9399 17.116C78.2479 17.4147 78.4019 17.802 78.4019 18.278C78.4019 18.7073 78.2945 19.062 78.0799 19.342C77.8652 19.6127 77.5805 19.8133 77.2259 19.944C76.8712 20.0747 76.4839 20.14 76.0639 20.14ZM80.8787 20H79.9547V10.62H80.8787V15.716L80.8367 16.556L81.7187 15.688L84.3227 13.28H85.4847L82.3627 16.178L82.2647 16.234L80.8787 17.536V20ZM85.5407 20H84.4207L81.9847 16.108L82.6147 15.562L85.5407 20ZM90.5954 22.366C90.2968 22.366 90.0261 22.31 89.7834 22.198C89.5501 22.0953 89.3494 21.96 89.1814 21.792C89.0228 21.6333 88.9014 21.4747 88.8174 21.316L89.3354 20.63C89.4661 20.9007 89.6341 21.12 89.8394 21.288C90.0448 21.4653 90.3014 21.554 90.6094 21.554C90.8801 21.554 91.1134 21.47 91.3094 21.302C91.5148 21.134 91.6921 20.8447 91.8414 20.434L92.2054 19.44L92.4434 19.748L91.5754 19.776L89.1114 13.28H90.0914L91.7854 17.886L92.2614 19.272L92.7514 17.886L94.4314 13.28H95.3974L92.5554 20.798C92.3594 21.3393 92.0981 21.736 91.7714 21.988C91.4448 22.24 91.0528 22.366 90.5954 22.366ZM98.9259 20.14C98.3192 20.14 97.7779 19.9953 97.3019 19.706C96.8259 19.4167 96.4525 19.0107 96.1819 18.488C95.9205 17.956 95.7899 17.34 95.7899 16.64C95.7899 15.9213 95.9205 15.3007 96.1819 14.778C96.4525 14.2553 96.8259 13.854 97.3019 13.574C97.7779 13.2847 98.3192 13.14 98.9259 13.14C99.5419 13.14 100.088 13.2847 100.564 13.574C101.04 13.854 101.409 14.2553 101.67 14.778C101.941 15.3007 102.076 15.9213 102.076 16.64C102.076 17.34 101.941 17.956 101.67 18.488C101.409 19.0107 101.04 19.4167 100.564 19.706C100.088 19.9953 99.5419 20.14 98.9259 20.14ZM98.9259 19.356C99.3739 19.356 99.7612 19.2533 100.088 19.048C100.424 18.8427 100.685 18.5393 100.872 18.138C101.059 17.7273 101.152 17.228 101.152 16.64C101.152 16.0427 101.059 15.5433 100.872 15.142C100.685 14.7313 100.424 14.4233 100.088 14.218C99.7612 14.0033 99.3739 13.896 98.9259 13.896C98.4965 13.896 98.1139 14.0033 97.7779 14.218C97.4419 14.4233 97.1805 14.7313 96.9939 15.142C96.8072 15.5433 96.7139 16.0427 96.7139 16.64C96.7139 17.228 96.8072 17.7273 96.9939 18.138C97.1805 18.5393 97.4419 18.8427 97.7779 19.048C98.1139 19.2533 98.4965 19.356 98.9259 19.356ZM105.845 20.14C105.406 20.14 105.019 20.056 104.683 19.888C104.356 19.7107 104.1 19.4493 103.913 19.104C103.736 18.7493 103.647 18.3153 103.647 17.802V13.28H104.557V17.606C104.557 18.1473 104.688 18.5767 104.949 18.894C105.22 19.202 105.64 19.356 106.209 19.356C106.694 19.356 107.082 19.2533 107.371 19.048C107.67 18.8427 107.884 18.5767 108.015 18.25C108.155 17.914 108.225 17.55 108.225 17.158L108.295 17.592C108.258 18.0307 108.146 18.446 107.959 18.838C107.782 19.2207 107.516 19.5333 107.161 19.776C106.816 20.0187 106.377 20.14 105.845 20.14ZM109.135 20H108.225V13.28H109.135V20ZM112.023 20H111.099V13.28H112.023V20ZM112.023 16.108L111.939 15.66C111.967 15.3427 112.033 15.0347 112.135 14.736C112.247 14.428 112.397 14.1527 112.583 13.91C112.77 13.6673 112.994 13.476 113.255 13.336C113.526 13.196 113.829 13.126 114.165 13.126C114.557 13.126 114.893 13.252 115.173 13.504C115.453 13.7467 115.593 14.0967 115.593 14.554C115.593 14.7967 115.565 15.0207 115.509 15.226C115.463 15.4313 115.407 15.59 115.341 15.702H114.347C114.441 15.59 114.52 15.4407 114.585 15.254C114.66 15.058 114.697 14.8573 114.697 14.652C114.697 14.4373 114.632 14.246 114.501 14.078C114.371 13.91 114.147 13.826 113.829 13.826C113.503 13.826 113.199 13.938 112.919 14.162C112.639 14.3767 112.42 14.6613 112.261 15.016C112.103 15.3613 112.023 15.7253 112.023 16.108ZM122.339 20.14C121.761 20.14 121.261 19.9953 120.841 19.706C120.431 19.4167 120.109 19.006 119.875 18.474C119.651 17.942 119.539 17.326 119.539 16.626C119.539 15.9167 119.651 15.3007 119.875 14.778C120.109 14.2553 120.431 13.8493 120.841 13.56C121.261 13.2613 121.761 13.112 122.339 13.112C122.843 13.112 123.259 13.2287 123.585 13.462C123.921 13.686 124.173 13.9847 124.341 14.358C124.519 14.7313 124.621 15.128 124.649 15.548L124.593 15.996C124.593 15.6227 124.523 15.2773 124.383 14.96C124.243 14.6427 124.029 14.386 123.739 14.19C123.45 13.994 123.077 13.896 122.619 13.896C122.013 13.896 121.504 14.1153 121.093 14.554C120.683 14.9927 120.477 15.6833 120.477 16.626C120.477 17.5687 120.683 18.2593 121.093 18.698C121.504 19.1367 122.013 19.356 122.619 19.356C123.077 19.356 123.45 19.258 123.739 19.062C124.029 18.866 124.243 18.6093 124.383 18.292C124.523 17.9747 124.593 17.6293 124.593 17.256L124.649 17.718C124.621 18.1287 124.519 18.5207 124.341 18.894C124.173 19.258 123.921 19.5567 123.585 19.79C123.259 20.0233 122.843 20.14 122.339 20.14ZM125.503 22.604H124.593V13.28H125.503V22.604ZM129.62 20.14C129.182 20.14 128.794 20.056 128.458 19.888C128.132 19.7107 127.875 19.4493 127.688 19.104C127.511 18.7493 127.422 18.3153 127.422 17.802V13.28H128.332V17.606C128.332 18.1473 128.463 18.5767 128.724 18.894C128.995 19.202 129.415 19.356 129.984 19.356C130.47 19.356 130.857 19.2533 131.146 19.048C131.445 18.8427 131.66 18.5767 131.79 18.25C131.93 17.914 132 17.55 132 17.158L132.07 17.592C132.033 18.0307 131.921 18.446 131.734 18.838C131.557 19.2207 131.291 19.5333 130.936 19.776C130.591 20.0187 130.152 20.14 129.62 20.14ZM132.91 20H132V13.28H132.91V20ZM137.661 20.14C137.036 20.14 136.481 20.0047 135.995 19.734C135.519 19.454 135.146 19.0527 134.875 18.53C134.614 18.0073 134.483 17.3773 134.483 16.64C134.483 15.9027 134.609 15.2727 134.861 14.75C135.123 14.2273 135.487 13.8307 135.953 13.56C136.42 13.28 136.952 13.14 137.549 13.14C138.165 13.14 138.693 13.2707 139.131 13.532C139.579 13.784 139.925 14.1573 140.167 14.652C140.41 15.1373 140.531 15.7207 140.531 16.402C140.531 16.486 140.527 16.57 140.517 16.654C140.508 16.7287 140.499 16.794 140.489 16.85H135.141V16.178H139.929L139.705 16.472C139.705 15.6133 139.509 14.9693 139.117 14.54C138.735 14.1107 138.212 13.896 137.549 13.896C136.887 13.896 136.355 14.12 135.953 14.568C135.561 15.016 135.365 15.6833 135.365 16.57V16.71C135.365 17.298 135.459 17.7927 135.645 18.194C135.841 18.586 136.112 18.88 136.457 19.076C136.803 19.272 137.204 19.37 137.661 19.37C138.119 19.37 138.492 19.3 138.781 19.16C139.08 19.02 139.318 18.8427 139.495 18.628C139.673 18.404 139.808 18.1847 139.901 17.97L140.461 18.628C140.219 19.0387 139.869 19.3933 139.411 19.692C138.963 19.9907 138.38 20.14 137.661 20.14ZM143.072 20H142.148V13.28H143.072V20ZM143.072 16.108L142.988 15.66C143.016 15.3427 143.081 15.0347 143.184 14.736C143.296 14.428 143.445 14.1527 143.632 13.91C143.819 13.6673 144.043 13.476 144.304 13.336C144.575 13.196 144.878 13.126 145.214 13.126C145.606 13.126 145.942 13.252 146.222 13.504C146.502 13.7467 146.642 14.0967 146.642 14.554C146.642 14.7967 146.614 15.0207 146.558 15.226C146.511 15.4313 146.455 15.59 146.39 15.702H145.396C145.489 15.59 145.569 15.4407 145.634 15.254C145.709 15.058 145.746 14.8573 145.746 14.652C145.746 14.4373 145.681 14.246 145.55 14.078C145.419 13.91 145.195 13.826 144.878 13.826C144.551 13.826 144.248 13.938 143.968 14.162C143.688 14.3767 143.469 14.6613 143.31 15.016C143.151 15.3613 143.072 15.7253 143.072 16.108ZM148.537 22.366C148.238 22.366 147.968 22.31 147.725 22.198C147.492 22.0953 147.291 21.96 147.123 21.792C146.964 21.6333 146.843 21.4747 146.759 21.316L147.277 20.63C147.408 20.9007 147.576 21.12 147.781 21.288C147.986 21.4653 148.243 21.554 148.551 21.554C148.822 21.554 149.055 21.47 149.251 21.302C149.456 21.134 149.634 20.8447 149.783 20.434L150.147 19.44L150.385 19.748L149.517 19.776L147.053 13.28H148.033L149.727 17.886L150.203 19.272L150.693 17.886L152.373 13.28H153.339L150.497 20.798C150.301 21.3393 150.04 21.736 149.713 21.988C149.386 22.24 148.994 22.366 148.537 22.366ZM155.238 17.158H154.454C154.454 16.542 154.44 15.884 154.412 15.184C154.384 14.484 154.356 13.7513 154.328 12.986C154.31 12.2113 154.3 11.4227 154.3 10.62H155.392C155.392 11.4227 155.378 12.2067 155.35 12.972C155.332 13.7373 155.308 14.47 155.28 15.17C155.252 15.87 155.238 16.5327 155.238 17.158ZM155.392 20H154.3V18.348H155.392V20Z" fill="#280F31"/>
<path d="M3.00032 40.2697L3.08986 42.2669L3.00032 40.2697ZM10.9712 39.5918L10.9195 41.5889L10.9712 39.5918ZM36.8875 37.5134L37.3019 39.4724L36.8875 37.5134ZM48.8614 36.6958L49.1206 38.6798L48.8614 36.6958ZM56.8382 36.0851L56.7648 38.0813L56.8382 36.0851ZM80.7648 34.2091L80.8224 32.2122L80.7648 34.2091ZM96.7158 32.9582L97.1131 34.9206L96.7158 32.9582ZM108.676 31.9852L108.545 33.9779L108.676 31.9852ZM114.648 31.4078L114.561 29.4106L114.648 31.4078ZM120.033 33.8813L122.032 34.005L120.033 33.8813ZM120.162 35.8772L118.193 36.2191L120.162 35.8772ZM120.336 37.8696L122.337 37.9041L120.336 37.8696ZM121.065 45.8366L123.045 45.5661L121.065 45.8366ZM122.071 57.7939L120.072 57.8748L122.071 57.7939ZM123.179 67.7373L121.204 68.0415L123.179 67.7373ZM123.27 71.7422L125.262 71.5671L123.27 71.7422ZM123.799 75.7128L121.8 75.591L123.799 75.7128ZM124.479 83.6837L126.449 83.3501L124.479 83.6837ZM122.685 93.2842L122.845 95.2776L122.685 93.2842ZM120.683 93.3463L120.679 91.348L120.683 93.3463ZM118.69 93.5185L119.069 95.4844L118.69 93.5185ZM114.705 93.8621L114.585 91.8662L114.705 93.8621ZM110.708 94.0675L110.716 92.0693L110.708 94.0675ZM100.747 94.9446L100.417 92.9705L100.747 94.9446ZM94.7623 95.3788L94.8681 97.3753L94.7623 95.3788ZM70.8513 97.4305L70.6383 95.4415L70.8513 97.4305ZM64.8543 97.7249L64.6371 95.7363L64.8543 97.7249ZM60.8693 98.0693L61.1638 100.049L60.8693 98.0693ZM54.8987 98.6629L55.1696 100.645L54.8987 98.6629ZM50.886 98.6935L51.0383 100.687L50.886 98.6935ZM48.8983 98.9196L48.5598 96.9468L48.8983 98.9196ZM46.9156 99.2023L46.6505 97.219L46.9156 99.2023ZM44.9225 99.368L44.8169 97.3715L44.9225 99.368ZM42.9229 99.4595L42.8064 97.4635L42.9229 99.4595ZM38.9417 99.8459L39.1341 101.837L38.9417 99.8459ZM34.9429 100.034L35.1442 102.024L34.9429 100.034ZM32.9491 100.19L32.7971 98.1965L32.9491 100.19ZM30.9485 100.271L30.9005 98.2726L30.9485 100.271ZM28.9537 100.416L28.6716 98.4352L28.9537 100.416ZM26.9669 100.654L26.7352 98.6665L26.9669 100.654ZM20.9786 101.046L20.707 99.0639L20.9786 101.046ZM17.0049 101.518L17.1111 103.515L17.0049 101.518ZM11.0307 102.072L11.2721 104.058L11.0307 102.072ZM9.04016 102.266L9.22631 104.258L9.04016 102.266ZM6.86714 95.8358L4.91716 96.2678L6.86714 95.8358ZM3.50711 55.9784L1.50737 56.0459L3.50711 55.9784ZM2.04693 42.0506L0.0471581 42.1173L2.04693 42.0506ZM3.00032 40.2697L3.08986 42.2669C3.76888 42.2431 4.44738 42.2134 5.12536 42.1776L5.00026 40.1821L4.87517 38.1865C4.2209 38.221 3.56611 38.2497 2.91079 38.2726L3.00032 40.2697ZM5.00026 40.1821L5.12536 42.1776C5.89735 42.1369 6.66311 42.0353 7.42172 41.8733L6.98471 39.9189L6.5477 37.9646C5.99263 38.0832 5.43543 38.1569 4.87517 38.1865L5.00026 40.1821ZM6.98471 39.9189L7.42172 41.8733C7.99208 41.7514 8.56442 41.6688 9.1393 41.6248L8.96709 39.6323L8.79488 37.6397C8.04028 37.6974 7.29103 37.8058 6.5477 37.9646L6.98471 39.9189ZM8.96709 39.6323L9.1393 41.6248C9.72912 41.5797 10.3224 41.5677 10.9195 41.5889L10.9712 39.5918L11.0229 37.5947C10.2773 37.5682 9.53454 37.5832 8.79488 37.6397L8.96709 39.6323ZM10.9712 39.5918L10.9195 41.5889C11.6473 41.6148 12.3729 41.6099 13.0963 41.574L12.9777 39.5781L12.859 37.5822C12.2498 37.6124 11.6378 37.6166 11.0229 37.5947L10.9712 39.5918ZM12.9777 39.5781L13.0963 41.574C13.7941 41.5395 14.4905 41.4885 15.1854 41.4211L14.9724 39.4321L14.7595 37.4431C14.1274 37.5044 13.4939 37.5508 12.859 37.5822L12.9777 39.5781ZM14.9724 39.4321L15.1854 41.4211C15.8293 41.3586 16.4741 41.3056 17.1197 41.2622L16.9657 39.2684L16.8116 37.2745C16.1267 37.3206 15.4427 37.3768 14.7595 37.4431L14.9724 39.4321ZM16.9657 39.2684L17.1197 41.2622C17.7844 41.2175 18.449 41.1731 19.1137 41.129L18.9616 39.135L18.8094 37.141C18.1435 37.1852 17.4775 37.2297 16.8116 37.2745L16.9657 39.2684ZM18.9616 39.135L19.1137 41.129C19.8765 41.0783 20.6335 40.9722 21.3839 40.8111L20.9447 38.8572L20.5056 36.9033C19.9424 37.0243 19.3773 37.1033 18.8094 37.141L18.9616 39.135ZM20.9447 38.8572L21.3839 40.8111C21.956 40.6882 22.53 40.6038 23.1065 40.5576L22.9267 38.5656L22.7468 36.5737C21.9943 36.6341 21.247 36.7441 20.5056 36.9033L20.9447 38.8572ZM22.9267 38.5656L23.1065 40.5576C23.7063 40.5094 24.3089 40.4904 24.9147 40.5005L24.9288 38.5024L24.9428 36.5044C24.2082 36.492 23.4761 36.5151 22.7468 36.5737L22.9267 38.5656ZM24.9288 38.5024L24.9147 40.5005C25.7158 40.514 26.5107 40.4494 27.2978 40.3069L26.9222 38.3405L26.5465 36.3741C26.0162 36.4701 25.4822 36.5134 24.9428 36.5044L24.9288 38.5024ZM26.9222 38.3405L27.2978 40.3069C27.8707 40.2033 28.4462 40.1378 29.0247 40.1102L28.9099 38.1141L28.7951 36.118C28.0407 36.1539 27.291 36.2394 26.5465 36.3741L26.9222 38.3405ZM28.9099 38.1141L29.0247 40.1102C29.645 40.0807 30.2674 40.0726 30.8922 40.0859L30.9152 38.088L30.9383 36.0901C30.222 36.0748 29.5076 36.0841 28.7951 36.118L28.9099 38.1141ZM30.9152 38.088L30.8922 40.0859C31.7033 40.1031 32.5078 40.0355 33.3034 39.8832L32.9081 37.9205L32.5128 35.9577C31.9922 36.0573 31.4682 36.1013 30.9383 36.0901L30.9152 38.088ZM32.9081 37.9205L33.3034 39.8832C33.8446 39.7797 34.3888 39.7254 34.9373 39.7201L34.8983 37.7218L34.8592 35.7236C34.0704 35.7312 33.2878 35.8094 32.5128 35.9577L32.9081 37.9205ZM34.8983 37.7218L34.9373 39.7201C35.7328 39.7124 36.5215 39.6296 37.3019 39.4724L36.8875 37.5134L36.4732 35.5544C35.9385 35.6621 35.4011 35.7183 34.8592 35.7236L34.8983 37.7218ZM36.8875 37.5134L37.3019 39.4724C37.7645 39.3792 38.2324 39.3553 38.7121 39.4019L38.8863 37.4129L39.0605 35.4239C38.1903 35.3395 37.3257 35.3826 36.4732 35.5544L36.8875 37.5134ZM38.8863 37.4129L38.7121 39.4019C39.5015 39.4784 40.2881 39.4867 41.0707 39.4258L40.8958 37.4335L40.7209 35.4412C40.1742 35.4837 39.6212 35.4783 39.0605 35.4239L38.8863 37.4129ZM40.8958 37.4335L41.0707 39.4258C41.8505 39.3652 42.6225 39.2375 43.3856 39.0438L42.8747 37.1068L42.3638 35.1697C41.8177 35.3083 41.2705 35.3984 40.7209 35.4412L40.8958 37.4335ZM42.8747 37.1068L43.3856 39.0438C43.9408 38.903 44.4972 38.8072 45.0558 38.7556L44.8523 36.7657L44.6487 34.7758C43.8797 34.8468 43.1177 34.9784 42.3638 35.1697L42.8747 37.1068ZM44.8523 36.7657L45.0558 38.7556C45.6106 38.7044 46.1708 38.6984 46.7372 38.7382L46.8581 36.7447L46.9789 34.7513C46.1986 34.6965 45.4215 34.7045 44.6487 34.7758L44.8523 36.7657ZM46.8581 36.7447L46.7372 38.7382C47.5361 38.7942 48.3312 38.775 49.1206 38.6798L48.8614 36.6958L48.6023 34.7118C48.0673 34.7763 47.5268 34.7897 46.9789 34.7513L46.8581 36.7447ZM48.8614 36.6958L49.1206 38.6798C49.7816 38.6001 50.4427 38.5209 51.1038 38.4424L50.8481 36.458L50.5925 34.4736C49.929 34.5524 49.2656 34.6318 48.6023 34.7118L48.8614 36.6958ZM50.8481 36.458L51.1038 38.4424C51.7679 38.3635 52.4319 38.2837 53.0959 38.2029L52.8347 36.2192L52.5735 34.2355C51.9133 34.3158 51.2529 34.3952 50.5925 34.4736L50.8481 36.458ZM52.8347 36.2192L53.0959 38.2029C53.6978 38.1297 54.302 38.084 54.9088 38.0658L54.8291 36.0684L54.7494 34.0709C54.0213 34.0928 53.2959 34.1476 52.5735 34.2355L52.8347 36.2192ZM54.8291 36.0684L54.9088 38.0658C55.5249 38.0474 56.1435 38.0525 56.7648 38.0813L56.8382 36.0851L56.9116 34.0889C56.189 34.0554 55.4682 34.0494 54.7494 34.0709L54.8291 36.0684ZM56.8382 36.0851L56.7648 38.0813C57.5555 38.118 58.3418 38.0845 59.1224 37.9804L58.8384 35.9996L58.5543 34.0188C58.012 34.0911 57.4649 34.1146 56.9116 34.0889L56.8382 36.0851ZM58.8384 35.9996L59.1224 37.9804C59.8295 37.8861 60.534 37.7673 61.2359 37.6241L60.8166 35.666L60.3973 33.708C59.7844 33.8331 59.1701 33.9367 58.5543 34.0188L58.8384 35.9996ZM60.8166 35.666L61.2359 37.6241C61.7878 37.5114 62.3421 37.4446 62.8999 37.4231L62.8031 35.4262L62.7063 33.4293C61.9302 33.4593 61.1601 33.5523 60.3973 33.708L60.8166 35.666ZM62.8031 35.4262L62.8999 37.4231C63.5417 37.3983 64.1847 37.3856 64.8288 37.385L64.8073 35.3867L64.7858 33.3883C64.0916 33.389 63.3984 33.4026 62.7063 33.4293L62.8031 35.4262ZM64.8073 35.3867L64.8288 37.385C65.5455 37.3843 66.2601 37.3582 66.9727 37.3066L66.8085 35.3135L66.6443 33.3203C66.0269 33.365 65.4075 33.3877 64.7858 33.3883L64.8073 35.3867ZM66.8085 35.3135L66.9727 37.3066C67.7071 37.2534 68.4378 37.1621 69.1645 37.0326L68.7943 35.0652L68.4241 33.0978C67.833 33.2031 67.2399 33.2772 66.6443 33.3203L66.8085 35.3135ZM68.7943 35.0652L69.1645 37.0326C69.7079 36.9358 70.2545 36.8876 70.8058 36.8876L70.7864 34.8893L70.767 32.8909C69.9798 32.8908 69.1984 32.9599 68.4241 33.0978L68.7943 35.0652ZM70.7864 34.8893L70.8058 36.8876C71.5734 36.8877 72.3366 36.8314 73.0944 36.7189L72.7811 34.7422L72.4678 32.7656C71.9045 32.8492 71.3378 32.8909 70.767 32.8909L70.7864 34.8893ZM72.7811 34.7422L73.0944 36.7189C73.6647 36.6343 74.2382 36.589 74.8154 36.5829L74.7749 34.5847L74.7344 32.5864C73.9744 32.5944 73.2186 32.6541 72.4678 32.7656L72.7811 34.7422ZM74.7749 34.5847L74.8154 36.5829C75.5975 36.5748 76.3739 36.5005 77.1434 36.3604L76.7658 34.3944L76.3881 32.4283C75.8403 32.528 75.2895 32.5806 74.7344 32.5864L74.7749 34.5847ZM76.7658 34.3944L77.1434 36.3604C77.6989 36.2593 78.2572 36.2027 78.8194 36.1903L78.7556 34.1924L78.6918 32.1945C77.9182 32.2116 77.1499 32.2896 76.3881 32.4283L76.7658 34.3944ZM78.7556 34.1924L78.8194 36.1903C79.4466 36.1764 80.0759 36.1817 80.7071 36.206L80.7648 34.2091L80.8224 32.2122C80.1106 32.1848 79.4004 32.1789 78.6918 32.1945L78.7556 34.1924ZM80.7648 34.2091L80.7071 36.206C81.5385 36.238 82.3627 36.1711 83.1763 36.0055L82.7582 34.0472L82.34 32.089C81.8388 32.191 81.334 32.2319 80.8224 32.2122L80.7648 34.2091ZM82.7582 34.0472L83.1763 36.0055C83.7217 35.8945 84.2696 35.8316 84.8212 35.8162L84.7456 33.8186L84.6701 31.821C83.8866 31.8429 83.1095 31.9324 82.34 32.089L82.7582 34.0472ZM84.7456 33.8186L84.8212 35.8162C85.4718 35.798 86.1231 35.7881 86.7752 35.7865L86.7506 33.7881L86.7261 31.7898C86.04 31.7915 85.3547 31.8019 84.6701 31.821L84.7456 33.8186ZM86.7506 33.7881L86.7752 35.7865C87.5884 35.7845 88.3937 35.6954 89.1887 35.5201L88.7389 33.5686L88.2891 31.617C87.7712 31.7312 87.251 31.7885 86.7261 31.7898L86.7506 33.7881ZM88.7389 33.5686L89.1887 35.5201C89.7201 35.403 90.2536 35.3386 90.7911 35.3262L90.7254 33.3284L90.6597 31.3306C89.8614 31.349 89.0707 31.4447 88.2891 31.617L88.7389 33.5686ZM90.7254 33.3284L90.7911 35.3262C91.5564 35.3086 92.3168 35.2354 93.0716 35.1069L92.7162 33.1369L92.3608 31.1669C91.7969 31.263 91.2301 31.3175 90.6597 31.3306L90.7254 33.3284ZM92.7162 33.1369L93.0716 35.1069C93.5599 35.0237 94.0542 35.0039 94.5589 35.0488L94.7169 33.0583L94.875 31.0678C94.0306 30.9928 93.1911 31.0254 92.3608 31.1669L92.7162 33.1369ZM94.7169 33.0583L94.5589 35.0488C95.4177 35.1251 96.2709 35.0827 97.1131 34.9206L96.7158 32.9582L96.3184 30.9959C95.8445 31.0871 95.3652 31.1114 94.875 31.0678L94.7169 33.0583ZM96.7158 32.9582L97.1131 34.9206C97.6777 34.812 98.2448 34.7446 98.815 34.7181L98.7026 32.7219L98.5901 30.7257C97.8274 30.7611 97.0699 30.8513 96.3184 30.9959L96.7158 32.9582ZM98.7026 32.7219L98.815 34.7181C99.5515 34.6839 100.284 34.6113 101.014 34.5002L100.693 32.5246L100.372 30.5491C99.7806 30.6392 99.1867 30.698 98.5901 30.7257L98.7026 32.7219ZM100.693 32.5246L101.014 34.5002C101.573 34.415 102.136 34.3731 102.703 34.3743L102.687 32.3759L102.672 30.3776C101.9 30.3759 101.134 30.4331 100.372 30.5491L100.693 32.5246ZM102.687 32.3759L102.703 34.3743C103.425 34.3758 104.146 34.3486 104.864 34.2926L104.688 32.3003L104.513 30.308C103.902 30.3557 103.288 30.3789 102.672 30.3776L102.687 32.3759ZM104.688 32.3003L104.864 34.2926C105.581 34.2366 106.296 34.1522 107.008 34.0395L106.675 32.0657L106.343 30.092C105.735 30.1882 105.125 30.2602 104.513 30.308L104.688 32.3003ZM106.675 32.0657L107.008 34.0395C107.513 33.9595 108.024 33.9386 108.545 33.9779L108.676 31.9852L108.807 29.9925C107.98 29.9301 107.157 29.963 106.343 30.092L106.675 32.0657ZM108.676 31.9852L108.545 33.9779C109.352 34.0388 110.155 34.0188 110.952 33.917L110.679 31.9348L110.406 29.9525C109.88 30.0197 109.348 30.0333 108.807 29.9925L108.676 31.9852ZM110.679 31.9348L110.952 33.917C111.651 33.8278 112.348 33.7187 113.044 33.5898L112.659 31.6249L112.275 29.6601C111.654 29.7754 111.031 29.8728 110.406 29.9525L110.679 31.9348ZM112.659 31.6249L113.044 33.5898C113.605 33.4857 114.168 33.4243 114.735 33.4051L114.648 31.4078L114.561 29.4106C113.793 29.4366 113.031 29.5199 112.275 29.6601L112.659 31.6249ZM114.648 31.4078L114.735 33.4051C115.448 33.3809 116.158 33.3329 116.866 33.2608L116.644 31.2727L116.422 29.2847C115.803 29.3476 115.183 29.3896 114.561 29.4106L114.648 31.4078ZM116.644 31.2727L116.866 33.2608C117.431 33.2034 118 33.1877 118.574 33.2141L118.647 31.2179L118.719 29.2216C117.95 29.1863 117.183 29.2072 116.422 29.2847L116.644 31.2727ZM118.647 31.2179L118.574 33.2141C118.662 33.2182 118.526 33.2308 118.323 33.0896C118.219 33.0175 118.126 32.9235 118.054 32.8164C117.984 32.712 117.951 32.6211 117.936 32.5673L119.87 32.0692L121.803 31.571C121.624 30.9017 121.235 30.2669 120.59 29.8181C119.979 29.3932 119.303 29.2485 118.719 29.2216L118.647 31.2179ZM119.87 32.0692L117.936 32.5673C118.016 32.863 118.06 33.252 118.034 33.7575L120.033 33.8813L122.032 34.005C122.075 33.1676 122.011 32.3486 121.803 31.571L119.87 32.0692ZM120.033 33.8813L118.034 33.7575C117.99 34.5838 118.043 35.4054 118.193 36.2191L120.162 35.8772L122.13 35.5352C122.038 35.0306 122.005 34.5216 122.032 34.005L120.033 33.8813ZM120.162 35.8772L118.193 36.2191C118.291 36.754 118.338 37.2921 118.334 37.8351L120.336 37.8696L122.337 37.9041C122.343 37.1089 122.274 36.3187 122.13 35.5352L120.162 35.8772ZM120.336 37.8696L118.334 37.8351C118.328 38.6878 118.438 39.5308 118.662 40.3594L120.594 39.8554L122.526 39.3513C122.396 38.8703 122.334 38.3895 122.337 37.9041L120.336 37.8696ZM120.594 39.8554L118.662 40.3594C118.808 40.897 118.902 41.435 118.945 41.9749L120.941 41.8343L122.936 41.6937C122.872 40.9045 122.735 40.1233 122.526 39.3513L120.594 39.8554ZM120.941 41.8343L118.945 41.9749C118.992 42.5518 119 43.1327 118.971 43.7181L120.97 43.838L122.969 43.9578C123.007 43.2006 122.996 42.4457 122.936 41.6937L120.941 41.8343ZM120.97 43.838L118.971 43.7181C118.931 44.5187 118.968 45.3157 119.084 46.1071L121.065 45.8366L123.045 45.5661C122.967 45.0354 122.942 44.4999 122.969 43.9578L120.97 43.838ZM121.065 45.8366L119.084 46.1071C119.183 46.7804 119.288 47.4531 119.399 48.1254L121.374 47.8184L123.349 47.5115C123.241 46.8635 123.14 46.215 123.045 45.5661L121.065 45.8366ZM121.374 47.8184L119.399 48.1254C119.496 48.7112 119.56 49.2992 119.59 49.8898L121.589 49.8076L123.588 49.7254C123.55 48.984 123.47 48.2459 123.349 47.5115L121.374 47.8184ZM121.589 49.8076L119.59 49.8898C119.622 50.5295 119.642 51.1703 119.65 51.8121L121.651 51.8087L123.653 51.8054C123.645 51.1111 123.623 50.4177 123.588 49.7254L121.589 49.8076ZM121.651 51.8087L119.65 51.8121C119.659 52.5755 119.722 53.3351 119.839 54.0902L121.817 53.8018L123.795 53.5133C123.707 52.9472 123.659 52.3781 123.653 51.8054L121.651 51.8087ZM121.817 53.8018L119.839 54.0902C119.929 54.6651 119.981 55.2427 119.995 55.8235L121.996 55.7938L123.997 55.764C123.979 55.01 123.911 54.2596 123.795 53.5133L121.817 53.8018ZM121.996 55.7938L119.995 55.8235C120.012 56.5079 120.038 57.1917 120.072 57.8748L122.071 57.7939L124.071 57.713C124.038 57.064 124.014 56.4144 123.997 55.764L121.996 55.7938ZM122.071 57.7939L120.072 57.8748C120.112 58.6652 120.225 59.4488 120.411 60.224L122.358 59.7775L124.304 59.331C124.175 58.7935 124.098 58.2547 124.071 57.713L122.071 57.7939ZM122.358 59.7775L120.411 60.224C120.534 60.7368 120.598 61.2511 120.604 61.7694L122.606 61.7641L124.607 61.7588C124.597 60.9411 124.496 60.131 124.304 59.331L122.358 59.7775ZM122.606 61.7641L120.604 61.7694C120.614 62.5225 120.671 63.2722 120.776 64.0182L122.758 63.7582L124.74 63.4982C124.659 62.9214 124.614 62.3418 124.607 61.7588L122.606 61.7641ZM122.758 63.7582L120.776 64.0182C120.862 64.6261 120.923 65.2358 120.96 65.8475L122.958 65.7486L124.956 65.6498C124.913 64.9303 124.841 64.213 124.74 63.4982L122.758 63.7582ZM122.958 65.7486L120.96 65.8475C121.003 66.582 121.085 67.3134 121.204 68.0415L123.179 67.7373L125.155 67.433C125.058 66.8407 124.991 66.2464 124.956 65.6498L122.958 65.7486ZM123.179 67.7373L121.204 68.0415C121.286 68.5377 121.306 69.0397 121.263 69.5514L123.257 69.7372L125.252 69.923C125.322 69.0885 125.29 68.2573 125.155 67.433L123.179 67.7373ZM123.257 69.7372L121.263 69.5514C121.197 70.3427 121.201 71.1318 121.278 71.9172L123.27 71.7422L125.262 71.5671C125.209 71.0254 125.206 70.4778 125.252 69.923L123.257 69.7372ZM123.27 71.7422L121.278 71.9172C121.353 72.6771 121.482 73.4314 121.665 74.1794L123.609 73.7217L125.553 73.264C125.415 72.6998 125.318 72.1344 125.262 71.5671L123.27 71.7422ZM123.609 73.7217L121.665 74.1794C121.78 74.6461 121.825 75.1146 121.8 75.591L123.799 75.7128L125.798 75.8347C125.843 74.9683 125.761 74.1094 125.553 73.264L123.609 73.7217ZM123.799 75.7128L121.8 75.591C121.76 76.3728 121.785 77.1515 121.875 77.9262L123.864 77.7138L125.852 77.5015C125.787 76.9509 125.769 76.3957 125.798 75.8347L123.799 75.7128ZM123.864 77.7138L121.875 77.9262C121.96 78.6506 122.079 79.3718 122.231 80.0897L124.189 79.6944L126.147 79.2991C126.02 78.7014 125.922 78.1023 125.852 77.5015L123.864 77.7138ZM124.189 79.6944L122.231 80.0897C122.334 80.5794 122.374 81.0725 122.35 81.5732L124.35 81.6878L126.349 81.8024C126.389 80.9608 126.322 80.1249 126.147 79.2991L124.189 79.6944ZM124.35 81.6878L122.35 81.5732C122.311 82.3934 122.364 83.2091 122.509 84.0173L124.479 83.6837L126.449 83.3501C126.358 82.8395 126.324 82.3245 126.349 81.8024L124.35 81.6878ZM124.479 83.6837L122.509 84.0173C122.618 84.6281 122.705 85.2404 122.769 85.8543L124.76 85.6678L126.751 85.4812C126.677 84.7685 126.576 84.0581 126.449 83.3501L124.479 83.6837ZM124.76 85.6678L122.769 85.8543C122.828 86.4271 122.849 87.0037 122.83 87.5845L124.831 87.6682L126.831 87.7519C126.856 86.9921 126.829 86.2349 126.751 85.4812L124.76 85.6678ZM124.831 87.6682L122.83 87.5845C122.805 88.3514 122.836 89.1153 122.923 89.8754L124.912 89.6679L126.901 89.4603C126.836 88.895 126.813 88.3258 126.831 87.7519L124.831 87.6682ZM124.912 89.6679L122.923 89.8754C122.994 90.4911 123.042 91.1086 123.069 91.7278L125.069 91.6616L127.068 91.5955C127.038 90.8818 126.982 90.1701 126.901 89.4603L124.912 89.6679ZM125.069 91.6616L123.069 91.7278C123.073 91.8379 123.046 91.7309 123.148 91.5375C123.202 91.4357 123.28 91.3321 123.383 91.2426C123.485 91.1542 123.584 91.102 123.658 91.0733L124.397 92.9376L125.136 94.802C125.79 94.5488 126.348 94.0851 126.696 93.4234C127.022 92.8047 127.092 92.1517 127.068 91.5955L125.069 91.6616ZM124.397 92.9376L123.658 91.0733C123.413 91.1681 123.048 91.254 122.525 91.2908L122.685 93.2842L122.845 95.2776C123.652 95.2208 124.428 95.0756 125.136 94.802L124.397 92.9376ZM122.685 93.2842L122.525 91.2908C121.912 91.334 121.297 91.353 120.679 91.348L120.683 93.3463L120.686 95.3446C121.408 95.3505 122.128 95.3282 122.845 95.2776L122.685 93.2842ZM120.683 93.3463L120.679 91.348C119.884 91.3416 119.094 91.4099 118.312 91.5525L118.69 93.5185L119.069 95.4844C119.604 95.3867 120.142 95.3402 120.686 95.3446L120.683 93.3463ZM118.69 93.5185L118.312 91.5525C117.734 91.658 117.154 91.7271 116.571 91.7602L116.703 93.7553L116.836 95.7505C117.585 95.708 118.329 95.6193 119.069 95.4844L118.69 93.5185ZM116.703 93.7553L116.571 91.7602C115.909 91.7977 115.247 91.8331 114.585 91.8662L114.705 93.8621L114.825 95.8579C115.496 95.8243 116.166 95.7885 116.836 95.7505L116.703 93.7553ZM114.705 93.8621L114.585 91.8662C113.896 91.9008 113.208 91.9472 112.521 92.0055L112.709 93.9967L112.898 95.9879C113.54 95.9335 114.182 95.8902 114.825 95.8579L114.705 93.8621ZM112.709 93.9967L112.521 92.0055C111.922 92.0563 111.32 92.0776 110.716 92.0693L110.708 94.0675L110.7 96.0657C111.436 96.0757 112.168 96.0498 112.898 95.9879L112.709 93.9967ZM110.708 94.0675L110.716 92.0693C109.92 92.0584 109.129 92.1224 108.346 92.261L108.715 94.2288L109.083 96.1965C109.618 96.1018 110.156 96.0582 110.7 96.0657L110.708 94.0675ZM108.715 94.2288L108.346 92.261C107.735 92.3692 107.122 92.4548 106.508 92.5178L106.731 94.5058L106.955 96.4937C107.667 96.4207 108.376 96.3216 109.083 96.1965L108.715 94.2288ZM106.731 94.5058L106.508 92.5178C105.939 92.5761 105.367 92.5938 104.79 92.5708L104.729 94.5675L104.669 96.5643C105.435 96.5949 106.197 96.5714 106.955 96.4937L106.731 94.5058ZM104.729 94.5675L104.79 92.5708C104.004 92.5394 103.224 92.5747 102.448 92.6769L102.729 94.6581L103.011 96.6393C103.558 96.5671 104.111 96.542 104.669 96.5643L104.729 94.5675ZM102.729 94.6581L102.448 92.6769C101.77 92.7663 101.093 92.8641 100.417 92.9705L100.747 94.9446L101.077 96.9187C101.721 96.8175 102.365 96.7244 103.011 96.6393L102.729 94.6581ZM100.747 94.9446L100.417 92.9705C99.7903 93.069 99.1626 93.1513 98.5335 93.2174L98.7623 95.2048L98.9912 97.1922C99.6883 97.1189 100.384 97.0277 101.077 96.9187L100.747 94.9446ZM98.7623 95.2048L98.5335 93.2174C97.9313 93.2807 97.3265 93.3164 96.7191 93.3244L96.7651 95.3226L96.811 97.3207C97.5405 97.3112 98.2673 97.2683 98.9912 97.1922L98.7623 95.2048ZM96.7651 95.3226L96.7191 93.3244C96.0308 93.3334 95.3432 93.3527 94.6566 93.3823L94.7623 95.3788L94.8681 97.3753C95.5148 97.3474 96.1625 97.3293 96.811 97.3207L96.7651 95.3226ZM94.7623 95.3788L94.6566 93.3823C94.0018 93.4105 93.3465 93.4328 92.6906 93.4494L92.7607 95.4471L92.8308 97.4448C93.5104 97.4277 94.1895 97.4045 94.8681 97.3753L94.7623 95.3788ZM92.7607 95.4471L92.6906 93.4494C91.9247 93.4687 91.1637 93.544 90.4085 93.6753L90.7704 95.6441L91.1323 97.613C91.6954 97.5152 92.2613 97.4592 92.8308 97.4448L92.7607 95.4471ZM90.7704 95.6441L90.4085 93.6753C89.8037 93.7804 89.1971 93.86 88.5885 93.9142L88.7857 95.9047L88.983 97.8951C89.7024 97.831 90.4189 97.737 91.1323 97.613L90.7704 95.6441ZM88.7857 95.9047L88.5885 93.9142C87.9941 93.9672 87.3967 93.989 86.7959 93.9798L86.7845 95.9779L86.7731 97.976C87.5126 97.9874 88.2493 97.9605 88.983 97.8951L88.7857 95.9047ZM86.7845 95.9779L86.7959 93.9798C85.9735 93.9671 85.1588 94.0475 84.3548 94.2202L84.7941 96.174L85.2335 98.1278C85.743 98.0184 86.2553 97.968 86.7731 97.976L86.7845 95.9779ZM84.7941 96.174L84.3548 94.2202C83.8111 94.337 83.2651 94.4051 82.7157 94.4251L82.8084 96.4222L82.901 98.4192C83.6858 98.3905 84.4637 98.2932 85.2335 98.1278L84.7941 96.174ZM82.8084 96.4222L82.7157 94.4251C82.0175 94.4506 81.3206 94.4924 80.6251 94.5504L80.8113 96.5419L80.9974 98.5333C81.6306 98.4804 82.2651 98.4424 82.901 98.4192L82.8084 96.4222ZM80.8113 96.5419L80.6251 94.5504C79.9963 94.6029 79.366 94.6386 78.7341 94.6575L78.8136 96.655L78.893 98.6524C79.5961 98.6314 80.2975 98.5917 80.9974 98.5333L80.8113 96.5419ZM78.8136 96.655L78.7341 94.6575C78.0177 94.6789 77.3035 94.7265 76.5915 94.8004L76.8176 96.7881L77.0437 98.7758C77.6581 98.712 78.2745 98.6709 78.893 98.6524L78.8136 96.655ZM76.8176 96.7881L76.5915 94.8004C75.9141 94.8706 75.2374 94.9482 74.5613 95.0331L74.8301 97.0159L75.0988 98.9986C75.7465 98.9174 76.3948 98.8431 77.0437 98.7758L76.8176 96.7881ZM74.8301 97.0159L74.5613 95.0331C73.9179 95.1138 73.2737 95.1855 72.6288 95.2482L72.8419 97.2372L73.0551 99.2261C73.7372 99.1599 74.4185 99.084 75.0988 98.9986L74.8301 97.0159ZM72.8419 97.2372L72.6288 95.2482C71.9653 95.3126 71.3018 95.3771 70.6383 95.4415L70.8513 97.4305L71.0644 99.4195C71.7279 99.3551 72.3915 99.2906 73.0551 99.2261L72.8419 97.2372ZM70.8513 97.4305L70.6383 95.4415C70.0347 95.5001 69.4285 95.5315 68.8197 95.5356L68.8528 97.5339L68.8859 99.5322C69.6147 99.5273 70.3409 99.4897 71.0644 99.4195L70.8513 97.4305ZM68.8528 97.5339L68.8197 95.5356C68.1268 95.5403 67.4351 95.5574 66.7443 95.5869L66.8495 97.5835L66.9546 99.58C67.5973 99.5525 68.241 99.5366 68.8859 99.5322L68.8528 97.5339ZM66.8495 97.5835L66.7443 95.5869C66.0402 95.617 65.3378 95.6668 64.6371 95.7363L64.8543 97.7249L65.0714 99.7135C65.6976 99.6514 66.3253 99.6069 66.9546 99.58L66.8495 97.5835ZM64.8543 97.7249L64.6371 95.7363C64.0034 95.7992 63.3685 95.8478 62.7323 95.8823L62.8601 97.8777L62.9879 99.8731C63.6838 99.8355 64.3783 99.7823 65.0714 99.7135L64.8543 97.7249ZM62.8601 97.8777L62.7323 95.8823C62.0103 95.9213 61.2912 95.9906 60.5748 96.09L60.8693 98.0693L61.1638 100.049C61.7698 99.9647 62.3777 99.9061 62.9879 99.8731L62.8601 97.8777ZM60.8693 98.0693L60.5748 96.09C59.9209 96.1807 59.2666 96.2678 58.612 96.3514L58.885 98.3336L59.1579 100.316C59.8269 100.231 60.4955 100.141 61.1638 100.049L60.8693 98.0693ZM58.885 98.3336L58.612 96.3514C58.0088 96.4284 57.4033 96.4786 56.7954 96.5019L56.8919 98.4988L56.9884 100.496C57.7144 100.468 58.4376 100.408 59.1579 100.316L58.885 98.3336ZM56.8919 98.4988L56.7954 96.5019C56.07 96.5298 55.3475 96.5893 54.6278 96.6804L54.8987 98.6629L55.1696 100.645C55.7736 100.569 56.3798 100.519 56.9884 100.496L56.8919 98.4988ZM54.8987 98.6629L54.6278 96.6804C54.1037 96.7467 53.5735 96.7589 53.0351 96.7159L52.895 98.7079L52.7549 100.7C53.5644 100.765 54.37 100.747 55.1696 100.645L54.8987 98.6629ZM52.895 98.7079L53.0351 96.7159C52.265 96.6545 51.4976 96.6488 50.7338 96.6995L50.886 98.6935L51.0383 100.687C51.6051 100.65 52.177 100.654 52.7549 100.7L52.895 98.7079ZM50.886 98.6935L50.7338 96.6995C50.0058 96.7478 49.2811 96.8303 48.5598 96.9468L48.8983 98.9196L49.2368 100.892C49.8352 100.796 50.4356 100.727 51.0383 100.687L50.886 98.6935ZM48.8983 98.9196L48.5598 96.9468C47.9243 97.0495 47.2879 97.1402 46.6505 97.219L46.9156 99.2023L47.1807 101.186C47.8673 101.101 48.5527 101.003 49.2368 100.892L48.8983 98.9196ZM46.9156 99.2023L46.6505 97.219C46.0414 97.2943 45.4302 97.3452 44.8169 97.3715L44.9225 99.368L45.0282 101.365C45.7482 101.334 46.4658 101.274 47.1807 101.186L46.9156 99.2023ZM44.9225 99.368L44.8169 97.3715C44.1466 97.4004 43.4764 97.431 42.8064 97.4635L42.9229 99.4595L43.0395 101.456C43.7022 101.423 44.3651 101.393 45.0282 101.365L44.9225 99.368ZM42.9229 99.4595L42.8064 97.4635C42.0883 97.4983 41.3726 97.5609 40.6595 97.6512L40.9306 99.6337L41.2018 101.616C41.8123 101.539 42.4249 101.485 43.0395 101.456L42.9229 99.4595ZM40.9306 99.6337L40.6595 97.6512C40.0238 97.7318 39.3871 97.7997 38.7493 97.855L38.9417 99.8459L39.1341 101.837C39.8246 101.777 40.5138 101.703 41.2018 101.616L40.9306 99.6337ZM38.9417 99.8459L38.7493 97.855C38.1392 97.9078 37.5268 97.9359 36.9119 97.9392L36.9421 99.9375L36.9723 101.936C37.6952 101.932 38.4159 101.899 39.1341 101.837L38.9417 99.8459ZM36.9421 99.9375L36.9119 97.9392C36.186 97.943 35.4625 97.9778 34.7416 98.0435L34.9429 100.034L35.1442 102.024C35.7511 101.968 36.3604 101.939 36.9723 101.936L36.9421 99.9375ZM34.9429 100.034L34.7416 98.0435C34.0941 98.1025 33.446 98.1535 32.7971 98.1965L32.9491 100.19L33.101 102.184C33.7828 102.139 34.4639 102.086 35.1442 102.024L34.9429 100.034ZM32.9491 100.19L32.7971 98.1965C32.1665 98.2382 31.5343 98.2636 30.9005 98.2726L30.9485 100.271L30.9965 102.269C31.6995 102.259 32.401 102.231 33.101 102.184L32.9491 100.19ZM30.9485 100.271L30.9005 98.2726C30.1538 98.2832 29.4107 98.3374 28.6716 98.4352L28.9537 100.416L29.2357 102.397C29.8196 102.32 30.4064 102.277 30.9965 102.269L30.9485 100.271ZM28.9537 100.416L28.6716 98.4352C28.0269 98.5205 27.3814 98.5976 26.7352 98.6665L26.9669 100.654L27.1986 102.641C27.8784 102.568 28.5575 102.487 29.2357 102.397L28.9537 100.416ZM26.9669 100.654L26.7352 98.6665C26.0432 98.7402 25.3527 98.8291 24.6636 98.9332L24.9818 100.909L25.3 102.885C25.9317 102.79 26.5646 102.708 27.1986 102.641L26.9669 100.654ZM24.9818 100.909L24.6636 98.9332C24.1484 99.0109 23.6277 99.0321 23.0988 98.9958L22.9812 100.99L22.8637 102.983C23.6814 103.039 24.4944 103.007 25.3 102.885L24.9818 100.909ZM22.9812 100.99L23.0988 98.9958C22.2968 98.9409 21.4989 98.9634 20.707 99.0639L20.9786 101.046L21.2502 103.029C21.7818 102.961 22.319 102.946 22.8637 102.983L22.9812 100.99ZM20.9786 101.046L20.707 99.0639C20.0285 99.1501 19.3507 99.2448 18.6738 99.3482L18.9954 101.324L19.3169 103.299C19.9606 103.201 20.6051 103.111 21.2502 103.029L20.9786 101.046ZM18.9954 101.324L18.6738 99.3482C18.0847 99.4382 17.493 99.496 16.8987 99.5217L17.0049 101.518L17.1111 103.515C17.85 103.483 18.5854 103.411 19.3169 103.299L18.9954 101.324ZM17.0049 101.518L16.8987 99.5217C16.2181 99.5512 15.5382 99.5877 14.8589 99.6312L15.0067 101.625L15.1544 103.62C15.806 103.578 16.4582 103.543 17.1111 103.515L17.0049 101.518ZM15.0067 101.625L14.8589 99.6312C14.1454 99.677 13.4343 99.7484 12.7256 99.8455L13.0166 101.825L13.3077 103.805C13.9214 103.721 14.537 103.659 15.1544 103.62L15.0067 101.625ZM13.0166 101.825L12.7256 99.8455C12.0808 99.9338 11.4354 100.014 10.7893 100.086L11.0307 102.072L11.2721 104.058C11.9514 103.982 12.6299 103.898 13.3077 103.805L13.0166 101.825ZM11.0307 102.072L10.7893 100.086C10.145 100.158 9.49989 100.221 8.85402 100.275L9.04016 102.266L9.22631 104.258C9.9091 104.201 10.591 104.134 11.2721 104.058L11.0307 102.072ZM9.04016 102.266L8.85402 100.275C8.77183 100.282 8.90504 100.253 9.12142 100.365C9.23142 100.422 9.33311 100.501 9.41614 100.595C9.49698 100.686 9.54036 100.769 9.561 100.818L7.71813 101.58L5.87526 102.341C6.14319 102.975 6.61 103.548 7.3014 103.907C7.95845 104.248 8.64417 104.306 9.22631 104.258L9.04016 102.266ZM7.71813 101.58L9.561 100.818C9.4501 100.555 9.36209 100.199 9.33519 99.719L7.33667 99.8111L5.33816 99.9032C5.38582 100.754 5.55211 101.577 5.87526 102.341L7.71813 101.58ZM7.33667 99.8111L9.33519 99.719C9.29653 99.0287 9.24515 98.3394 9.18104 97.651L7.18801 97.8167L5.19498 97.9824C5.25453 98.6217 5.30225 99.262 5.33816 99.9032L7.33667 99.8111ZM7.18801 97.8167L9.18104 97.651C9.11078 96.8967 8.98933 96.1475 8.81712 95.4038L6.86714 95.8358L4.91716 96.2678C5.04912 96.8377 5.14158 97.409 5.19498 97.9824L7.18801 97.8167ZM6.86714 95.8358L8.81712 95.4038C8.69431 94.8735 8.62481 94.3415 8.60773 93.8061L6.60711 93.8502L4.60648 93.8942C4.63195 94.6928 4.7358 95.4846 4.91716 96.2678L6.86714 95.8358ZM6.60711 93.8502L8.60773 93.8061C8.58768 93.1773 8.58566 92.5469 8.6017 91.9148L6.60071 91.8446L4.59971 91.7745C4.58174 92.4824 4.58399 93.189 4.60648 93.8942L6.60711 93.8502ZM6.60071 91.8446L8.6017 91.9148C8.62045 91.1763 8.60111 90.44 8.54356 89.7061L6.54803 89.8427L4.55251 89.9793C4.5992 90.5747 4.61498 91.173 4.59971 91.7745L6.60071 91.8446ZM6.54803 89.8427L8.54356 89.7061C8.49062 89.0312 8.43241 88.3566 8.36892 87.6824L6.37608 87.8502L4.38325 88.0179C4.44478 88.6713 4.5012 89.3251 4.55251 89.9793L6.54803 89.8427ZM6.37608 87.8502L8.36892 87.6824C8.29943 86.9446 8.1889 86.2106 8.03753 85.4807L6.07762 85.8675L4.11771 86.2543C4.23927 86.8404 4.32771 87.4282 4.38325 88.0179L6.37608 87.8502ZM6.07762 85.8675L8.03753 85.4807C7.92399 84.9333 7.85787 84.3837 7.8387 83.8306L5.83826 83.8802L3.83782 83.9298C3.86488 84.7105 3.95833 85.4858 4.11771 86.2543L6.07762 85.8675ZM5.83826 83.8802L7.8387 83.8306C7.81372 83.1098 7.75956 82.3911 7.67624 81.6747L5.68799 81.886L3.69974 82.0973C3.77055 82.7061 3.81657 83.3169 3.83782 83.9298L5.83826 83.8802ZM5.68799 81.886L7.67624 81.6747C7.60064 81.0246 7.53126 80.3741 7.46808 79.7231L5.47579 79.8966L3.48349 80.07C3.54912 80.7463 3.62121 81.422 3.69974 82.0973L5.68799 81.886ZM5.47579 79.8966L7.46808 79.7231C7.41119 79.137 7.38843 78.5477 7.39993 77.9548L5.39866 77.8966L3.3974 77.8384C3.38292 78.5849 3.41157 79.3289 3.48349 80.07L5.47579 79.8966ZM5.39866 77.8966L7.39993 77.9548C7.41586 77.1336 7.33872 76.3185 7.16895 75.5124L5.21031 75.9053L3.25168 76.2982C3.35902 76.8078 3.40745 77.3202 3.3974 77.8384L5.39866 77.8966ZM5.21031 75.9053L7.16895 75.5124C7.05888 74.9899 7.00409 74.4648 7.00405 73.935L5.00242 73.9156L3.00078 73.8962C3.00083 74.7037 3.08464 75.5051 3.25168 76.2982L5.21031 75.9053ZM5.00242 73.9156L7.00405 73.935C7.004 73.1559 6.93959 72.3812 6.81085 71.612L4.83666 71.9225L2.86247 72.2331C2.95466 72.7839 3.00074 73.3379 3.00078 73.8962L5.00242 73.9156ZM4.83666 71.9225L6.81085 71.612C6.71979 71.0679 6.677 70.5204 6.68249 69.9681L4.68095 69.9287L2.67941 69.8893C2.67159 70.6754 2.73261 71.4571 2.86247 72.2331L4.83666 71.9225ZM4.68095 69.9287L6.68249 69.9681C6.69056 69.1561 6.61197 68.3501 6.44714 67.5525L4.48695 67.9379L2.52675 68.3233C2.63389 68.8417 2.68464 69.3629 2.67941 69.8893L4.68095 69.9287ZM4.48695 67.9379L6.44714 67.5525C6.32731 66.9726 6.24309 66.391 6.19422 65.8073L4.19955 65.9543L2.20487 66.1014C2.26723 66.8463 2.37461 67.587 2.52675 68.3233L4.48695 67.9379ZM4.19955 65.9543L6.19422 65.8073C6.13579 65.1093 6.0597 64.4128 5.96594 63.7177L3.98225 63.9653L1.99856 64.213C2.08331 64.8413 2.15208 65.4707 2.20487 66.1014L4.19955 65.9543ZM3.98225 63.9653L5.96594 63.7177C5.89061 63.1592 5.85891 62.5971 5.87102 62.0302L3.86984 61.9681L1.86865 61.906C1.85214 62.6787 1.89539 63.448 1.99856 64.213L3.98225 63.9653ZM3.86984 61.9681L5.87102 62.0302C5.88869 61.2032 5.80911 60.3826 5.63283 59.5716L3.67691 59.9772L1.72099 60.3827C1.83056 60.8868 1.8796 61.3934 1.86865 61.906L3.86984 61.9681ZM3.67691 59.9772L5.63283 59.5716C5.52654 59.0827 5.48447 58.5907 5.50634 58.0913L3.50661 57.9845L1.50689 57.8777C1.46997 58.7203 1.54143 59.5567 1.72099 60.3827L3.67691 59.9772ZM3.50661 57.9845L5.50634 58.0913C5.53826 57.3628 5.53847 56.6359 5.50685 55.911L3.50711 55.9784L1.50737 56.0459C1.53388 56.6537 1.53376 57.2643 1.50689 57.8777L3.50661 57.9845ZM3.50711 55.9784L5.50685 55.911C5.4728 55.1302 5.372 54.3551 5.20504 53.5871L3.24912 53.9926L1.2932 54.3982C1.4121 54.9451 1.48329 55.4939 1.50737 56.0459L3.50711 55.9784ZM3.24912 53.9926L5.20504 53.5871C5.08646 53.0416 5.01606 52.4941 4.99324 51.9435L2.99332 52.0066L0.993389 52.0697C1.0258 52.8521 1.12594 53.6287 1.2932 54.3982L3.24912 53.9926ZM2.99332 52.0066L4.99324 51.9435C4.96587 51.2829 4.9414 50.622 4.91982 49.9608L2.91925 50.0064L0.91867 50.0519C0.940626 50.7248 0.965533 51.3973 0.993389 52.0697L2.99332 52.0066ZM2.91925 50.0064L4.91982 49.9608C4.89356 49.156 4.78462 48.3586 4.59409 47.5706L2.64859 48.0216L0.703084 48.4725C0.829907 48.997 0.901402 49.5228 0.91867 50.0519L2.91925 50.0064ZM2.64859 48.0216L4.59409 47.5706C4.48793 47.1316 4.45618 46.6894 4.49943 46.2349L2.50675 46.0266L0.514066 45.8184C0.429092 46.7113 0.491901 47.599 0.703084 48.4725L2.64859 48.0216ZM2.50675 46.0266L4.49943 46.2349C4.5856 45.3294 4.51349 44.43 4.28329 43.5474L2.34655 44.0332L0.409809 44.519C0.521429 44.9469 0.556117 45.3765 0.514066 45.8184L2.50675 46.0266ZM2.34655 44.0332L4.28329 43.5474C4.14769 43.0275 4.06934 42.507 4.0467 41.9839L2.04693 42.0506L0.0471581 42.1173C0.0821876 42.927 0.203583 43.7283 0.409809 44.519L2.34655 44.0332ZM2.04693 42.0506L4.0467 41.9839C4.01774 41.3144 4.00437 40.8924 4.00324 40.6864L2.00163 40.6778L1.88523e-05 40.6693C0.00162441 40.9608 0.018458 41.454 0.0471581 42.1173L2.04693 42.0506ZM2.00163 40.6778L4.00324 40.6864C4.0056 41.1164 3.84762 41.5206 3.58619 41.824C3.35785 42.0891 3.11797 42.2013 3.02397 42.2397C2.86044 42.3066 2.82669 42.2761 3.08986 42.2669L3.00032 40.2697L2.91079 38.2726C2.50679 38.2867 1.97301 38.3359 1.47657 38.5387C0.955833 38.7515 -0.00707499 39.3812 1.88523e-05 40.6693L2.00163 40.6778Z" fill="#6E3997"/>
<path d="M2.92493 41.6099L65.169 67.3469L119.837 32.3759" stroke="#6E3997" stroke-width="4"/>
<path d="M56.4958 62.3354C58.9813 58.8601 63.2092 64.6913 63.2092 64.6913C63.2092 64.6913 67.7261 58.2525 70.1659 62.0488C73.371 67.0359 63.5107 72.7796 63.5107 72.7796C63.5107 72.7796 52.7676 67.548 56.4958 62.3354Z" fill="#6E3997"/>
</svg>
