<svg width="150" height="88" viewBox="0 0 150 88" fill="none" xmlns="http://www.w3.org/2000/svg">
<path d="M8.11283 12.1394L7.85421 14.1217L8.11283 12.1394ZM16.0803 12.8559L15.6827 14.8137L16.0803 12.8559ZM41.9639 15.3093L42.0317 17.3106L41.9639 15.3093ZM53.8978 16.5834L53.8085 18.5822L53.8978 16.5834ZM61.8595 17.3672L61.4405 19.3203L61.8595 17.3672ZM85.7483 19.6745L86.1518 17.7179L85.7483 19.6745ZM101.674 21.2125L101.725 23.214L101.674 21.2125ZM113.622 22.3311L113.146 24.2706L113.622 22.3311ZM119.603 22.7995L119.864 20.8175L119.603 22.7995ZM124.477 26.1704L126.424 26.6393L124.477 26.1704ZM124.257 28.1584L122.259 28.1533L124.257 28.1584ZM124.082 30.1507L126.048 30.5323L124.082 30.1507ZM123.417 38.1233L125.414 38.2008L123.417 38.1233ZM122.332 50.0738L120.349 49.8063L122.332 50.0738ZM121.697 60.0585L119.698 60.0151L121.697 60.0585ZM121.091 64.0183L123.083 64.1919L121.091 64.0183ZM120.922 68.0205L118.974 67.5534L120.922 68.0205ZM120.207 75.9883L122.205 76.002L120.207 75.9883ZM116.773 85.1314L116.585 87.1224L116.773 85.1314ZM114.791 84.8449L115.134 82.8764L114.791 84.8449ZM112.799 84.6685L112.83 86.6702L112.799 84.6685ZM108.814 84.3149L109.043 82.3285L108.814 84.3149ZM104.842 83.823L105.197 81.8566L104.842 83.823ZM94.8804 82.9571L94.898 80.9557L94.8804 82.9571ZM88.9112 82.3455L88.6687 84.33L88.9112 82.3455ZM65.0072 80.2139L65.1427 78.2182L65.0072 80.2139ZM59.0501 79.4625L59.1816 77.4664L59.0501 79.4625ZM55.0659 79.1097L55.0122 81.1102L55.0659 79.1097ZM49.0829 78.6575L49.0054 80.6569L49.0829 78.6575ZM45.1259 77.9908L44.9296 79.9809L45.1259 77.9908ZM43.1291 77.8683L43.1383 75.8667L43.1291 77.8683ZM41.1274 77.8024L41.2107 75.8032L41.1274 77.8024ZM39.1358 77.6196L39.3785 75.635L39.1358 77.6196ZM37.1507 77.3624L37.3825 75.3765L37.1507 77.3624ZM33.1629 77.0515L33.0067 79.0456L33.1629 77.0515ZM29.1923 76.542L29.0449 78.5368L29.1923 76.542ZM27.2015 76.3503L27.3981 74.3602L27.2015 76.3503ZM25.2173 76.082L25.517 74.1059L25.2173 76.082ZM23.2275 75.8789L23.2938 73.8789L23.2275 75.8789ZM21.2298 75.7676L21.3466 73.7704L21.2298 75.7676ZM15.2642 75.1146L15.341 73.1151L15.2642 75.1146ZM11.2689 74.8892L11.0268 76.8738L11.2689 74.8892ZM5.28937 74.3972L5.18226 76.395L5.28937 74.3972ZM3.29536 74.2426L3.13287 76.2361L3.29536 74.2426ZM2.27195 67.5327L0.27658 67.6196L2.27195 67.5327ZM5.88413 27.6974L3.90306 27.4166L5.88413 27.6974ZM6.86468 13.7276L4.8837 13.4461L6.86468 13.7276ZM8.11283 12.1394L7.85421 14.1217C8.52703 14.2162 9.20039 14.3048 9.87428 14.3873L10.0976 12.4003L10.3209 10.4133C9.67062 10.3337 9.0208 10.2483 8.37146 10.157L8.11283 12.1394ZM10.0976 12.4003L9.87428 14.3873C10.6416 14.4812 11.4134 14.5141 12.1886 14.4863L12.0976 12.4858L12.0066 10.4852C11.4394 10.5056 10.8778 10.4815 10.3209 10.4133L10.0976 12.4003ZM12.0976 12.4858L12.1886 14.4863C12.7715 14.4654 13.3495 14.4833 13.9232 14.5399L14.0996 12.5477L14.2761 10.5555C13.5229 10.4813 12.7662 10.458 12.0066 10.4852L12.0976 12.4858ZM14.0996 12.5477L13.9232 14.5399C14.5119 14.5979 15.0983 14.6891 15.6827 14.8137L16.0803 12.8559L16.478 10.8981C15.7484 10.7425 15.0143 10.6283 14.2761 10.5555L14.0996 12.5477ZM16.0803 12.8559L15.6827 14.8137C16.3949 14.9655 17.1104 15.0867 17.8289 15.177L18.0587 13.1908L18.2884 11.2046C17.6832 11.1285 17.0798 11.0264 16.478 10.8981L16.0803 12.8559ZM18.0587 13.1908L17.8289 15.177C18.5221 15.2641 19.2168 15.3349 19.9128 15.3891L20.0485 13.3934L20.1842 11.3976C19.551 11.3482 18.9191 11.2839 18.2884 11.2046L18.0587 13.1908ZM20.0485 13.3934L19.9128 15.3891C20.5578 15.4394 21.202 15.4992 21.8454 15.5685L22.0399 13.5782L22.2344 11.5879C21.5519 11.5144 20.8685 11.451 20.1842 11.3976L20.0485 13.3934ZM22.0399 13.5782L21.8454 15.5685C22.5077 15.6399 23.17 15.7116 23.8323 15.7836L24.0286 13.7935L24.225 11.8034C23.5615 11.7313 22.898 11.6594 22.2344 11.5879L22.0399 13.5782ZM24.0286 13.7935L23.8323 15.7836C24.5922 15.8662 25.3561 15.8931 26.1231 15.8647L26.0299 13.8643L25.9367 11.8639C25.3611 11.8852 24.7908 11.8649 24.225 11.8034L24.0286 13.7935ZM26.0299 13.8643L26.1231 15.8647C26.7079 15.8431 27.2878 15.8597 27.8636 15.9142L28.0324 13.9213L28.2012 11.9284C27.4496 11.8572 26.6946 11.8358 25.9367 11.8639L26.0299 13.8643ZM28.0324 13.9213L27.8636 15.9142C28.4626 15.9709 29.0594 16.0568 29.6542 16.172L30.015 14.2068L30.3758 12.2415C29.6545 12.1018 28.9295 11.9974 28.2012 11.9284L28.0324 13.9213ZM30.015 14.2068L29.6542 16.172C30.4408 16.3244 31.2349 16.3988 32.0347 16.3952L32.0062 14.3934L31.9778 12.3916C31.4388 12.3941 30.9055 12.3441 30.3758 12.2415L30.015 14.2068ZM32.0062 14.3934L32.0347 16.3952C32.617 16.3926 33.195 16.428 33.7695 16.5014L34.0031 14.5157L34.2366 12.5299C33.4875 12.4343 32.7343 12.3882 31.9778 12.3916L32.0062 14.3934ZM34.0031 14.5157L33.7695 16.5014C34.3855 16.58 34.9999 16.6801 35.6129 16.8016L35.9825 14.8381L36.3521 12.8746C35.6494 12.7352 34.9442 12.6203 34.2366 12.5299L34.0031 14.5157ZM35.9825 14.8381L35.6129 16.8016C36.4086 16.9595 37.2127 17.0326 38.0226 17.0208L37.9742 15.0192L37.9258 13.0176C37.3958 13.0253 36.872 12.9777 36.3521 12.8746L35.9825 14.8381ZM37.9742 15.0192L38.0226 17.0208C38.5736 17.0128 39.119 17.0539 39.6601 17.1439L39.9686 15.1692L40.2771 13.1945C39.499 13.0651 38.7147 13.0062 37.9258 13.0176L37.9742 15.0192ZM39.9686 15.1692L39.6601 17.1439C40.4448 17.2744 41.2359 17.3299 42.0317 17.3106L41.9639 15.3093L41.896 13.3081C41.3507 13.3214 40.8117 13.2834 40.2771 13.1945L39.9686 15.1692ZM41.9639 15.3093L42.0317 17.3106C42.5035 17.2991 42.9684 17.3568 43.4328 17.486L43.9497 15.5574L44.4667 13.6289C43.6243 13.3947 42.7653 13.287 41.896 13.3081L41.9639 15.3093ZM43.9497 15.5574L43.4328 17.486C44.1969 17.6984 44.9701 17.8432 45.7514 17.9191L45.9251 15.9267L46.0989 13.9343C45.5531 13.8812 45.0094 13.7798 44.4667 13.6289L43.9497 15.5574ZM45.9251 15.9267L45.7514 17.9191C46.5299 17.9948 47.3123 18.0031 48.0974 17.9449L47.9306 15.9486L47.7639 13.9522C47.2021 13.9938 46.6475 13.9876 46.0989 13.9343L45.9251 15.9267ZM47.9306 15.9486L48.0974 17.9449C48.6686 17.9026 49.2333 17.9049 49.7923 17.9511L49.9374 15.9561L50.0825 13.9611C49.3128 13.8974 48.5396 13.8947 47.7639 13.9522L47.9306 15.9486ZM49.9374 15.9561L49.7923 17.9511C50.3476 17.997 50.9003 18.0884 51.4512 18.2259L51.9164 16.2837L52.3816 14.3415C51.6226 14.1521 50.8559 14.0251 50.0825 13.9611L49.9374 15.9561ZM51.9164 16.2837L51.4512 18.2259C52.2283 18.4198 53.0146 18.5389 53.8085 18.5822L53.8978 16.5834L53.9871 14.5846C53.4491 14.5552 52.9145 14.4745 52.3816 14.3415L51.9164 16.2837ZM53.8978 16.5834L53.8085 18.5822C54.4733 18.6185 55.1381 18.6554 55.8028 18.6929L55.8956 16.6942L55.9884 14.6956C55.3214 14.658 54.6543 14.621 53.9871 14.5846L53.8978 16.5834ZM55.8956 16.6942L55.8028 18.6929C56.4705 18.7305 57.1383 18.7672 57.8062 18.803L57.8935 16.804L57.9808 14.8051C57.3166 14.7695 56.6525 14.733 55.9884 14.6956L55.8956 16.6942ZM57.8935 16.804L57.8062 18.803C58.4117 18.8354 59.0147 18.8953 59.6154 18.9827L59.8838 17.0018L60.1521 15.0209C59.4313 14.9159 58.7074 14.844 57.9808 14.8051L57.8935 16.804ZM59.8838 17.0018L59.6154 18.9827C60.2253 19.0715 60.8337 19.184 61.4405 19.3203L61.8595 17.3672L62.2784 15.414C61.5726 15.2555 60.8638 15.1244 60.1521 15.0209L59.8838 17.0018ZM61.8595 17.3672L61.4405 19.3203C62.2128 19.4937 62.9931 19.5973 63.7798 19.6303L63.8441 17.6303L63.9083 15.6302C63.3617 15.6073 62.8188 15.5354 62.2784 15.414L61.8595 17.3672ZM63.8441 17.6303L63.7798 19.6303C64.4925 19.6603 65.207 19.6656 65.9231 19.6464L65.8502 17.6453L65.7772 15.6442C65.152 15.661 64.529 15.6563 63.9083 15.6302L63.8441 17.6303ZM65.8502 17.6453L65.9231 19.6464C66.4862 19.6313 67.0437 19.6617 67.5967 19.7374L67.8482 17.754L68.0996 15.7707C67.33 15.6654 66.5555 15.6233 65.7772 15.6442L65.8502 17.6453ZM67.8482 17.754L67.5967 19.7374C68.2331 19.8245 68.8685 19.9236 69.5029 20.0349L69.8288 18.0631L70.1546 16.0914C69.4708 15.9715 68.7858 15.8646 68.0996 15.7707L67.8482 17.754ZM69.8288 18.0631L69.5029 20.0349C70.2088 20.1586 70.9171 20.257 71.6279 20.3299L71.8123 18.3386L71.9967 16.3472C71.3809 16.284 70.7669 16.1988 70.1546 16.0914L69.8288 18.0631ZM71.8123 18.3386L71.6279 20.3299C72.3604 20.4051 73.0958 20.442 73.8339 20.4407L73.811 18.4389L73.788 16.4371C73.1877 16.4382 72.5907 16.4082 71.9967 16.3472L71.8123 18.3386ZM73.811 18.4389L73.8339 20.4407C74.3859 20.4397 74.9326 20.4872 75.4755 20.5829L75.8034 18.6116L76.1313 16.6402C75.3561 16.5034 74.5746 16.4357 73.788 16.4371L73.811 18.4389ZM75.8034 18.6116L75.4755 20.5829C76.2315 20.7163 76.9927 20.7934 77.7586 20.8142L77.7933 18.8132L77.828 16.8121C77.2588 16.7966 76.6935 16.7394 76.1313 16.6402L75.8034 18.6116ZM77.7933 18.8132L77.7586 20.8142C78.335 20.8299 78.9076 20.8848 79.4771 20.9791L79.7842 19.0042L80.0913 17.0293C79.3414 16.9051 78.5868 16.8327 77.828 16.8121L77.7933 18.8132ZM79.7842 19.0042L79.4771 20.9791C80.2487 21.1069 81.0263 21.1686 81.8084 21.1642L81.7779 19.1625L81.7473 17.1607C81.1905 17.1638 80.6389 17.1199 80.0913 17.0293L79.7842 19.0042ZM81.7779 19.1625L81.8084 21.1642C82.373 21.1611 82.9327 21.2023 83.4884 21.2877L83.7725 19.3091L84.0567 17.3305C83.2918 17.213 82.5217 17.1564 81.7473 17.1607L81.7779 19.1625ZM83.7725 19.3091L83.4884 21.2877C84.1086 21.383 84.7273 21.4974 85.3448 21.631L85.7483 19.6745L86.1518 17.7179C85.4556 17.5673 84.7572 17.4382 84.0567 17.3305L83.7725 19.3091ZM85.7483 19.6745L85.3448 21.631C86.158 21.8069 86.9813 21.8841 87.8112 21.8623L87.7395 19.8612L87.6677 17.8601C87.1564 17.8735 86.6522 17.8262 86.1518 17.7179L85.7483 19.6745ZM87.7395 19.8612L87.8112 21.8623C88.3676 21.8477 88.9181 21.8809 89.464 21.9615L89.7365 19.9811L90.009 18.0008C89.2336 17.8863 88.4527 17.8395 87.6677 17.8601L87.7395 19.8612ZM89.7365 19.9811L89.464 21.9615C90.1078 22.0566 90.751 22.1599 91.3935 22.2716L91.7163 20.2993L92.0391 18.327C91.3632 18.2096 90.6865 18.1008 90.009 18.0008L89.7365 19.9811ZM91.7163 20.2993L91.3935 22.2716C92.1947 22.4108 93.0032 22.4629 93.8166 22.4283L93.7125 20.4283L93.6085 18.4283C93.0786 18.4508 92.5563 18.4169 92.0391 18.327L91.7163 20.2993ZM93.7125 20.4283L93.8166 22.4283C94.3602 22.4053 94.8969 22.4345 95.4283 22.5157L95.7105 20.5368L95.9927 18.5579C95.2034 18.4374 94.408 18.3944 93.6085 18.4283L93.7125 20.4283ZM95.7105 20.5368L95.4283 22.5157C96.1851 22.6312 96.9466 22.6912 97.7122 22.6956L97.7043 20.6939L97.6964 18.6921C97.1244 18.6888 96.5568 18.644 95.9927 18.5579L95.7105 20.5368ZM97.7043 20.6939L97.7122 22.6956C98.2075 22.6985 98.6978 22.7649 99.187 22.8967L99.6883 20.9639L100.19 19.0311C99.3711 18.8106 98.5387 18.697 97.6964 18.6921L97.7043 20.6939ZM99.6883 20.9639L99.187 22.8967C100.02 23.121 100.867 23.2274 101.725 23.214L101.674 21.2125L101.624 19.2109C101.141 19.2184 100.665 19.1591 100.19 19.0311L99.6883 20.9639ZM101.674 21.2125L101.725 23.214C102.3 23.2051 102.87 23.2372 103.436 23.3101L103.672 21.3247L103.908 19.3393C103.15 19.2417 102.389 19.199 101.624 19.2109L101.674 21.2125ZM103.672 21.3247L103.436 23.3101C104.167 23.4043 104.902 23.4601 105.639 23.4773L105.666 21.4761L105.693 19.4748C105.095 19.4608 104.5 19.4156 103.908 19.3393L103.672 21.3247ZM105.666 21.4761L105.639 23.4773C106.205 23.4906 106.766 23.5469 107.324 23.6466L107.656 21.6759L107.988 19.7053C107.229 19.5697 106.463 19.4928 105.693 19.4748L105.666 21.4761ZM107.656 21.6759L107.324 23.6466C108.036 23.7736 108.75 23.8719 109.467 23.9414L109.64 21.9489L109.813 19.9564C109.203 19.8973 108.595 19.8136 107.988 19.7053L107.656 21.6759ZM109.64 21.9489L109.467 23.9414C110.183 24.0108 110.901 24.0519 111.622 24.0645L111.637 22.063L111.653 20.0615C111.037 20.0507 110.424 20.0157 109.813 19.9564L109.64 21.9489ZM111.637 22.063L111.622 24.0645C112.134 24.0734 112.641 24.1417 113.146 24.2706L113.622 22.3311L114.097 20.3915C113.293 20.1864 112.477 20.0759 111.653 20.0615L111.637 22.063ZM113.622 22.3311L113.146 24.2706C113.93 24.4708 114.725 24.5905 115.528 24.6288L115.603 22.6293L115.679 20.6297C115.149 20.6044 114.622 20.5254 114.097 20.3915L113.622 22.3311ZM115.603 22.6293L115.528 24.6288C116.232 24.6624 116.937 24.676 117.644 24.6697L117.607 22.668L117.57 20.6663C116.938 20.6719 116.307 20.6597 115.679 20.6297L115.603 22.6293ZM117.607 22.668L117.644 24.6697C118.215 24.6647 118.781 24.702 119.342 24.7816L119.603 22.7995L119.864 20.8175C119.104 20.7098 118.339 20.6595 117.57 20.6663L117.607 22.668ZM119.603 22.7995L119.342 24.7816C120.048 24.8815 120.756 24.9575 121.466 25.0095L121.592 23.013L121.719 21.0166C121.099 20.9711 120.48 20.9048 119.864 20.8175L119.603 22.7995ZM121.592 23.013L121.466 25.0095C122.032 25.051 122.595 25.1344 123.156 25.2601L123.574 23.3068L123.992 21.3535C123.24 21.185 122.482 21.0725 121.719 21.0166L121.592 23.013ZM123.574 23.3068L123.156 25.2601C123.242 25.2794 123.105 25.2681 122.93 25.0939C122.84 25.0048 122.765 24.8961 122.713 24.7781C122.662 24.6631 122.645 24.5679 122.64 24.5124L124.631 24.3576L126.622 24.2028C126.561 23.5125 126.288 22.8197 125.731 22.2658C125.203 21.7413 124.562 21.4813 123.992 21.3535L123.574 23.3068ZM124.631 24.3576L122.64 24.5124C122.667 24.8174 122.643 25.2082 122.529 25.7014L124.477 26.1704L126.424 26.6393C126.612 25.8223 126.691 25.0046 126.622 24.2028L124.631 24.3576ZM124.477 26.1704L122.529 25.7014C122.343 26.5076 122.253 27.3259 122.259 28.1533L124.257 28.1584L126.255 28.1635C126.251 27.6504 126.307 27.1434 126.424 26.6393L124.477 26.1704ZM124.257 28.1584L122.259 28.1533C122.263 28.6971 122.216 29.2352 122.117 29.7692L124.082 30.1507L126.048 30.5323C126.192 29.7502 126.261 28.9601 126.255 28.1635L124.257 28.1584ZM124.082 30.1507L122.117 29.7692C121.963 30.6078 121.925 31.4572 122.002 32.3122L123.992 32.1513L125.982 31.9903C125.938 31.494 125.96 31.0097 126.048 30.5323L124.082 30.1507ZM123.992 32.1513L122.002 32.3122C122.052 32.8669 122.051 33.4131 122 33.9522L123.99 34.1602L125.979 34.3682C126.053 33.5801 126.054 32.7869 125.982 31.9903L123.992 32.1513ZM123.99 34.1602L122 33.9522C121.946 34.5285 121.853 35.1021 121.723 35.6735L123.671 36.1386L125.619 36.6038C125.788 35.8647 125.908 35.1193 125.979 34.3682L123.99 34.1602ZM123.671 36.1386L121.723 35.6735C121.544 36.4548 121.443 37.2462 121.419 38.0458L123.417 38.1233L125.414 38.2008C125.43 37.6646 125.498 37.1329 125.619 36.6038L123.671 36.1386ZM123.417 38.1233L121.419 38.0458C121.4 38.726 121.386 39.4067 121.379 40.0881L123.377 40.1287L125.375 40.1693C125.382 39.5126 125.395 38.8564 125.414 38.2008L123.417 38.1233ZM123.377 40.1287L121.379 40.0881C121.373 40.6819 121.333 41.272 121.26 41.8588L123.243 42.125L125.226 42.3912C125.318 41.6544 125.367 40.9137 125.375 40.1693L123.377 40.1287ZM123.243 42.125L121.26 41.8588C121.182 42.4945 121.09 43.129 120.986 43.7623L122.957 44.1066L124.929 44.4508C125.042 43.7657 125.141 43.0791 125.226 42.3912L123.243 42.125ZM122.957 44.1066L120.986 43.7623C120.862 44.5157 120.792 45.2747 120.777 46.0388L122.775 46.0981L124.773 46.1575C124.784 45.5847 124.836 45.016 124.929 44.4508L122.957 44.1066ZM122.775 46.0981L120.777 46.0388C120.765 46.6205 120.716 47.1984 120.63 47.7728L122.605 48.091L124.581 48.4092C124.694 47.6634 124.758 46.9127 124.773 46.1575L122.775 46.0981ZM122.605 48.091L120.63 47.7728C120.527 48.4498 120.434 49.1276 120.349 49.8063L122.332 50.0738L124.315 50.3412C124.395 49.6965 124.484 49.0524 124.581 48.4092L122.605 48.091ZM122.332 50.0738L120.349 49.8063C120.251 50.5916 120.227 51.383 120.275 52.1787L122.269 52.0769L124.264 51.9752C124.23 51.4236 124.248 50.8794 124.315 50.3412L122.332 50.0738ZM122.269 52.0769L120.275 52.1787C120.307 52.705 120.28 53.2225 120.197 53.7341L122.169 54.0765L124.141 54.4188C124.273 53.6117 124.313 52.7963 124.264 51.9752L122.269 52.0769ZM122.169 54.0765L120.197 53.7341C120.075 54.4774 120.001 55.2257 119.976 55.9786L121.973 56.0667L123.97 56.1549C123.99 55.5727 124.047 54.9942 124.141 54.4188L122.169 54.0765ZM121.973 56.0667L119.976 55.9786C119.955 56.5922 119.909 57.2032 119.838 57.8119L121.823 58.0615L123.808 58.3112C123.891 57.5952 123.945 56.8763 123.97 56.1549L121.973 56.0667ZM121.823 58.0615L119.838 57.8119C119.754 58.5428 119.707 59.2774 119.698 60.0151L121.697 60.0585L123.695 60.1018C123.702 59.5017 123.74 58.9049 123.808 58.3112L121.823 58.0615ZM121.697 60.0585L119.698 60.0151C119.692 60.5179 119.625 61.0157 119.494 61.5122L121.426 62.0416L123.358 62.5709C123.572 61.7613 123.685 60.9371 123.695 60.1018L121.697 60.0585ZM121.426 62.0416L119.494 61.5122C119.291 62.28 119.159 63.058 119.098 63.8448L121.091 64.0183L123.083 64.1919C123.125 63.6491 123.216 63.1093 123.358 62.5709L121.426 62.0416ZM121.091 64.0183L119.098 63.8448C119.04 64.6061 119.036 65.3713 119.087 66.1398L121.081 66.0266L123.074 65.9135C123.036 65.3338 123.039 64.7602 123.083 64.1919L121.091 64.0183ZM121.081 66.0266L119.087 66.1398C119.119 66.6193 119.081 67.0885 118.974 67.5534L120.922 68.0205L122.869 68.4876C123.064 67.6422 123.132 66.782 123.074 65.9135L121.081 66.0266ZM120.922 68.0205L118.974 67.5534C118.799 68.3163 118.688 69.0876 118.643 69.8662L120.638 70.0023L122.633 70.1384C122.665 69.585 122.744 69.0351 122.869 68.4876L120.922 68.0205ZM120.638 70.0023L118.643 69.8662C118.601 70.5943 118.592 71.3251 118.617 72.0585L120.614 72.0092L122.611 71.96C122.59 71.3494 122.597 70.7422 122.633 70.1384L120.638 70.0023ZM120.614 72.0092L118.617 72.0585C118.634 72.5588 118.588 73.0513 118.477 73.5402L120.427 74.0003L122.376 74.4604C122.561 73.6385 122.64 72.8036 122.611 71.96L120.614 72.0092ZM120.427 74.0003L118.477 73.5402C118.296 74.3412 118.207 75.1536 118.209 75.9747L120.207 75.9883L122.205 76.002C122.204 75.4832 122.26 74.9702 122.376 74.4604L120.427 74.0003ZM120.207 75.9883L118.209 75.9747C118.211 76.5953 118.19 77.2134 118.146 77.829L120.139 77.991L122.132 78.153C122.183 77.4383 122.208 76.7212 122.205 76.002L120.207 75.9883ZM120.139 77.991L118.146 77.829C118.105 78.4034 118.025 78.9747 117.906 79.5435L119.861 79.9733L121.817 80.4032C121.973 79.6591 122.078 78.9088 122.132 78.153L120.139 77.991ZM119.861 79.9733L117.906 79.5435C117.748 80.2945 117.646 81.0521 117.6 81.8158L119.594 81.9567L121.589 82.0977C121.623 81.5297 121.699 80.9651 121.817 80.4032L119.861 79.9733ZM119.594 81.9567L117.6 81.8158C117.562 82.4344 117.503 83.0509 117.422 83.6653L119.402 83.9474L121.383 84.2295C121.477 83.5214 121.546 82.8108 121.589 82.0977L119.594 81.9567ZM119.402 83.9474L117.422 83.6653C117.407 83.7746 117.399 83.6645 117.533 83.4917C117.603 83.4008 117.698 83.3124 117.815 83.242C117.931 83.1726 118.038 83.1385 118.116 83.1231L118.52 85.0874L118.924 87.0517C119.612 86.9161 120.241 86.5563 120.699 85.9651C121.127 85.4122 121.31 84.7815 121.383 84.2295L119.402 83.9474ZM118.52 85.0874L118.116 83.1231C117.858 83.1739 117.483 83.195 116.962 83.1405L116.773 85.1314L116.585 87.1224C117.39 87.2066 118.179 87.1984 118.924 87.0517L118.52 85.0874ZM116.773 85.1314L116.962 83.1405C116.351 83.0766 115.742 82.9886 115.134 82.8764L114.791 84.8449L114.447 86.8135C115.157 86.9446 115.87 87.0476 116.585 87.1224L116.773 85.1314ZM114.791 84.8449L115.134 82.8764C114.352 82.7319 113.562 82.662 112.767 82.6667L112.799 84.6685L112.83 86.6702C113.374 86.667 113.912 86.7147 114.447 86.8135L114.791 84.8449ZM112.799 84.6685L112.767 82.6667C112.18 82.6702 111.596 82.6375 111.016 82.5688L110.801 84.5568L110.585 86.5447C111.33 86.6329 112.078 86.6747 112.83 86.6702L112.799 84.6685ZM110.801 84.5568L111.016 82.5688C110.358 82.4909 109.701 82.4108 109.043 82.3285L108.814 84.3149L108.586 86.3012C109.252 86.3846 109.919 86.4657 110.585 86.5447L110.801 84.5568ZM108.814 84.3149L109.043 82.3285C108.358 82.2429 107.672 82.1691 106.985 82.1072L106.826 84.1009L106.666 86.0946C107.307 86.1524 107.947 86.2213 108.586 86.3012L108.814 84.3149ZM106.826 84.1009L106.985 82.1072C106.387 82.0532 105.791 81.9697 105.197 81.8566L104.842 83.823L104.488 85.7895C105.21 85.9271 105.936 86.0288 106.666 86.0946L106.826 84.1009ZM104.842 83.823L105.197 81.8566C104.415 81.7076 103.625 81.6333 102.83 81.6339L102.851 83.6357L102.872 85.6375C103.415 85.6371 103.953 85.6878 104.488 85.7895L104.842 83.823ZM102.851 83.6357L102.83 81.6339C102.209 81.6344 101.591 81.6122 100.975 81.5675L100.85 83.5641L100.725 85.5607C101.439 85.6124 102.154 85.638 102.872 85.6375L102.851 83.6357ZM100.85 83.5641L100.975 81.5675C100.405 81.5262 99.8383 81.4443 99.2737 81.3213L98.8674 83.2773L98.4612 85.2332C99.2101 85.3963 99.9649 85.5056 100.725 85.5607L100.85 83.5641ZM98.8674 83.2773L99.2737 81.3213C98.5059 81.1541 97.7308 81.0533 96.9496 81.0193L96.8824 83.0192L96.8152 85.0192C97.3672 85.0432 97.9155 85.1144 98.4612 85.2332L98.8674 83.2773ZM96.8824 83.0192L96.9496 81.0193C96.2664 80.9896 95.5826 80.9684 94.898 80.9557L94.8804 82.9571L94.8628 84.9586C95.5143 84.9707 96.1651 84.9909 96.8152 85.0192L96.8824 83.0192ZM94.8804 82.9571L94.898 80.9557C94.2639 80.9439 93.6314 80.9159 93.0003 80.8718L92.8806 82.8687L92.7609 84.8657C93.4601 84.9145 94.1607 84.9455 94.8628 84.9586L94.8804 82.9571ZM92.8806 82.8687L93.0003 80.8718C92.3963 80.8296 91.7946 80.7597 91.195 80.6621L90.8932 82.6379L90.5915 84.6137C91.3116 84.7309 92.0348 84.8149 92.7609 84.8657L92.8806 82.8687ZM90.8932 82.6379L91.195 80.6621C90.5155 80.5514 89.8351 80.4511 89.1537 80.361L88.9112 82.3455L88.6687 84.33C89.3104 84.4149 89.9513 84.5095 90.5915 84.6137L90.8932 82.6379ZM88.9112 82.3455L89.1537 80.361C88.504 80.275 87.8547 80.1832 87.206 80.0856L86.9281 82.0652L86.6502 84.0447C87.3225 84.1459 87.9953 84.241 88.6687 84.33L88.9112 82.3455ZM86.9281 82.0652L87.206 80.0856C86.4483 79.9716 85.6858 79.9137 84.9193 79.9118L84.9338 81.9136L84.9484 83.9154C85.5198 83.9168 86.0869 83.96 86.6502 84.0447L86.9281 82.0652ZM84.9338 81.9136L84.9193 79.9118C84.3054 79.9103 83.6942 79.8834 83.0855 79.8311L82.9341 81.8255L82.7827 83.82C83.5023 83.8818 84.2242 83.9136 84.9484 83.9154L84.9338 81.9136ZM82.9341 81.8255L83.0855 79.8311C82.4909 79.78 81.8987 79.6978 81.3087 79.5844L80.9505 81.5501L80.5924 83.5159C81.3186 83.6556 82.0488 83.757 82.7827 83.82L82.9341 81.8255ZM80.9505 81.5501L81.3087 79.5844C80.501 79.429 79.6848 79.3667 78.863 79.3972L78.9564 81.3977L79.0497 83.3981C79.5705 83.3788 80.0838 83.4181 80.5924 83.5159L80.9505 81.5501ZM78.9564 81.3977L78.863 79.3972C78.3072 79.4178 77.7577 79.3901 77.2132 79.3144L76.9577 81.2972L76.7021 83.28C77.4799 83.3881 78.2629 83.4273 79.0497 83.3981L78.9564 81.3977ZM76.9577 81.2972L77.2132 79.3144C76.5211 79.2183 75.8276 79.1384 75.1326 79.0748L74.9701 81.0683L74.8076 83.0618C75.4404 83.1197 76.0719 83.1924 76.7021 83.28L76.9577 81.2972ZM74.9701 81.0683L75.1326 79.0748C74.5042 79.0173 73.8773 78.943 73.2518 78.8519L72.9831 80.8328L72.7145 82.8137C73.4105 82.9151 74.1082 82.9978 74.8076 83.0618L74.9701 81.0683ZM72.9831 80.8328L73.2518 78.8519C72.5425 78.7486 71.8308 78.6714 71.1169 78.6205L70.9944 80.6173L70.8719 82.614C71.488 82.658 72.1022 82.7245 72.7145 82.8137L72.9831 80.8328ZM70.9944 80.6173L71.1169 78.6205C70.4376 78.5721 69.7576 78.531 69.0771 78.4971L68.9975 80.4965L68.9178 82.4958C69.5698 82.5282 70.2212 82.5676 70.8719 82.614L70.9944 80.6173ZM68.9975 80.4965L69.0771 78.4971C68.4294 78.4649 67.7826 78.4237 67.1366 78.3734L67.0011 80.3692L66.8656 82.365C67.5489 82.4181 68.233 82.4618 68.9178 82.4958L68.9975 80.4965ZM67.0011 80.3692L67.1366 78.3734C66.472 78.3217 65.8073 78.2699 65.1427 78.2182L65.0072 80.2139L64.8716 82.2097C65.5363 82.2615 66.201 82.3132 66.8656 82.365L67.0011 80.3692ZM65.0072 80.2139L65.1427 78.2182C64.5381 78.1711 63.9357 78.0967 63.3354 77.995L63.021 79.9687L62.7066 81.9424C63.4252 82.0641 64.1469 82.1532 64.8716 82.2097L65.0072 80.2139ZM63.021 79.9687L63.3354 77.995C62.6523 77.8793 61.9681 77.776 61.2827 77.6852L61.0395 79.6696L60.7964 81.6541C61.4341 81.7386 62.0708 81.8347 62.7066 81.9424L63.021 79.9687ZM61.0395 79.6696L61.2827 77.6852C60.584 77.5926 59.8836 77.5196 59.1816 77.4664L59.0501 79.4625L58.9186 81.4586C59.5461 81.5062 60.172 81.5713 60.7964 81.6541L61.0395 79.6696ZM59.0501 79.4625L59.1816 77.4664C58.5466 77.4183 57.9128 77.3559 57.2803 77.2793L57.0597 79.2667L56.8391 81.254C57.5309 81.3377 58.2241 81.4059 58.9186 81.4586L59.0501 79.4625ZM57.0597 79.2667L57.2803 77.2793C56.5626 77.1925 55.8423 77.1358 55.1196 77.1093L55.0659 79.1097L55.0122 81.1102C55.6235 81.1326 56.2324 81.1805 56.8391 81.254L57.0597 79.2667ZM55.0659 79.1097L55.1196 77.1093C54.4598 77.085 53.8003 77.0572 53.1412 77.0259L53.0658 79.0254L52.9904 81.025C53.664 81.057 54.3379 81.0854 55.0122 81.1102L55.0659 79.1097ZM53.0658 79.0254L53.1412 77.0259C52.5337 76.9969 51.9287 76.9412 51.326 76.8587L51.0743 78.842L50.8226 80.8253C51.5424 80.9239 52.2651 80.9904 52.9904 81.025L53.0658 79.0254ZM51.0743 78.842L51.326 76.8587C50.6069 76.7602 49.8849 76.6933 49.1604 76.658L49.0829 78.6575L49.0054 80.6569C49.6135 80.6865 50.2192 80.7426 50.8226 80.8253L51.0743 78.842ZM49.0829 78.6575L49.1604 76.658C48.6327 76.6324 48.1085 76.5523 47.5857 76.4164L47.1018 78.3538L46.6179 80.2912C47.4039 80.4954 48.2004 80.6178 49.0054 80.6569L49.0829 78.6575ZM47.1018 78.3538L47.5857 76.4164C46.838 76.2222 46.0832 76.0834 45.3222 76.0007L45.1259 77.9908L44.9296 79.9809C45.4943 80.0423 46.0569 80.1455 46.6179 80.2912L47.1018 78.3538ZM45.1259 77.9908L45.3222 76.0007C44.5969 75.9219 43.8689 75.8772 43.1383 75.8667L43.1291 77.8683L43.1199 79.8699C43.7259 79.8786 44.3291 79.9156 44.9296 79.9809L45.1259 77.9908ZM43.1291 77.8683L43.1383 75.8667C42.4946 75.8575 41.8521 75.8363 41.2107 75.8032L41.1274 77.8024L41.0441 79.8015C41.735 79.8372 42.427 79.86 43.1199 79.8699L43.1291 77.8683ZM41.1274 77.8024L41.2107 75.8032C40.5978 75.7716 39.9871 75.7156 39.3785 75.635L39.1358 77.6196L38.8932 79.6041C39.6077 79.6986 40.3247 79.7644 41.0441 79.8015L41.1274 77.8024ZM39.1358 77.6196L39.3785 75.635C38.7133 75.547 38.048 75.4608 37.3825 75.3765L37.1507 77.3624L36.9189 79.3483C37.5772 79.4318 38.2353 79.517 38.8932 79.6041L39.1358 77.6196ZM37.1507 77.3624L37.3825 75.3765C36.6693 75.286 35.9537 75.2234 35.2357 75.1886L35.1585 77.188L35.0812 79.1875C35.6959 79.2173 36.3085 79.2709 36.9189 79.3483L37.1507 77.3624ZM35.1585 77.188L35.2357 75.1886C34.5957 75.1575 33.9568 75.1138 33.3191 75.0575L33.1629 77.0515L33.0067 79.0456C33.697 79.1066 34.3885 79.1539 35.0812 79.1875L35.1585 77.188ZM33.1629 77.0515L33.3191 75.0575C32.7091 75.0036 32.1011 74.9249 31.4951 74.8213L31.1778 76.7946L30.8605 78.7678C31.5731 78.8895 32.2885 78.9822 33.0067 79.0456L33.1629 77.0515ZM31.1778 76.7946L31.4951 74.8213C30.7795 74.6991 30.0609 74.6077 29.3396 74.5472L29.1923 76.542L29.0449 78.5368C29.6522 78.5877 30.2573 78.6647 30.8605 78.7678L31.1778 76.7946ZM29.1923 76.542L29.3396 74.5472C28.6917 74.4929 28.0445 74.4306 27.3981 74.3602L27.2015 76.3503L27.0049 78.3404C27.6842 78.4143 28.3642 78.4798 29.0449 78.5368L29.1923 76.542ZM27.2015 76.3503L27.3981 74.3602C26.7697 74.2918 26.1427 74.2071 25.517 74.1059L25.2173 76.082L24.9176 78.0581C25.6117 78.1704 26.3074 78.2645 27.0049 78.3404L27.2015 76.3503ZM25.2173 76.082L25.517 74.1059C24.7799 73.9866 24.0387 73.911 23.2938 73.8789L23.2275 75.8789L23.1613 77.8788C23.7497 77.9042 24.335 77.9639 24.9176 78.0581L25.2173 76.082ZM23.2275 75.8789L23.2938 73.8789C22.644 73.851 21.995 73.8148 21.3466 73.7704L21.2298 75.7676L21.1129 77.7647C21.795 77.8114 22.4778 77.8495 23.1613 77.8788L23.2275 75.8789ZM21.2298 75.7676L21.3466 73.7704C20.6524 73.7229 19.9569 73.6906 19.2602 73.6733L19.2304 75.6745L19.2007 77.6757C19.8394 77.6915 20.4768 77.7212 21.1129 77.7647L21.2298 75.7676ZM19.2304 75.6745L19.2602 73.6733C18.7393 73.6605 18.2228 73.5909 17.7083 73.4633L17.2463 75.4063L16.7843 77.3493C17.5799 77.5464 18.3862 77.6556 19.2007 77.6757L19.2304 75.6745ZM17.2463 75.4063L17.7083 73.4633C16.928 73.27 16.1384 73.1536 15.341 73.1151L15.2642 75.1146L15.1874 77.114C15.7227 77.1399 16.2544 77.218 16.7843 77.3493L17.2463 75.4063ZM15.2642 75.1146L15.341 73.1151C14.6578 73.0821 13.9739 73.0577 13.2893 73.042L13.263 75.0433L13.2366 77.0445C13.8876 77.0595 14.5379 77.0827 15.1874 77.114L15.2642 75.1146ZM13.263 75.0433L13.2893 73.042C12.6935 73.0283 12.1008 72.9825 11.511 72.9046L11.2689 74.8892L11.0268 76.8738C11.7601 76.9706 12.4968 77.0275 13.2366 77.0445L13.263 75.0433ZM11.2689 74.8892L11.511 72.9046C10.8357 72.8154 10.1598 72.7333 9.48325 72.6582L9.28245 74.6479L9.08165 76.6375C9.73062 76.7095 10.379 76.7882 11.0268 76.8738L11.2689 74.8892ZM9.28245 74.6479L9.48325 72.6582C8.77267 72.5794 8.05993 72.5262 7.34512 72.4988L7.28794 74.4991L7.23076 76.4994C7.84978 76.5232 8.46671 76.5692 9.08165 76.6375L9.28245 74.6479ZM7.28794 74.4991L7.34512 72.4988C6.69484 72.4738 6.04529 72.4406 5.39648 72.3994L5.28937 74.3972L5.18226 76.395C5.86438 76.4383 6.54721 76.4731 7.23076 76.4994L7.28794 74.4991ZM5.28937 74.3972L5.39648 72.3994C4.74947 72.3583 4.10327 72.3082 3.45785 72.2492L3.29536 74.2426L3.13287 76.2361C3.81519 76.2986 4.49832 76.3515 5.18226 76.395L5.28937 74.3972ZM3.29536 74.2426L3.45785 72.2492C3.37572 72.2416 3.5119 72.2364 3.70548 72.3847C3.80389 72.46 3.8903 72.5556 3.9558 72.6623C4.01957 72.7661 4.04797 72.8549 4.05982 72.9066L2.11264 73.3369L0.165449 73.7673C0.319293 74.4377 0.679537 75.083 1.29808 75.5567C1.8859 76.0068 2.55114 76.1829 3.13287 76.2361L3.29536 74.2426ZM2.11264 73.3369L4.05982 72.9066C3.99614 72.6291 3.97126 72.2633 4.0282 71.7855L2.04405 71.5292L0.0599109 71.2728C-0.0409462 72.1192 -0.0201046 72.9587 0.165449 73.7673L2.11264 73.3369ZM2.04405 71.5292L4.0282 71.7855C4.11 71.099 4.1791 70.4112 4.23549 69.7222L2.24397 69.5393L0.252446 69.3564C0.200072 69.9963 0.135894 70.6351 0.0599109 71.2728L2.04405 71.5292ZM2.24397 69.5393L4.23549 69.7222C4.29729 68.9671 4.30778 68.2082 4.26733 67.4459L2.27195 67.5327L0.27658 67.6196C0.30758 68.2037 0.299419 68.7824 0.252446 69.3564L2.24397 69.5393ZM2.27195 67.5327L4.26733 67.4459C4.23848 66.9023 4.26241 66.3663 4.33856 65.8361L2.36068 65.5321L0.382795 65.2281C0.269199 66.019 0.233977 66.8168 0.27658 67.6196L2.27195 67.5327ZM2.36068 65.5321L4.33856 65.8361C4.428 65.2134 4.53548 64.5922 4.66105 63.9725L2.70263 63.5559L0.744214 63.1394C0.603599 63.8334 0.483114 64.5296 0.382795 65.2281L2.36068 65.5321ZM2.70263 63.5559L4.66105 63.9725C4.80774 63.2484 4.91656 62.52 4.98731 61.7873L2.99838 61.5753L1.00946 61.3633C0.952056 61.9577 0.863701 62.5496 0.744214 63.1394L2.70263 63.5559ZM2.99838 61.5753L4.98731 61.7873C5.05239 61.1134 5.1122 60.4389 5.16674 59.764L3.17505 59.5831L1.18336 59.4023C1.1305 60.0565 1.07253 60.7101 1.00946 61.3633L2.99838 61.5753ZM3.17505 59.5831L5.16674 59.764C5.22643 59.0253 5.24503 58.2833 5.2227 57.5382L3.22541 57.5788L1.22811 57.6193C1.24604 58.2177 1.23107 58.8119 1.18336 59.4023L3.17505 59.5831ZM3.22541 57.5788L5.2227 57.5382C5.20595 56.9794 5.23628 56.4266 5.31343 55.8787L3.33477 55.5801L1.35611 55.2816C1.24718 56.0551 1.2046 56.8348 1.22811 57.6193L3.22541 57.5788ZM3.33477 55.5801L5.31343 55.8787C5.414 55.1644 5.48547 54.4473 5.52782 53.7272L3.53308 53.5901L1.53834 53.4529C1.50235 54.0648 1.44161 54.6743 1.35611 55.2816L3.33477 55.5801ZM3.53308 53.5901L5.52782 53.7272C5.56625 53.0739 5.61087 52.4213 5.6617 51.7692L3.66956 51.594L1.67742 51.4189C1.62462 52.0963 1.57826 52.7743 1.53834 53.4529L3.53308 53.5901ZM3.66956 51.594L5.6617 51.7692C5.70746 51.1821 5.78738 50.5977 5.90165 50.0159L3.9409 49.611L1.98015 49.2062C1.83626 49.9389 1.73528 50.6765 1.67742 51.4189L3.66956 51.594ZM3.9409 49.611L5.90165 50.0159C6.05994 49.2099 6.12552 48.3938 6.09829 47.5705L4.1012 47.6173L2.1041 47.6641C2.12131 48.1846 2.08002 48.6977 1.98015 49.2062L3.9409 49.611ZM4.1012 47.6173L6.09829 47.5705C6.08064 47.0368 6.11786 46.5102 6.20983 45.9884L4.24197 45.6217L2.27411 45.255C2.13394 46.0503 2.07731 46.8541 2.1041 47.6641L4.1012 47.6173ZM4.24197 45.6217L6.20983 45.9884C6.34506 45.2212 6.41615 44.447 6.42294 43.6671L4.42482 43.6301L2.4267 43.5932C2.42184 44.1516 2.37102 44.7052 2.27411 45.255L4.24197 45.6217ZM4.42482 43.6301L6.42294 43.6671C6.42775 43.1155 6.48069 42.5688 6.582 42.0259L4.6177 41.6396L2.65341 41.2532C2.5092 42.026 2.43356 42.8064 2.4267 43.5932L4.42482 43.6301ZM4.6177 41.6396L6.582 42.0259C6.73094 41.2277 6.79351 40.4203 6.76969 39.6061L4.77235 39.6453L2.77502 39.6844C2.7905 40.2136 2.74997 40.7357 2.65341 41.2532L4.6177 41.6396ZM4.77235 39.6453L6.76969 39.6061C6.75237 39.0143 6.77042 38.4269 6.82366 37.8435L4.83375 37.642L2.84384 37.4405C2.77591 38.1848 2.75302 38.933 2.77502 39.6844L4.77235 39.6453ZM4.83375 37.642L6.82366 37.8435C6.88732 37.146 6.93333 36.4469 6.9617 35.746L4.96515 35.6455L2.96859 35.5449C2.94295 36.1783 2.90136 36.8102 2.84384 37.4405L4.83375 37.642ZM4.96515 35.6455L6.9617 35.746C6.98449 35.183 7.05089 34.6239 7.16125 34.0678L5.20125 33.6591L3.24126 33.2504C3.09082 34.0085 2.99981 34.7737 2.96859 35.5449L4.96515 35.6455ZM5.20125 33.6591L7.16125 34.0678C7.32226 33.2563 7.38639 32.4344 7.3536 31.6051L5.35698 31.6649L3.36035 31.7246C3.38073 32.2401 3.34104 32.7475 3.24126 33.2504L5.20125 33.6591ZM5.35698 31.6649L7.3536 31.6051C7.33383 31.1052 7.37784 30.6133 7.4861 30.1253L5.5353 29.6729L3.58449 29.2205C3.40182 30.0439 3.32695 30.88 3.36035 31.7246L5.35698 31.6649ZM5.5353 29.6729L7.4861 30.1253C7.64404 29.4134 7.77046 28.6977 7.8652 27.9783L5.88413 27.6974L3.90306 27.4166C3.82361 28.0198 3.71747 28.6211 3.58449 29.2205L5.5353 29.6729ZM5.88413 27.6974L7.8652 27.9783C7.96726 27.2034 8.00258 26.4226 7.97153 25.6372L5.9749 25.697L3.97827 25.7567C4.00039 26.316 3.9752 26.8688 3.90306 27.4166L5.88413 27.6974ZM5.9749 25.697L7.97153 25.6372C7.94947 25.0794 7.9752 24.5281 8.04834 23.9819L6.06784 23.6967L4.08734 23.4116C3.9834 24.1877 3.94716 24.9699 3.97827 25.7567L5.9749 25.697ZM6.06784 23.6967L8.04834 23.9819C8.13611 23.3265 8.22677 22.6714 8.32033 22.0166L6.34223 21.714L4.36414 21.4115C4.26893 22.0779 4.17667 22.7446 4.08734 23.4116L6.06784 23.6967ZM6.34223 21.714L8.32033 22.0166C8.43422 21.2194 8.4654 20.4152 8.4146 19.6061L6.42035 19.7123L4.4261 19.8186C4.45991 20.3572 4.43902 20.8874 4.36414 21.4115L6.34223 21.714ZM6.42035 19.7123L8.4146 19.6061C8.3863 19.1553 8.43181 18.7143 8.55332 18.2742L6.62708 17.7231L4.70084 17.172C4.4621 18.0365 4.3698 18.9217 4.4261 19.8186L6.42035 19.7123ZM6.62708 17.7231L8.55332 18.2742C8.79542 17.3975 8.88059 16.4992 8.80715 15.59L6.81548 15.7321L4.8238 15.8742C4.85941 16.315 4.81898 16.7441 4.70084 17.172L6.62708 17.7231ZM6.81548 15.7321L8.80715 15.59C8.76389 15.0544 8.7771 14.5283 8.84566 14.0091L6.86468 13.7276L4.8837 13.4461C4.7776 14.2495 4.75801 15.0597 4.8238 15.8742L6.81548 15.7321ZM6.86468 13.7276L8.84566 14.0091C8.93339 13.3448 8.99351 12.9269 9.02816 12.7238L7.05844 12.3678L5.08873 12.0118C5.03968 12.2992 4.97063 12.7878 4.8837 13.4461L6.86468 13.7276ZM7.05844 12.3678L9.02816 12.7238C8.95582 13.1477 8.73005 13.5183 8.4199 13.7718C8.149 13.9931 7.89327 14.062 7.79404 14.0835C7.62138 14.121 7.59344 14.085 7.85421 14.1217L8.11283 12.1394L8.37146 10.157C7.97115 10.1008 7.43694 10.0565 6.91282 10.1701C6.36304 10.2892 5.30542 10.7421 5.08873 12.0118L7.05844 12.3678Z" fill="#6E3997"/>
<path d="M7.80591 13.4463L64.6352 49.6009L124.546 24.6542" stroke="#6E3997" stroke-width="4"/>
<path d="M56.964 43.159C60.0152 40.1682 63.1663 46.645 63.1663 46.645C63.1663 46.645 68.7327 41.0883 70.4762 45.2506C72.7666 50.7185 62.0588 54.6627 62.0588 54.6627C62.0588 54.6627 52.3873 47.6451 56.964 43.159Z" fill="#6E3997"/>
</svg>
