<svg width="404" height="539" viewBox="0 0 404 539" fill="none" xmlns="http://www.w3.org/2000/svg">
<path d="M49.2237 468.173C50.4815 464.209 52.7387 456.672 53.1476 452.563C53.1571 452.488 53.1664 452.412 53.1754 452.337C53.2917 451.377 53.3636 450.442 53.3887 449.401C53.4042 448.734 53.4002 447.982 53.354 447.173C53.2039 444.736 52.9325 441.357 51.7519 435.911C51.2112 433.762 50.5819 431.628 49.8814 429.507C46.5714 419.58 41.7677 409.769 36.2831 401.027L37.2312 402.063C25.8222 392.674 15.8673 382.002 8.31788 369.102C8.14548 368.816 7.97168 368.525 7.79782 368.229C4.36199 362.568 1.20583 354.652 0.487253 349.235C0.0690494 346.521 -0.0468096 344.094 0.0159257 341.936C0.117453 338.726 0.528563 336.179 0.98765 333.971C5.13429 312.724 19.5045 297.004 24.8953 278.935C25.7058 276.03 26.1864 273.103 26.1295 270.251C26.1145 269.49 26.0711 268.732 26.0005 267.972C25.8171 265.999 25.4498 264.029 24.9336 262.072C23.5633 256.883 21.185 251.846 18.5052 246.899C16.8654 244.053 15.1863 241.38 13.623 238.873C11.4217 235.353 9.45494 232.15 7.97073 229.385C4.3399 222.798 1.19283 214.277 0.754644 207.438C0.664172 206.33 0.626177 205.281 0.62581 204.306C0.619348 204.08 0.614951 203.853 0.612671 203.625C0.507436 198.154 2.43702 192.725 5.30529 188.392C5.53937 188.107 5.77385 187.833 6.0191 187.554C9.06385 184.078 12.8578 180.188 19.0214 174.825C21.6783 172.475 24.7949 169.852 28.0776 166.583C30.1752 164.469 31.2482 163.408 32.1203 162.535C32.3737 162.278 32.6124 162.027 32.8398 161.771C33.6172 160.891 34.2066 159.792 34.768 158.48C35.4842 156.768 36.1945 154.744 36.8994 152.017C37.1959 150.842 37.3482 149.737 37.4033 148.665C37.6896 141.332 36.3585 137.837 35.4355 135.235C35.1047 134.359 34.775 133.558 34.4564 132.753C33.4495 130.124 31.8783 126.404 30.4424 123.633C29.3612 121.411 26.4211 117.366 23.9961 114.309C23.092 113.15 21.9204 111.525 20.5879 109.526C19.2148 107.456 17.665 104.977 16.2525 102.123C13.1183 95.6777 12.7524 91.2277 12.5478 87.986C12.5279 87.5638 12.5168 87.1545 12.5125 86.7545C12.5025 85.7489 12.5328 84.842 12.5903 83.9236C12.7641 81.0355 13.3581 77.5365 14.2517 74.1167C15.3103 70.0155 16.762 66.0172 17.9415 63.0257C21.2265 55.3447 25.2101 48.1158 29.5483 41.088C31.7647 37.5074 34.1491 34.2121 36.0725 31.8818C37.9779 29.5805 39.285 28.3771 39.5476 28.6454C39.8871 28.8058 39.1845 30.4107 37.8443 33.0436C36.4815 35.7031 34.5705 39.2236 32.5758 42.8526C28.5332 50.2096 24.9028 57.77 22.0932 65.5667C19.5099 72.8496 17.4807 80.517 17.8717 87.7648C18.0046 89.9491 18.3572 92.079 18.939 94.1481C20.6741 100.495 24.7783 106.034 29.0847 111.812C29.526 112.408 29.9699 113.01 30.4134 113.618C34.2369 118.398 37.7625 123.837 39.5633 128.073C41.0828 131.532 41.736 134.288 42.1749 136.579C42.4755 138.172 42.6749 139.625 42.8807 141.022C42.9928 141.785 43.138 142.857 43.2586 144.108C43.3859 145.441 43.4868 146.924 43.521 148.662C43.8084 154.244 41.1839 161.383 37.2379 166.152C34.9717 169.059 31.966 171.907 29.0668 174.388C24.9059 177.93 21.0465 180.939 19.3325 182.686C16.2867 185.713 12.8874 189.098 10.6756 192.451C8.52018 195.625 7.57079 198.745 7.47102 200.553C7.40086 201.607 7.36237 202.552 7.36068 203.609C7.36264 204.77 7.38251 206.004 7.5179 207.502C7.70688 209.52 8.09533 212.019 9.1811 215.346C10.4555 219.177 11.623 221.875 12.6267 224.169C14.0671 227.392 15.2731 229.801 17.4741 233.19C19.9267 236.949 22.4705 240.968 24.1843 244.354C24.9648 245.889 25.8847 247.651 26.7812 249.527C27.9708 252.01 29.1126 254.717 29.8797 257.31C30.5127 259.443 30.7952 261.296 30.9655 262.929C31.0185 263.438 31.0612 263.931 31.0988 264.405C31.2754 265.41 31.4158 266.423 31.5161 267.445C31.5909 268.208 31.643 268.972 31.6715 269.742C31.6888 269.866 31.7062 269.992 31.7234 270.122C31.7467 270.299 31.7691 270.481 31.7902 270.667C31.9742 272.304 32.065 274.342 31.7335 276.8C31.1967 280.671 30.0138 283.845 28.6396 287.026C27.5598 289.502 26.3275 291.994 24.9646 294.837C24.0356 296.776 22.9888 298.972 21.9362 301.132C20.373 304.338 18.8248 307.458 17.6512 309.562C17.2099 310.351 16.75 310.984 16.2968 311.613C16.2946 311.615 16.2924 311.618 16.2903 311.621C16.2595 311.664 16.2288 311.707 16.1982 311.749C13.6249 317.001 11.2699 322.297 9.62559 327.718C9.50385 328.193 9.3852 328.674 9.27339 329.151C8.72312 331.475 8.36704 333.748 8.31031 335.229C8.25874 336.444 7.96721 338.999 8.05263 341.933C8.07881 342.87 8.1479 343.853 8.2642 344.846C8.56764 347.503 9.24698 350.234 10.0129 352.415C10.4582 353.691 10.7654 354.941 11.1388 356.239C11.4845 357.441 11.8901 358.685 12.5158 359.959C12.8298 360.598 13.21 361.272 13.6286 361.981C13.9974 362.606 14.3982 363.263 14.812 363.954C15.1963 364.595 15.9588 366.082 17.0428 367.945C17.7145 369.101 18.505 370.394 19.3897 371.733C21.8712 375.155 24.5833 378.446 27.4465 381.611C28.0958 382.207 28.7119 382.711 29.2346 383.055C29.6113 383.304 29.951 383.479 30.3107 383.669C30.804 383.931 31.3106 384.197 31.918 384.621C32.3912 384.951 32.9142 385.43 33.1907 385.786C33.3212 385.954 33.4028 386.099 33.4768 386.231C33.5588 386.379 33.6436 386.521 33.7766 386.655C33.873 386.752 33.9944 386.831 34.1422 386.927C34.3781 387.079 34.6834 387.277 35.0567 387.646C36.4981 389.07 38.141 390.678 39.7643 392.182C40.8308 393.171 41.9555 394.174 42.8453 394.917L43.8986 396.068C44.4882 397.02 44.9543 397.822 45.3918 398.563C46.5754 400.568 48.0762 403.582 49.4234 406.576C50.3769 408.684 51.2768 410.814 52.0455 412.651C52.7993 414.45 53.6187 416.286 54.3799 418.111C55.2895 420.287 56.0978 422.412 56.6104 424.291C56.713 424.668 56.7573 425.166 56.8089 425.791C56.8458 426.236 56.8855 426.743 56.949 427.314C57.6442 429.674 58.253 432.065 58.7549 434.488C58.7866 434.57 58.819 434.655 58.8516 434.74C58.8522 434.741 58.8528 434.743 58.8535 434.744C59.5813 436.658 60.5492 439.362 60.6246 443.369C60.6404 444.384 60.5535 445.032 60.473 445.612C60.414 446.032 60.3566 446.417 60.3284 446.883C60.3185 447.056 60.3116 447.241 60.3081 447.443C60.294 448.306 60.3284 449.36 60.3112 450.45C60.2876 452.022 60.1539 453.742 59.7344 455.391C59.7059 455.504 59.6746 455.625 59.6419 455.751C59.3318 456.963 58.821 458.695 58.1404 460.352C56.6526 465.415 54.6587 470.214 52.4434 474.871C48.735 482.622 44.3968 489.979 39.7636 497.111C37.5104 500.573 35.1059 503.785 33.2327 505.982C31.3088 508.252 30.0454 509.383 29.7883 509.121C29.4591 508.956 30.1344 507.422 31.5045 504.811C32.8291 502.275 34.7662 498.82 36.786 495.284C40.0901 489.506 43.1546 483.61 45.8489 477.58C45.984 477.261 46.1191 476.941 46.253 476.622C47.2486 474.25 48.0363 471.999 48.7467 469.735C48.9099 469.215 49.0687 468.694 49.2237 468.173Z" fill="#FFD700"/>
<path d="M66.8323 46.3216C69.6481 47.5325 74.9839 49.7681 77.7874 50.1535C77.8393 50.1627 77.891 50.1716 77.9425 50.1802C78.5999 50.2915 79.2329 50.3573 79.92 50.376C80.3225 50.3866 80.7603 50.3802 81.2159 50.3435C82.9254 50.1977 85.3338 49.9309 89.3143 48.6951C90.8207 48.1508 92.3152 47.5203 93.7903 46.8268C100.373 43.708 106.796 39.3194 112.277 34.6316L111.402 35.7001C117.363 25.8178 124.238 16.7989 133.293 9.21822C133.485 9.05118 133.681 8.88238 133.881 8.71314C137.682 5.38955 143.351 1.89615 147.638 0.851103C150.243 0.150781 152.605 -0.0638739 154.663 0.0158177C156.783 0.102973 158.512 0.438389 160.005 0.823629C176.715 5.25796 186.464 18.5458 199.123 23.6917C201 24.4085 202.873 24.8266 204.629 24.7813C205.264 24.7656 205.9 24.707 206.539 24.6078C207.887 24.3994 209.248 24.0071 210.589 23.4792C214.159 22.0693 217.595 19.7574 220.957 17.2409C222.868 15.7016 224.658 14.1442 226.351 12.6937C228.726 10.6522 230.919 8.82495 232.873 7.42682C237.486 4.03812 244.021 0.805306 249.719 0.681785C250.196 0.661527 250.661 0.657929 251.112 0.668701C251.558 0.678338 251.985 0.70719 252.39 0.750516C257.304 1.09397 261.314 3.97054 264.168 6.8495C264.335 7.07408 264.493 7.29642 264.654 7.52793C266.661 10.4092 269.019 13.6935 272.329 18.8621C273.779 21.0962 275.395 23.6882 277.411 26.5265C278.716 28.3457 279.304 29.3002 279.801 30.0888C279.949 30.3205 280.089 30.5342 280.238 30.7414C280.751 31.4537 281.484 32.0181 282.37 32.5891C283.525 33.3162 284.863 34.0693 286.575 34.8904C287.583 35.363 288.551 35.5845 289.476 35.6448C294.232 35.8588 296.522 34.7032 298.201 33.8892C298.806 33.5789 299.339 33.2768 299.892 32.9812C301.684 32.0518 304.238 30.6236 306.155 29.3304C307.696 28.3509 310.348 25.7341 312.315 23.5747C313.063 22.7668 314.14 21.7177 315.473 20.4953C316.857 19.2344 318.517 17.7733 320.502 16.3379C325.292 12.8984 329.062 12.3174 331.7 12.1239C331.865 12.1137 332.028 12.1059 332.188 12.1002C332.988 12.0725 333.734 12.0959 334.456 12.1502C336.76 12.3148 339.473 12.9549 342.039 13.8819C345.127 14.9855 348.016 16.4471 350.17 17.6176C355.634 20.8631 360.601 24.6757 365.328 28.7034C367.759 30.7813 369.911 32.9741 371.364 34.7116C372.825 36.4591 373.501 37.6228 373.211 37.8557C372.988 38.1544 371.825 37.529 369.954 36.2929C368.094 35.0621 365.654 33.3069 363.147 31.4454C358.11 27.7074 352.845 24.2571 347.331 21.5292C342.325 19.0852 336.855 17.0686 331.996 17.4371C330.368 17.5724 328.811 17.9675 327.322 18.6115C323.101 20.4216 319.541 24.2165 315.714 28.0663C315.32 28.4631 314.918 28.8652 314.515 29.2632C311.405 32.6932 307.68 36.0352 304.535 37.8426C301.968 39.3605 299.822 40.0379 297.998 40.4848C296.751 40.7852 295.616 40.9784 294.488 41.1768C293.861 41.2857 293.063 41.4144 292.038 41.5198C291.268 41.5983 290.437 41.6589 289.475 41.683C284.39 42.0484 278.414 38.3094 275.271 34.4144C273.427 32.2989 271.715 29.7065 270.226 27.2519C268.101 23.7306 266.316 20.5074 265.2 19.0388C263.267 16.45 261.21 13.4713 259.148 11.3204C257.198 9.23571 255.238 8.06726 254.071 7.84194C253.05 7.62911 252.225 7.46902 251.13 7.41402C250.682 7.39732 250.204 7.39459 249.673 7.42225C248.303 7.49793 246.569 7.75833 244.261 8.69314C241.599 9.79595 239.704 10.8572 238.102 11.7621C235.845 13.0687 234.167 14.1682 231.92 16.1853C229.429 18.4328 226.74 20.7909 224.388 22.4265C223.319 23.173 222.105 24.0571 220.793 24.9403C219.059 26.11 217.134 27.2767 215.21 28.1115C213.623 28.8014 212.202 29.1497 210.928 29.3797C210.53 29.4514 210.15 29.5104 209.778 29.5647C209.001 29.7761 208.217 29.949 207.412 30.0797C206.813 30.1769 206.208 30.2494 205.597 30.2948C205.368 30.3418 205.125 30.3892 204.869 30.4331C204.847 30.4369 204.825 30.4407 204.803 30.4444C203.495 30.6611 201.824 30.7532 199.903 30.4037C196.813 29.8233 194.459 28.5911 192.169 27.2302C190.389 26.1593 188.642 24.9631 186.64 23.6588C185.27 22.7659 183.731 21.7778 182.213 20.7842C179.967 19.3121 177.791 17.865 176.362 16.7695C175.827 16.3582 175.42 15.9289 175.017 15.5067C175.015 15.5047 175.014 15.5026 175.012 15.5006C174.985 15.4719 174.957 15.4434 174.93 15.4148C171.288 13.0099 167.599 10.7894 163.788 9.25267C163.454 9.14107 163.106 9.02913 162.77 8.9273C161.121 8.42144 159.521 8.11564 158.482 8.09488C157.741 8.07629 156.312 7.90393 154.662 7.97839C153.832 8.01556 152.925 8.12736 151.996 8.33028C150.226 8.70909 148.397 9.44407 146.953 10.2321C146.116 10.6867 145.243 11.0116 144.344 11.3933C143.503 11.7516 142.644 12.1579 141.8 12.7671C141.38 13.0708 140.943 13.438 140.487 13.8368C140.087 14.187 139.667 14.566 139.218 14.9575C138.805 15.3181 137.805 16.0412 136.561 17.045C135.791 17.6661 134.929 18.3937 134.047 19.1955C131.847 21.4437 129.756 23.8428 127.765 26.3217C127.412 26.8916 127.136 27.4204 126.975 27.8652C126.86 28.1829 126.787 28.4853 126.714 28.7934C126.615 29.2121 126.516 29.6416 126.302 30.158C126.123 30.577 125.848 31.0075 125.603 31.2456C125.489 31.3567 125.381 31.4263 125.284 31.4896C125.173 31.5614 125.068 31.635 124.984 31.7472C124.923 31.8289 124.885 31.9316 124.838 32.0567C124.763 32.2564 124.666 32.5148 124.432 32.8325C123.532 34.0574 122.516 35.4273 121.548 36.7969C120.685 38.0165 119.832 39.2768 119.24 40.2398L118.271 41.4228C117.959 41.6894 117.726 41.8791 117.479 42.084C116.062 43.2546 113.979 44.67 111.831 46.0024C110.331 46.9352 108.807 47.8244 107.495 48.5872C106.203 49.3396 104.907 50.1522 103.604 50.9175C102.045 51.8348 100.508 52.66 99.1125 53.1982C98.8313 53.3067 98.4419 53.3627 97.9555 53.4276C97.612 53.473 97.2166 53.524 96.7753 53.5996C95.0339 54.3274 93.2463 54.9791 91.4125 55.5264C91.3523 55.5594 91.29 55.5931 91.2276 55.627C91.2266 55.6277 91.2257 55.6283 91.2247 55.6289C89.825 56.3838 87.7971 57.411 84.6217 57.5511C83.8164 57.5825 83.3031 57.503 82.8386 57.4291C82.4383 57.364 82.0787 57.3006 81.603 57.2854C81.5329 57.2835 81.4605 57.2823 81.3852 57.2818C80.6786 57.2778 79.8112 57.3149 78.9313 57.2913C77.6591 57.2592 76.2724 57.0956 75.0119 56.6519C74.9249 56.6215 74.8313 56.5882 74.734 56.5533C73.8018 56.2241 72.4818 55.6804 71.291 54.988C67.5066 53.4253 64.1084 51.4309 60.844 49.2698C55.419 45.6495 50.4569 41.5762 45.6723 37.2852C43.3695 35.2131 41.2844 33.0167 39.896 31.305C38.4934 29.5785 37.8398 28.4351 38.1309 28.2131C38.3492 27.9191 39.4881 28.5409 41.3092 29.7698C43.1136 30.9884 45.5061 32.7571 47.9137 34.6068C51.8625 37.6458 55.9403 40.5149 60.1441 43.0737C60.368 43.2025 60.5929 43.3311 60.8168 43.4587C62.4813 44.4064 64.0957 45.1701 65.7099 45.8558C66.0843 46.0152 66.4586 46.1703 66.8323 46.3216Z" fill="#FFD700"/>
<path d="M396.371 469.184C398.262 465.268 400.925 457.269 401.88 452.601C401.899 452.515 401.918 452.43 401.937 452.345C402.174 451.251 402.394 450.196 402.614 448.956C402.866 447.495 403.154 445.717 403.282 443.229C403.41 440.521 403.141 436.968 401.631 432.692C400.819 430.196 399.742 427.859 398.499 425.646C390.482 412.117 378.582 402.914 365.849 395.069L366.382 402.244C375.092 395.099 382.704 387.186 389.353 378.177C389.554 377.915 389.758 377.647 389.962 377.375C393.94 372.195 398.155 365.043 399.957 360.072C402.32 353.796 402.983 349.115 403.165 345.293C403.239 344.232 403.272 343.165 403.261 342.095C402.57 320.857 389.555 304.941 382.077 288.252C380.449 284.665 379.044 281.016 378.211 277.347C377.77 275.403 377.493 273.434 377.449 271.513C377.44 271.143 377.44 270.775 377.448 270.409C377.555 265.56 378.863 260.709 380.796 256.012C382.088 253.092 383.562 250.383 385.003 247.887C387.035 244.381 388.996 241.283 390.548 238.652C394.31 232.345 398.325 224.677 400.323 218.384C400.656 217.368 400.947 216.382 401.192 215.473C402.313 211.75 403.029 207.808 403.066 203.784C403.08 202.278 402.967 200.803 402.721 199.33C402.619 198.966 402.505 198.593 402.382 198.221C400.866 193.624 398.168 188.257 392.237 182.188C389.674 179.531 386.534 176.757 382.885 173.62C380.539 171.598 379.26 170.683 378.222 169.922C377.915 169.697 377.63 169.485 377.349 169.264C376.388 168.507 375.55 167.527 374.614 166.346C373.412 164.809 372.025 162.989 370.212 160.655C366.389 155.657 366.008 151.568 366.124 148.823C366.198 147.272 366.352 146.123 366.518 145.01C366.663 144.066 366.815 143.233 366.957 142.356C367.385 139.55 368.081 135.593 368.932 132.647C369.533 130.287 371.699 125.877 373.841 122.792C374.629 121.618 375.674 119.996 376.983 118.106C378.334 116.146 379.982 113.896 381.772 111.43C386.328 105.198 388.161 101.125 389.281 97.8545C389.602 96.906 389.858 96.0265 390.086 95.1183C390.592 93.1101 390.971 90.6927 391.067 88.1453C391.107 87.1267 391.113 86.0694 391.088 85.0335C390.992 80.7443 390.328 76.4894 389.687 73.3066C387.792 65.0962 384.762 57.3132 381.219 49.8491C379.391 46.0116 377.33 42.5072 375.616 40.0204C373.907 37.5425 372.708 36.284 372.409 36.5025C372.077 36.6685 372.639 38.2768 373.75 41.0239C374.87 43.7785 376.428 47.4395 378.016 51.2724C381.209 58.9831 383.799 66.9672 385.149 75.0665C385.856 79.3666 386.197 83.7073 385.927 87.9318C385.61 93.3256 383.779 98.3727 380.906 103.039C377.371 108.857 372.498 114.273 368.567 120.713C368.165 121.368 367.763 122.051 367.384 122.722C364.013 128.133 361.8 134.416 360.961 138.884C360.232 142.577 360.169 145.384 360.183 147.665C360.187 148.057 360.194 148.442 360.203 148.821C360.233 150.108 360.336 151.247 360.485 152.447C360.59 153.281 360.772 154.433 361.119 155.776C362.299 161.492 367.917 169.286 373.774 174.337C376.341 176.67 379.413 179.116 382.233 181.451C386.294 184.767 389.674 188.043 391.004 189.939C393.428 193.206 395.574 197.119 396.172 200.881C396.343 201.878 396.426 202.824 396.439 203.768C396.473 206.312 396.142 208.479 395.76 209.839C395.116 212.081 394.666 214.014 393.726 216.894C393.065 218.886 392.141 221.329 390.552 224.56C388.706 228.288 387.315 230.946 386.149 233.221C384.495 236.425 383.21 238.829 381.011 242.307C378.567 246.166 376.231 250.454 374.875 254.1C374.25 255.758 373.551 257.668 372.954 259.726C372.158 262.442 371.57 265.424 371.448 268.201C371.415 268.926 371.417 269.615 371.444 270.271C371.503 271.701 371.7 272.95 371.926 274.07C372.031 274.587 372.142 275.069 372.253 275.536C372.398 276.558 372.583 277.56 372.804 278.558C372.97 279.31 373.149 280.028 373.349 280.763C373.396 281.048 373.446 281.349 373.5 281.656C373.773 283.206 374.189 285.127 374.963 287.356C376.201 290.902 377.71 293.785 379.331 296.757C380.596 299.066 381.95 301.432 383.375 304.186C384.347 306.065 385.403 308.215 386.421 310.349C387.936 313.515 389.335 316.644 390.371 318.775C390.76 319.57 391.175 320.223 391.579 320.87C391.581 320.872 391.582 320.875 391.584 320.878C391.612 320.922 391.639 320.966 391.666 321.01C393.829 326.341 395.507 331.804 396.098 337.302C396.128 337.779 396.151 338.263 396.166 338.739C396.202 339.912 396.183 341.058 396.11 342.092C396.038 343.099 395.91 343.999 395.759 344.703C395.455 346.234 394.819 350.112 393.335 354.078C392.393 356.672 391.157 359.293 389.995 361.364C389.318 362.573 388.794 363.791 388.216 365.038C387.678 366.2 387.09 367.39 386.287 368.592C385.884 369.195 385.416 369.823 384.907 370.485C384.456 371.072 383.974 371.686 383.479 372.33C383.015 372.936 382.085 374.336 380.8 376.107C380.012 377.193 379.095 378.415 378.08 379.686C375.285 382.892 372.302 385.994 369.228 388.936C368.504 389.515 367.905 389.925 367.332 390.257C366.934 390.484 366.587 390.629 366.219 390.79C365.691 391.033 365.202 391.23 364.544 391.63C364.026 391.946 363.521 392.341 363.196 392.696C363.054 392.853 362.966 392.989 362.889 393.109C362.798 393.249 362.689 393.397 362.551 393.517C362.45 393.604 362.328 393.67 362.185 393.744C362.082 393.794 361.915 393.892 361.755 393.994C361.58 394.108 361.465 394.182 361.218 394.389C361.097 394.49 361.019 394.556 360.901 394.654C360.767 394.765 360.674 394.842 360.609 394.896L354.754 399.626L361.225 403.192C362.567 403.94 364.343 405.003 365.925 405.998C368.022 407.317 370.037 408.686 371.584 409.839C373.322 411.131 375.839 412.912 378.25 414.828C379.935 416.163 381.564 417.555 382.892 418.816C384.196 420.051 385.437 421.436 386.569 422.814C387.932 424.469 389.129 426.107 390.182 427.465C390.395 427.739 390.728 428.032 391.137 428.411C391.429 428.682 391.759 428.998 392.106 429.376C393.238 431.247 394.201 433.174 394.925 435.164C394.937 435.238 394.949 435.315 394.96 435.391C394.96 435.392 394.96 435.394 394.96 435.395C395.201 437.151 395.452 439.403 395.748 442.498C395.761 442.647 395.774 442.787 395.787 442.918C395.843 443.511 395.916 443.954 395.979 444.368C396.052 444.877 396.112 445.315 396.067 445.961C396.013 446.702 395.839 447.568 395.626 448.503C395.321 449.847 394.941 451.304 394.711 452.822C394.695 452.926 394.678 453.038 394.659 453.154C394.483 454.274 394.196 455.898 393.946 457.57C392.69 462.348 391.119 467.111 389.393 471.814C386.501 479.668 383.183 487.366 379.579 494.996C377.844 498.673 376.207 502.3 375.11 504.969C373.994 507.68 373.468 509.295 373.814 509.421C374.096 509.657 375.246 508.386 376.941 505.969C378.613 503.593 380.73 500.179 382.695 496.574C385.917 490.657 389.005 484.637 391.859 478.504C392.015 478.183 392.171 477.862 392.323 477.543C393.463 475.159 394.564 472.957 395.637 470.728C395.883 470.217 396.128 469.703 396.371 469.184Z" fill="#FFD700"/>
<path d="M58.1952 523.918C60.9871 525.421 66.1636 528.393 69.0935 529.535C69.1468 529.557 69.2 529.578 69.2531 529.6C69.93 529.876 70.6014 530.119 71.3541 530.355C72.7138 530.752 74.6134 531.375 77.1393 531.3C78.0966 531.249 79.1957 531.14 80.4532 530.933C81.9992 530.609 83.546 530.17 85.0792 529.644C93.5185 526.69 101.723 521.362 108.672 515.589L107.782 516.662C112.903 508.278 118.754 500.668 125.899 493.858C126.079 493.678 126.263 493.496 126.451 493.312C130.022 489.736 135.175 485.764 139.063 484.028C143.922 481.765 147.893 481.191 151.073 481.258C151.25 481.256 151.426 481.256 151.603 481.259C169.87 482.627 180.103 496.244 192.601 502.837C195.137 504.22 197.751 505.315 200.257 505.671C200.939 505.768 201.61 505.81 202.264 505.792C202.933 505.774 203.603 505.709 204.276 505.601C207.931 505.017 211.573 503.151 215.046 500.871C217.03 499.467 218.861 497.977 220.564 496.56C222.956 494.565 225.104 492.716 226.985 491.265C231.469 487.763 237.328 484.084 242.62 482.689C243.474 482.453 244.296 482.272 245.071 482.137C246.469 481.842 247.919 481.67 249.39 481.653C252.672 481.59 255.924 482.746 258.456 484.407C258.685 484.602 258.909 484.804 259.132 485.015C261.897 487.631 264.745 490.826 268.317 496.068C269.877 498.343 271.557 501.006 273.537 504.031C274.813 505.971 275.36 507.024 275.815 507.882C275.947 508.132 276.075 508.367 276.213 508.601C276.683 509.394 277.383 510.078 278.213 510.812C279.313 511.773 280.604 512.859 282.183 514.25C284.456 516.232 286.609 516.76 288.283 516.739C290.663 516.71 292.191 516.296 293.427 515.912C294.094 515.701 294.677 515.489 295.275 515.287C297.227 514.657 299.964 513.647 302.003 512.596C303.647 511.823 306.511 509.472 308.511 507.388C309.274 506.614 310.358 505.601 311.651 504.374C312.993 503.108 314.556 501.605 316.338 500.009C320.856 495.95 324.302 494.498 326.988 493.757C327.777 493.545 328.497 493.397 329.251 493.282C329.828 493.195 330.438 493.13 331.097 493.093C332.979 492.985 335.063 493.075 337.118 493.311C340.392 493.684 343.585 494.412 345.984 495.025C352.144 496.85 357.984 499.279 363.686 501.972C366.611 503.358 369.307 504.924 371.198 506.228C373.059 507.518 374.082 508.487 373.86 508.787C373.73 509.137 372.382 508.816 370.259 508.127C368.109 507.419 365.245 506.349 362.298 505.189C356.363 502.854 350.303 500.837 344.179 499.511C339.877 498.596 335.479 497.997 331.385 498.326C328.541 498.56 325.937 499.592 323.498 501.237C319.432 503.971 315.915 508.138 311.736 512.009C311.306 512.408 310.868 512.805 310.421 513.198C306.968 516.6 302.58 519.523 299.106 520.823C296.25 521.938 294.019 522.235 292.143 522.391C290.846 522.491 289.726 522.507 288.564 522.541C288.475 522.544 288.382 522.546 288.283 522.548C287.587 522.561 286.729 522.538 285.703 522.39C280.521 521.951 274.291 516.747 270.929 511.802C269.332 509.607 267.755 506.988 266.31 504.533C264.254 501.012 262.359 497.877 261.175 496.497C259.133 494.054 256.822 491.366 254.525 489.86C252.548 488.518 250.644 488.138 249.408 488.268C249.268 488.279 249.136 488.295 249.014 488.314C247.447 488.575 246.111 488.715 244.057 489.276C242.634 489.679 240.87 490.32 238.57 491.608C235.917 493.11 234.026 494.329 232.413 495.36C230.143 496.83 228.448 498.005 226.127 500.08C223.551 502.39 220.686 504.73 218.134 506.268C216.983 506.966 215.643 507.789 214.189 508.562C212.263 509.589 210.079 510.535 207.927 511.039C206.153 511.458 204.604 511.5 203.259 511.425C202.976 511.409 202.701 511.388 202.433 511.364C202.299 511.352 202.167 511.339 202.037 511.325C201.179 511.332 200.333 511.273 199.5 511.16C198.872 511.075 198.276 510.964 197.669 510.826C197.43 510.802 197.192 510.778 196.937 510.747C195.649 510.587 194.104 510.292 192.323 509.61C189.53 508.53 187.388 507.122 185.235 505.615C183.559 504.436 181.874 503.167 179.911 501.824C178.572 500.908 177.029 499.899 175.513 498.919C173.257 497.459 171.042 496.076 169.57 495.044C169.018 494.655 168.598 494.249 168.171 493.846C168.169 493.844 168.167 493.842 168.165 493.84C168.137 493.813 168.108 493.786 168.079 493.759C164.329 491.553 160.446 489.672 156.522 488.785C156.179 488.729 155.831 488.68 155.488 488.638C154.012 488.456 152.597 488.461 151.602 488.618C151.475 488.638 151.354 488.661 151.241 488.685C150.192 488.887 147.537 489.279 144.795 490.536C142.999 491.329 141.186 492.417 139.784 493.438C138.954 494.04 138.097 494.488 137.204 494.994C136.378 495.462 135.527 495.98 134.712 496.686C134.303 497.041 133.886 497.454 133.448 497.902C133.061 498.297 132.657 498.72 132.225 499.155C131.825 499.557 130.85 500.377 129.641 501.483C128.888 502.172 128.051 502.965 127.191 503.834C125.064 506.244 123.031 508.78 121.096 511.384C120.77 511.959 120.493 512.525 120.345 512.978C120.238 513.307 120.181 513.604 120.111 513.926C120.019 514.359 119.941 514.784 119.732 515.325C119.561 515.76 119.302 516.199 119.068 516.443C118.951 516.567 118.841 516.647 118.743 516.719C118.63 516.801 118.531 516.874 118.452 516.988C118.394 517.071 118.361 517.173 118.321 517.296C118.265 517.48 118.152 517.779 117.927 518.109C117.236 519.125 116.42 520.317 115.753 521.343L114.742 522.562C114.404 522.839 114.167 523.021 113.867 523.254C112.196 524.54 110.549 525.693 109.238 526.625C107.766 527.673 105.562 528.985 103.288 530.2C101.706 531.049 100.093 531.85 98.6989 532.532C97.3423 533.197 95.9364 533.935 94.5476 534.603C92.8819 535.406 91.223 536.111 89.7406 536.522C89.4408 536.605 89.0382 536.626 88.5348 536.644C88.1778 536.657 87.7686 536.67 87.3091 536.701C85.4448 537.252 83.5287 537.697 81.5653 537.991C81.4987 538.016 81.4299 538.041 81.3609 538.066C81.3598 538.066 81.3587 538.067 81.3576 538.068C80.3893 538.417 79.1592 538.817 77.5613 538.966C76.4579 539.065 75.2061 538.987 73.9304 538.677C73.0591 538.464 72.5954 538.227 72.1453 538.008C71.7047 537.789 71.3399 537.593 70.7818 537.404C70.1439 537.188 69.3697 536.995 68.5626 536.76C67.396 536.419 66.1659 535.993 65.0331 535.327C64.9569 535.282 64.8749 535.234 64.7896 535.183C63.9699 534.7 62.8045 533.967 61.7117 533.103C58.2557 531.05 55.0299 528.738 51.9272 526.316C46.7622 522.269 41.9395 517.915 37.265 513.39C34.9967 511.19 32.9855 508.933 31.6032 507.142C30.2726 505.4 29.5837 504.184 29.8912 503.98C30.1043 503.679 31.2916 504.386 33.059 505.647C34.8746 506.96 37.2149 508.808 39.6065 510.799C43.5015 514.045 47.5083 517.159 51.6206 520.05C51.84 520.196 52.0607 520.343 52.2805 520.489C53.9137 521.575 55.4957 522.48 57.0906 523.335C57.4582 523.532 57.8266 523.726 58.1952 523.918Z" fill="#FFD700"/>
</svg>
