<svg preserveAspectRatio="none" width="100%" height="100%" overflow="visible" style="display: block;" viewBox="0 0 44.9002 158.81" fill="none" xmlns="http://www.w3.org/2000/svg">
<path id="lang arrow" d="M31.4855 157.602C31.3709 158.142 31.7161 158.673 32.2563 158.788C32.7966 158.902 33.3275 158.557 33.442 158.017L32.4638 157.81L31.4855 157.602ZM2.48191 0.0111751C1.93572 -0.0706609 1.42661 0.305771 1.34477 0.851959L0.0111749 9.75261C-0.0706611 10.2988 0.30577 10.8079 0.851958 10.8897C1.39815 10.9716 1.90726 10.5951 1.9891 10.049L3.17452 2.13727L11.0862 3.32269C11.6324 3.40453 12.1415 3.0281 12.2233 2.48191C12.3052 1.93572 11.9287 1.42661 11.3826 1.34477L2.48191 0.0111751ZM2.33373 1.00014L1.52965 1.59466C1.94024 2.14997 2.34725 2.7013 2.75071 3.24872L3.5557 2.65543L4.36069 2.06214C3.9566 1.51386 3.54898 0.961711 3.13781 0.405612L2.33373 1.00014ZM5.93601 5.89633L5.12899 6.48686C5.93447 7.58762 6.72492 8.67222 7.50055 9.74129L8.30996 9.15405L9.11937 8.56681C8.34205 7.49539 7.54999 6.40859 6.74302 5.3058L5.93601 5.89633ZM10.6549 12.402L9.84266 12.9854C10.6424 14.0989 11.4253 15.1952 12.1916 16.2751L13.0071 15.6964L13.8226 15.1177C13.054 14.0345 12.2689 12.9351 11.4671 11.8187L10.6549 12.402ZM15.2963 18.9447L14.477 19.518C15.2681 20.6487 16.0401 21.7611 16.7934 22.8563L17.6173 22.2896L18.4412 21.7229C17.6847 20.6231 16.9097 19.5062 16.1157 18.3714L15.2963 18.9447ZM19.8765 25.6063L19.0474 26.1653C19.8067 27.2916 20.5453 28.3995 21.2633 29.4901L22.0985 28.9401L22.9338 28.3902C22.2114 27.2932 21.4689 26.1792 20.7057 25.0472L19.8765 25.6063ZM24.3043 32.3368L23.462 32.8759C24.1963 34.0234 24.9069 35.1518 25.5941 36.2625L26.4445 35.7364L27.2949 35.2102C26.602 34.0903 25.8861 32.9533 25.1466 31.7978L24.3043 32.3368ZM28.5182 39.1538L27.6586 39.6647C28.3584 40.842 29.0308 42 29.6766 43.1405L30.5468 42.6478L31.417 42.1551C30.7639 41.0016 30.0844 39.8315 29.3779 38.6429L28.5182 39.1538ZM32.4918 46.1816L31.6097 46.6527C32.2509 47.8533 32.8614 49.0358 33.4421 50.2025L34.3373 49.7569L35.2326 49.3114C34.6429 48.1266 34.0236 46.9272 33.3739 45.7105L32.4918 46.1816ZM36.0696 53.3837L35.1601 53.7993C35.7228 55.0307 36.2514 56.2466 36.7471 57.4501L37.6718 57.0693L38.5964 56.6884C38.0907 55.4605 37.5519 54.2214 36.9791 52.9681L36.0696 53.3837ZM39.1244 60.8176L38.1843 61.1586C38.643 62.4231 39.0652 63.6774 39.4522 64.9251L40.4073 64.6289L41.3624 64.3327C40.9658 63.054 40.5336 61.7699 40.0645 60.4767L39.1244 60.8176ZM41.5019 68.4992L40.5329 68.7466C40.8626 70.0376 41.1555 71.3262 41.4131 72.6169L42.3938 72.4211L43.3744 72.2253C43.1098 70.8999 42.8091 69.5768 42.4708 68.2518L41.5019 68.4992ZM43.0754 76.3845L42.0857 76.5277C42.2746 77.8333 42.4293 79.1458 42.5512 80.4697L43.547 80.378L44.5428 80.2863C44.4178 78.9287 44.259 77.5818 44.0651 76.2413L43.0754 76.3845ZM43.817 84.3901L42.8179 84.4333C42.8745 85.7424 42.9015 87.0666 42.9001 88.4099L43.9001 88.4109L44.9001 88.4119C44.9015 87.0404 44.874 85.6868 44.8161 84.3469L43.817 84.3901ZM43.8157 92.4328L42.8165 92.3928C42.7641 93.6993 42.6875 95.0264 42.5876 96.3775L43.5849 96.4512L44.5821 96.525C44.6836 95.1528 44.7615 93.8032 44.8149 92.4729L43.8157 92.4328ZM43.2288 100.465L42.234 100.363C42.1002 101.666 41.9471 102.993 41.7755 104.346L42.7675 104.471L43.7596 104.597C43.933 103.23 44.088 101.887 44.2236 100.567L43.2288 100.465ZM42.2232 108.443L41.2338 108.298C41.0444 109.59 40.8402 110.905 40.6216 112.247L41.6086 112.408L42.5956 112.569C42.8157 111.217 43.0216 109.891 43.2126 108.589L42.2232 108.443ZM40.9361 116.373L39.9512 116.2C39.7231 117.497 39.4832 118.818 39.232 120.166L40.2151 120.349L41.1981 120.532C41.4504 119.179 41.6915 117.851 41.921 116.547L40.9361 116.373ZM39.4616 124.301L38.48 124.11C38.2303 125.394 37.9716 126.701 37.7043 128.032L38.6847 128.229L39.6652 128.426C39.9332 127.091 40.1927 125.78 40.4432 124.492L39.4616 124.301ZM37.8805 132.186L36.9009 131.984C36.6356 133.276 36.3631 134.589 36.0838 135.927L37.0627 136.131L38.0415 136.336C38.3212 134.996 38.5942 133.681 38.86 132.387L37.8805 132.186ZM36.2398 140.048L35.2614 139.841C34.9866 141.143 34.7061 142.467 34.42 143.813L35.3982 144.021L36.3763 144.228C36.6625 142.882 36.9433 141.557 37.2183 140.255L36.2398 140.048ZM34.5678 147.922L33.5898 147.714C33.3136 149.01 33.0328 150.327 32.7479 151.665L33.7259 151.873L34.704 152.081C34.989 150.743 35.2696 149.427 35.5459 148.131L34.5678 147.922ZM32.8902 155.8L31.912 155.593C31.7708 156.257 31.6286 156.927 31.4855 157.602L32.4638 157.81L33.442 158.017C33.585 157.342 33.7272 156.673 33.8684 156.008L32.8902 155.8Z" fill="var(--stroke-0, #280F31)"/>
</svg>
