<svg width="1281" height="781" viewBox="0 0 1281 781" fill="none" xmlns="http://www.w3.org/2000/svg">
<path d="M494.38 434.119C484.477 439.969 464.63 450.616 453.884 456.506C453.687 456.614 453.489 456.723 453.291 456.831C450.732 458.23 448.312 459.576 445.468 461.164C438.745 464.933 429.611 469.999 410.643 480.659C405.172 483.852 399.71 487.062 394.273 490.282C337.423 526.136 271.161 558.805 234.864 612.245C234.596 612.923 234.365 613.59 234.172 614.236C234.156 614.288 234.141 614.341 234.126 614.393C228.578 629.24 242.776 645.903 252.907 653.192C265.93 663.132 276.402 667.929 284.799 671.951C334.015 693.007 388.468 704.493 442.07 705.394C450.361 705.268 458.911 704.82 466.187 702.599C474.149 700.041 481.788 696.513 488.584 691.846C500.914 683.573 510.775 669.997 508.637 655.576C507.465 647.33 502.979 640.127 497.995 634.451C490.841 626.373 482.666 620.755 475.81 616.439C475.743 616.397 475.676 616.355 475.608 616.313C460.177 606.61 436.622 614.212 421.767 620.1C419.16 621.144 416.905 622.105 414.719 623.072C402.679 628.589 391.003 635.07 379.504 641.896C378.724 642.309 377.935 642.728 377.131 643.157C367.033 648.553 355.096 655.967 336.562 668.078C328.484 673.35 319.139 679.532 308.095 686.731C300.942 691.39 297.221 693.556 294.096 695.379C293.183 695.91 292.328 696.407 291.469 696.915C288.521 698.661 285.596 700.695 282.046 703.128C277.504 706.238 271.959 710.01 264.351 714.289C239.858 727.988 228.845 733.28 220.147 737.29C217.743 738.38 215.205 739.443 212.843 740.318C205.811 742.945 195.637 745.573 186.646 745.321C185.567 745.297 184.535 745.255 183.555 745.198C176.413 744.98 161.542 742.978 151.754 736.804C148.065 734.655 143.366 731.043 138.972 725.876C134.385 720.561 130.256 713.678 126.456 706.283C117.313 687.457 112.052 678.488 105.765 673.899C104.023 672.569 102.27 671.552 100.44 670.754C96.9613 669.219 92.5586 668.339 87.6462 668.399C84.5437 668.424 81.3453 669.002 78.2315 670.077C68.8072 673.306 60.6441 680.79 55.1727 686.83C40.581 702.558 29.6891 722.066 20.1668 741.885C15.3031 752.106 10.8036 761.951 7.23392 769.292C3.70729 776.511 1.35752 780.658 0.47619 780.171C-0.521213 780.046 0.0404226 775.23 2.23773 767.392C4.47903 759.433 8.23182 749.065 13.0531 738.564C22.8753 717.494 33.9949 696.612 50.4547 679.147C59.8716 669.455 72.2308 660.021 87.6462 659.88C104.703 658.555 119.514 673.001 125.51 686.49C134.494 704.281 141.554 722.991 157.856 731.536C159.448 732.406 161.183 733.217 162.873 733.887C170.5 736.772 178.935 737.633 186.646 737.527C192.82 737.444 199.095 735.987 203.825 734.617C212.661 732.002 218.88 729.413 224.404 727.077C227.99 725.54 231.394 723.962 234.582 722.337C236.292 721.464 238.643 720.237 241.531 718.667C253.172 712.435 272.26 700.731 289.699 689.691C297.438 684.823 306.43 679.164 315.037 673.738C327.314 665.989 338.85 658.774 344.559 655.022C354.623 648.38 366.413 641.141 377.001 635.083C387.216 629.214 396.14 624.583 401.399 621.771C407.5 618.516 412.897 616.004 421.29 612.779C426.91 610.695 434.303 607.962 444.502 606.01C456.43 603.807 465.547 604.765 472.656 607.51C475.013 608.421 477.136 609.521 479.088 610.784C485.034 614.69 490.346 618.422 496.853 624.238C506.338 632.58 514.236 644.789 514.969 656.07C515.433 661.081 514.801 666.991 512.654 672.557C509.864 679.981 504.636 686.537 499.131 691.324C494.567 695.297 490.302 697.85 486.464 699.885C485.271 700.513 484.083 701.102 482.965 701.632C478.771 703.809 474.442 705.641 470.006 707.181C469.347 707.44 468.651 707.706 467.92 707.976C467.868 707.995 467.816 708.015 467.764 708.034C463.827 709.478 458.393 710.601 452.186 711.177C442.101 712.069 433.415 711.717 424.179 711.095C416.999 710.585 409.554 709.832 401.152 708.863C395.346 708.193 388.754 707.354 382.322 706.396C372.65 704.965 363.224 703.231 356.682 701.75C354.23 701.197 352.169 700.615 350.116 700.024C350.107 700.021 350.098 700.018 350.089 700.015C349.95 699.975 349.81 699.935 349.671 699.895C333.789 696.34 318.045 692.049 302.634 686.717C301.287 686.273 299.911 685.809 298.568 685.346C292.054 683.114 285.699 680.638 281.623 679.051C277.11 677.285 266.106 672.504 255.192 665.596C248.132 661.165 240.997 655.562 236.024 650.192C233.043 647.003 230.621 643.537 228.676 639.707C226.819 636.028 225.388 632.054 224.603 627.417C224.217 625.103 224.001 622.593 224.12 619.842C224.226 617.452 224.565 615.031 225.257 612.414C225.304 612.235 225.357 612.041 225.418 611.832C226.013 609.513 228.248 604.358 231.591 599.607C234.14 595.913 236.542 592.977 239.94 589.192C247.942 580.082 257.219 571.753 266.443 564.063C268.42 562.298 269.971 560.872 271.19 559.669C272.064 558.806 272.792 558.034 273.548 557.238C274.578 556.156 275.655 555.032 277.256 553.577C278.506 552.44 280.09 551.167 281.112 550.47C281.603 550.134 282 549.899 282.361 549.686C282.774 549.441 283.144 549.223 283.562 548.909C283.864 548.683 284.156 548.418 284.519 548.093C285.097 547.573 285.852 546.897 287.098 545.976C291.831 542.481 297.013 538.811 302.315 535.151C308.348 530.985 313.825 527.318 318.511 524.157C323.734 520.632 331.009 516.026 338.609 511.334C343.785 508.139 349.063 504.931 353.613 502.145C357.986 499.468 362.526 496.581 366.961 493.79C372.297 490.43 377.349 487.287 381.823 484.756C382.725 484.246 383.908 483.715 385.392 483.05C386.446 482.578 387.655 482.037 389.01 481.398C394.6 478.086 400.221 474.798 405.856 471.537C406.044 471.404 406.238 471.268 406.433 471.13C406.436 471.128 406.439 471.126 406.442 471.123C410.839 468.02 416.805 463.815 425.963 459.053C428.287 457.846 429.807 457.195 431.175 456.61C432.519 456.035 433.72 455.523 435.385 454.618C437.27 453.595 439.451 452.254 441.84 450.791C445.188 448.74 448.916 446.466 452.79 444.495C453.055 444.361 453.339 444.216 453.635 444.066C456.442 442.636 460.71 440.466 464.945 438.519C477.059 431.961 489.441 425.372 501.615 418.992C522.055 408.279 542.637 397.752 563.396 387.361C573.399 382.355 583.159 377.928 590.716 374.956C598.151 372.045 602.77 370.821 602.799 371.887C603.623 372.562 599.845 375.461 593.078 379.669C586.188 383.936 576.861 389.164 566.975 394.348C550.761 402.848 534.629 411.447 518.498 420.174C517.671 420.635 516.837 421.1 516.002 421.564C509.717 425.054 504.06 428.388 498.357 431.765C497.041 432.543 495.716 433.328 494.38 434.119Z" fill="#6E3997"/>
<path d="M597.812 360.889C608.667 353.128 629.845 338.9 641.494 330.808C641.705 330.662 641.916 330.516 642.127 330.37C644.858 328.482 647.439 326.668 650.471 324.525C657.738 319.357 667.468 312.547 687.604 297.895C693.407 293.539 699.177 289.155 704.915 284.737C765.551 236.596 830.113 186.612 865.879 118.649C866.292 117.746 866.699 116.831 867.095 115.911C871.467 105.905 875.005 93.4992 874.93 82.5752C874.988 74.6029 873.293 67.4075 870.991 62.097C863.592 45.7731 851.826 38.6692 843.12 33.309C802.554 11.838 754.127 8.43491 707.55 6.3837C692.224 5.89581 677.044 6.04727 662.09 7.63318C643.99 9.96323 620.518 13.2088 613.971 28.7119C610.921 43.8999 629.579 56.4647 644.24 63.9972C653.428 68.5023 662.717 71.6738 671.461 73.9764C681.108 76.5088 690.125 77.9686 698.077 78.8168C700.196 79.0419 702.293 79.2299 704.346 79.3891C726.86 81.1319 753.014 79.9041 772.169 78.6313C775.293 78.4218 778.304 78.203 781.062 77.9914C796.357 76.6573 811.591 75.0053 826.853 73.2158C827.88 73.1388 828.917 73.0618 829.972 72.983C843.038 72.0145 859.072 70.0705 884.292 66.9379C895.271 65.5804 908.02 63.9942 923.018 62.2661C932.726 61.1509 937.686 60.8052 941.789 60.5171C942.99 60.4334 944.115 60.356 945.251 60.2694C949.112 59.976 953.273 59.3937 958.078 58.7397C964.343 57.8915 971.842 56.8922 981.909 56.2656C1013.86 54.3434 1027.92 53.7708 1038.66 53.3288C1041.76 53.2179 1044.64 53.1493 1047.58 53.1599C1054.23 53.1703 1063.44 53.6726 1071.53 54.7447C1074.98 55.192 1077.93 55.723 1080.79 56.363C1088.69 57.8979 1105.73 63.1369 1114.07 74.0598C1117.29 77.8691 1120.67 83.95 1122.7 91.407C1124.88 99.1125 1125.73 108.133 1126.72 117.397C1128.47 141.157 1136.13 150.101 1144.23 153.739C1146.62 154.89 1148.75 155.614 1151.25 156.272C1156.5 157.634 1162.93 158.286 1170.15 158.23C1173.22 158.206 1176.17 158.043 1179.24 157.712C1191.38 156.488 1203 152.149 1211.08 147.429C1232.43 135.701 1248.25 115.18 1259.51 93.0503C1265.37 81.586 1270.08 70.1076 1273.48 61.6479C1276.91 53.1045 1278.87 48.1409 1279.81 48.5051C1280.8 48.5354 1280.68 54.0413 1278.58 63.2415C1276.51 72.3494 1272.48 84.5582 1266.53 96.5691C1254.69 120.478 1237.55 143.397 1212.87 156.362C1199.77 163.269 1184.97 166.76 1170.15 166.761C1152.52 167.601 1127.5 160.6 1122.53 139.381C1115.98 116.274 1120.76 91.9395 1106.35 76.7732C1104.94 75.2621 1103.41 73.9067 1101.73 72.6498C1092.79 66.194 1080.81 63.7157 1070.62 62.6532C1065.13 62.0833 1059.78 61.7646 1055.21 61.5762C1044.43 61.1542 1036.46 61.1241 1029.67 61.1363C1025.04 61.155 1020.79 61.2347 1016.66 61.4248C1014.44 61.5269 1011.23 61.6952 1007.61 61.9194C992.5 62.7925 966.702 65.1678 943.265 67.5608C932.809 68.6068 920.738 69.8147 909.144 71.0198C892.6 72.7401 877.163 74.4016 869.399 75.4334C855.764 77.2541 840.052 79.0336 826.168 80.4807C812.959 81.8653 801.281 82.9459 794.744 83.7209C786.843 84.6546 780.086 85.1724 770.095 85.771C763.065 86.1778 754.549 86.6432 742.891 86.9792C729.458 87.3434 719.881 87.041 711.751 86.5256C706.64 86.1946 701.862 85.747 697.345 85.2002C691.688 84.5081 686 83.6536 679.103 82.2835C665.017 79.5161 650.715 74.5322 640.189 68.9327C635.389 66.4035 630.022 63.2576 624.803 59.2674C618.03 54.0297 611.058 47.227 608.341 38.4463C605.976 31.0982 608.704 23.9864 612.287 20.1216C613.445 18.7912 614.549 17.7874 615.741 16.8194C620.046 13.1465 625.212 10.6629 630.157 8.79605C630.964 8.46069 631.838 8.11365 632.781 7.76077C637.221 6.09015 642.838 4.39279 650.142 3.02884C661.602 0.940796 671.22 0.374786 682.019 0.0942688C689.839 -0.0763855 698.021 -0.00979614 707.729 0.244385C708.005 0.251709 708.282 0.259125 708.559 0.266602C715.377 0.450287 722.722 0.684387 730.31 1.06992C741.365 1.61557 752.52 2.54086 759.941 3.48218C762.869 3.84738 765.312 4.27551 767.685 4.71124C767.695 4.71338 767.706 4.71548 767.716 4.71762C767.877 4.74722 768.038 4.77679 768.199 4.80649C786.611 7.20831 805.11 10.675 822.999 16.6747C824.465 17.1451 826.171 17.7238 827.69 18.2622C835.267 20.923 842.289 24.1355 846.958 26.5437C851.827 29.0756 864.543 36.1485 873.61 48.8331C879.598 56.9962 883.011 67.3548 883.861 75.8023C884.124 78.1048 884.213 80.3812 884.18 82.5752C884.143 85.0681 883.94 87.5594 883.602 90.102C882.992 94.6431 882.042 98.9275 880.775 103.71C880.151 106.068 879.322 108.883 878.488 111.387C877.724 113.687 876.829 116.135 875.767 118.708C874.739 121.195 872.457 126.183 868.887 132.516C866.611 136.56 864.085 140.691 861.168 145.126C853.544 157.063 845.196 167.942 836.185 178.623C834.331 180.962 832.821 182.902 831.662 184.488C830.828 185.627 830.143 186.629 829.432 187.659C828.463 189.06 827.451 190.512 825.928 192.431C824.739 193.93 823.232 195.628 822.14 196.703C821.629 197.207 821.225 197.56 820.866 197.873C820.452 198.234 820.081 198.556 819.67 198.99C819.374 199.303 819.091 199.654 818.741 200.084C818.181 200.773 817.452 201.668 816.229 202.934C811.69 207.637 806.23 213.04 801.033 218.009C795.173 223.622 789.235 229.094 784.633 233.32C779.42 238.117 771.739 244.769 764.001 251.225C758.56 255.774 753.103 260.231 748.423 264.053C743.837 267.799 739.044 271.803 734.457 275.583C728.929 280.139 723.543 284.497 718.84 288.009C717.89 288.718 716.636 289.504 715.061 290.487C713.944 291.184 712.659 291.985 711.215 292.92C705.303 297.471 699.351 301.976 693.362 306.44C693.164 306.614 692.959 306.793 692.754 306.973C692.751 306.975 692.747 306.979 692.744 306.981C688.125 311.026 681.776 316.555 671.993 323.161C669.512 324.835 667.882 325.783 666.414 326.636C664.972 327.473 663.693 328.213 661.879 329.472C659.829 330.895 657.493 332.681 654.952 334.613C651.368 337.338 647.465 340.291 643.213 343.066C642.923 343.255 642.612 343.458 642.287 343.67C639.213 345.677 634.678 348.62 630.115 351.35C616.945 360.294 603.589 369.137 590.42 377.665C568.237 392.032 545.611 406.16 522.937 419.833C511.85 426.518 501.285 432.343 492.86 436.487C484.632 440.516 479.486 442.386 479.473 441.274C478.523 440.702 482.713 437.221 490.173 431.952C497.832 426.569 507.888 419.988 518.828 413.142C536.579 402.039 554.207 390.705 571.769 379.126C572.659 378.525 573.558 377.918 574.456 377.312C581.147 372.798 587.506 368.29 593.548 363.951C594.959 362.939 596.38 361.918 597.812 360.889Z" fill="#6E3997"/>
</svg>
