<svg preserveAspectRatio="none" width="100%" height="100%" overflow="visible" style="display: block;" viewBox="0 0 630 749" fill="none" xmlns="http://www.w3.org/2000/svg">
<path id="cutout" d="M630 749H312.5C342.273 749 368.36 677.409 382.867 570.082C460.669 638.521 524.656 672.167 546.597 650.39C569.743 627.416 540.05 548.758 477.007 452.198C568.669 436.462 630 407.778 630 375C630 342.152 568.407 313.415 476.419 297.7C539.865 200.73 569.815 121.656 546.597 98.6104C524.656 76.833 460.669 110.478 382.867 178.916C368.36 71.5898 342.272 0 312.5 0C282.711 0 256.611 71.6679 242.108 179.092C164.217 110.536 100.139 76.8146 78.1797 98.6104C54.8965 121.72 85.0782 201.174 148.891 298.517C59.5051 314.398 0 342.713 0 375C0 407.216 59.2447 435.478 148.304 451.379C84.8933 548.313 54.9673 627.35 78.1787 650.39C100.138 672.186 164.216 638.463 242.108 569.906C256.611 677.331 282.711 749 312.5 749H0V0H630V749Z" fill="var(--fill-0, #FFD700)"/>
</svg>
