<svg preserveAspectRatio="none" width="100%" height="100%" overflow="visible" style="display: block;" viewBox="0 0 24.5225 24.7354" fill="none" xmlns="http://www.w3.org/2000/svg">
<g id="doodle bullets">
<path d="M5.94516 1.09244C8.52987 1.05097 11.1137 7.29909 11.1137 7.29909C11.1137 7.29909 16.0139 -0.00845408 19.6417 1.09244C22.7226 2.02735 23.7766 4.17954 23.7766 8.85067C23.7766 15.0573 13.9564 23.9795 13.9564 23.9795C13.9564 23.9795 0.776335 18.8735 0.776641 9.23867C0.776752 5.74734 1.55181 1.16292 5.94516 1.09244Z" fill="var(--fill-0, #FFD700)"/>
<path d="M10.3039 7.63415C10.0176 7.23161 9.75705 6.78686 9.56295 6.30153C9.51957 6.19323 9.59746 6.16517 9.587 6.11572C9.56697 6.02299 9.4189 5.93235 9.40905 5.91393C9.34667 5.79895 9.49745 5.77594 9.49407 5.75775C9.45142 5.55513 9.33563 5.68561 9.2307 5.52769C9.09565 5.32587 8.96485 5.03935 8.82025 4.78733C8.76959 4.69879 8.8868 4.67838 8.76165 4.49654C8.67271 4.36475 8.30683 4.0393 8.28768 3.78755C8.32787 3.75709 8.38919 3.74711 8.43836 3.72648C8.08225 3.59334 8.02956 3.50081 7.79175 3.13434C7.75351 3.07682 7.64755 3.08539 7.59189 2.97577C7.53594 2.86765 7.63232 2.77174 7.46219 2.60213C7.40209 2.54403 7.3005 2.5755 7.20604 2.49505C6.94468 2.25366 6.47643 1.8271 6.25642 1.787C6.13834 1.75314 6.04001 1.75428 5.95604 1.7707C5.60511 1.81896 5.35873 1.91584 5.0002 1.95219C4.96245 1.95659 5.02136 1.83782 4.95254 1.85137C4.87973 1.86598 4.84292 2.01702 4.82812 2.02449C4.66538 2.09894 4.23592 2.07406 4.15156 2.1457C3.95437 2.30957 4.19332 2.24349 3.91789 2.43532C3.66485 2.61578 3.21044 2.77824 2.96143 3.02578C2.67444 3.31381 2.8285 3.55902 2.44184 3.68286C1.91379 4.63818 1.64422 5.76993 1.50879 6.91276C1.45602 6.90263 1.40332 6.89193 1.35065 6.88107C1.37555 6.97736 1.40145 7.0732 1.4278 7.16838C1.38966 7.1502 1.35143 7.13262 1.31375 7.11429C1.41852 7.56328 1.46881 7.94715 1.40703 8.45084C1.40586 8.46071 1.29999 8.43072 1.29693 8.43881C1.27246 8.55235 1.35109 8.68348 1.32971 8.78336C1.29874 8.92663 1.20235 9.13613 1.19223 9.23868C1.18543 9.30795 1.21663 9.32971 1.3307 9.25735C1.27063 9.81747 1.42671 10.453 1.46609 10.9752C1.4834 11.2039 1.3336 11.3057 1.34756 11.4167C1.36228 11.5271 1.49164 11.4399 1.50569 11.4766C1.58694 11.6955 1.68615 12.067 1.5435 12.1529C1.61933 12.18 1.69678 12.2085 1.77328 12.2342C1.58778 12.2613 1.89554 12.9301 1.96955 13.1045C1.98192 13.1371 1.91073 13.1716 1.92158 13.1958C2.0453 13.4647 2.18907 13.4805 2.33253 13.6883C2.38379 13.761 2.19835 13.699 2.35207 13.876C2.36606 13.8911 2.4712 13.827 2.59408 14.065C2.78756 14.4483 3.25582 15.1206 3.50736 15.5715C3.528 15.6088 3.34174 15.5828 3.48058 15.7221C3.531 15.7723 3.58916 15.6887 3.69021 15.8242C4.08249 16.3471 4.45648 16.9589 4.99055 17.3852C4.89478 17.443 4.63807 17.3512 4.93944 17.568C4.98797 17.6021 5.02809 17.5031 5.04875 17.5193C5.21497 17.6505 5.29399 17.8287 5.48452 17.9617C5.54084 18.0006 5.60605 17.957 5.67899 18.0017C5.78679 18.0671 5.75171 18.1843 5.8884 18.2478C6.10385 18.3469 6.19729 18.2924 6.27132 18.6293C7.46953 19.6657 8.79906 20.5394 10.1081 21.4356C10.5366 21.6263 10.9324 21.7793 11.3622 21.9895C11.4899 22.0518 11.449 22.1878 11.6639 22.2503C11.7134 22.2658 12.1055 22.3026 12.0201 22.5733C12.1157 22.5951 12.1776 22.6256 12.2624 22.6516C12.2228 22.5856 12.1736 22.514 12.1419 22.4512C12.4501 22.6587 12.7633 22.7016 13.0609 22.7904C13.2978 22.8635 13.0905 22.8993 13.2275 22.9496C13.3556 22.9957 13.4373 23.0033 13.5388 23.2061C13.7283 23.1081 13.7674 23.2535 14.0096 23.3593C14.0142 23.3616 14.1245 23.3759 14.1871 23.384L13.527 23.5068C13.5504 23.4754 13.5726 23.4492 13.6178 23.413C13.6842 23.364 13.7988 23.3987 13.8864 23.2938C13.9058 23.2725 14.0498 22.9578 14.1258 22.8675C14.2192 22.7516 14.5132 22.6492 14.5302 22.6345C14.8813 22.3206 14.9106 22.1037 15.2907 22.0247C15.2437 21.8896 15.3879 21.6344 15.5449 21.4887C15.755 21.2938 16.3242 21.0706 16.177 20.8213C16.4829 20.6727 16.4066 20.6437 16.6635 20.3581C16.8938 20.1043 17.5917 19.4718 17.7578 19.2506C17.9303 19.0255 17.7233 19.0306 17.7805 18.9314C17.8737 18.7682 17.8966 18.9173 17.9755 18.821C18.1978 18.5484 18.3796 18.2926 18.551 18C18.6246 18.0358 18.6995 18.0707 18.7736 18.1057C18.7639 18.0754 18.754 18.0451 18.7442 18.0147C18.7905 17.9581 18.8403 17.8928 18.8843 17.8409C18.2556 18.0699 19.2454 17.4289 19.4533 17.1615C19.6302 16.9401 19.7756 16.4615 19.9238 16.1895C19.9599 16.1233 20.0005 16.2152 20.0078 16.2015C20.0921 16.0392 20.0598 15.9832 20.2043 15.7879C20.2805 15.6848 20.4436 15.6368 20.5149 15.5337C21.0387 14.7755 21.4047 13.9609 21.804 13.1577C21.8719 13.0208 22.047 12.9647 22.107 12.8472C22.1914 12.6812 22.1423 12.5306 22.2103 12.375C22.2778 12.2215 22.4942 12.04 22.5185 11.9256C22.5432 11.8115 22.3547 11.9473 22.4635 11.7656C22.5131 11.682 22.5381 11.874 22.584 11.7641C22.7316 11.4126 22.7862 10.8811 22.9871 10.534C22.956 10.5438 22.9259 10.5601 22.8949 10.5735C23.0097 10.1731 23.1454 9.82505 23.1966 9.40763C23.216 9.25799 23.1475 8.99018 23.1464 8.8532C23.1464 8.85235 23.1464 8.85151 23.1464 8.85067C23.1478 8.69576 23.2348 8.6251 23.2359 8.50286C23.2365 8.4525 23.1573 8.47323 23.1584 8.43964C23.172 8.01014 23.3063 7.77694 23.2629 7.32894C23.1006 5.72109 22.7363 4.01898 21.6919 2.9871C21.6502 2.94549 21.5488 2.98891 21.4795 2.94217C21.3719 2.87107 21.4278 2.80063 21.4172 2.7862C21.3453 2.69583 21.3252 2.78902 21.2094 2.69408C20.9589 2.48261 20.5165 2.13949 20.1817 2.00859C19.9336 1.90676 19.6862 1.83212 19.4355 1.77206C19.0342 1.68499 18.6321 1.74164 18.1743 1.89271C18.1249 1.90983 18.1256 1.78166 18.0357 1.80677C17.3962 2.01617 17.3093 2.18475 16.5426 2.63802C15.767 3.08996 14.4078 4.25934 13.6636 5.09379C13.6634 5.0936 13.6632 5.09341 13.663 5.09322C13.5965 5.5075 13.2679 5.80592 12.8939 5.99426C13.8568 3.97864 15.5447 2.45368 17.6041 1.54716C18.2333 1.29496 18.9107 1.14252 19.5804 1.29446C21.3383 1.59569 23.0319 2.95476 23.4112 4.7912C23.47 5.02439 23.3666 5.15027 23.4354 5.33705C23.447 5.36945 23.5257 5.26178 23.5576 5.36292C23.8991 6.47235 23.8374 7.70309 23.8154 8.85067C23.8096 9.14664 23.7871 9.45021 23.7611 9.73778C23.7221 10.1217 23.8185 10.1963 23.7717 10.5388C23.7343 10.468 23.6893 10.4179 23.6486 10.3564C23.1602 11.8132 22.5658 13.2098 21.765 14.5338C21.7287 14.5928 21.6309 14.5451 21.5904 14.6052C21.5089 14.725 21.5381 14.9063 21.4739 15.0175C21.3902 15.1621 21.3022 15.1396 21.2249 15.2717C21.1871 15.336 21.2692 15.3621 21.1688 15.4913C21.1604 15.5021 21.0827 15.4622 21.0328 15.5589C20.898 15.824 20.6152 16.3653 20.4892 16.5782C20.3299 16.851 20.0747 16.9766 19.9973 17.067C19.7881 17.3105 19.8996 17.3851 19.7353 17.6017C18.5597 19.1402 17.2249 20.4333 15.8567 21.8604C15.7761 21.945 15.5577 22.384 15.3913 22.5427C15.3316 22.6002 15.0257 22.8502 14.9755 22.8948C14.7992 23.0518 14.5716 23.1473 14.4715 23.2177C14.2448 23.3856 14.1535 23.6663 14.0444 23.7873C14.0169 23.821 13.952 23.886 13.9092 23.9275L13.9817 23.914C13.7629 23.8341 13.5225 23.7166 13.4372 23.6762C13.2185 23.5698 13.3637 23.4432 13.1744 23.4023C13.123 23.3921 13.1196 23.5381 12.9499 23.4598C12.8031 23.3911 12.7853 23.271 12.7003 23.2104C12.6165 23.1507 12.3526 23.1955 12.3028 23.1664C11.9996 22.992 11.907 22.8306 11.5655 22.6453C11.286 22.5039 9.97257 21.8352 9.8463 21.792C9.29389 21.6476 10.1162 22.0621 10.1588 22.0903C10.3795 22.2563 10.3172 22.293 10.6204 22.3274C10.6491 22.7734 11.7005 22.6848 11.6934 23.1718C12.0274 23.0141 12.142 23.2368 12.3301 23.3941C12.6049 23.6175 12.4461 23.3516 12.6635 23.4541C12.7473 23.4939 12.9497 23.7349 13.091 23.778C13.2424 23.8257 13.3149 23.7467 13.5124 23.8263C13.6502 23.8803 13.8293 23.9653 13.9352 24.0341L13.9673 24.0475L13.9958 24.0229C14.1072 23.9561 14.2696 23.8622 14.4017 23.8216C14.402 23.747 14.4074 23.6672 14.4077 23.5923C14.5851 23.5033 14.7739 23.401 14.9619 23.2976C14.9046 23.2876 14.8475 23.2769 14.7912 23.2659C14.8283 23.2202 14.8719 23.1684 14.9073 23.1246C15.087 23.0476 15.2812 22.9474 15.4672 22.8646C15.6689 22.2736 15.7101 22.567 15.9548 22.3674C16.1935 22.1725 16.1996 21.9375 16.3628 21.7644C16.5734 21.5402 16.6691 21.4091 16.8878 21.1892C17.0169 21.0592 17.3461 20.9242 16.9908 20.9551C17.3643 20.52 17.8416 19.8772 18.2457 19.5525C18.3666 19.4546 18.2923 19.6592 18.3164 19.6455C18.4345 19.576 18.4127 19.4109 18.5117 19.3207C18.6747 19.1733 19.0284 18.8952 19.154 18.7753C19.3378 18.6015 19.4612 18.1878 19.4753 18.1504C19.5631 17.9333 19.7047 17.9664 19.742 17.9032C19.9535 17.5409 19.9604 17.4364 20.2635 17.4988C20.232 17.3399 20.3323 16.8585 20.5601 16.8891C20.4127 16.7796 20.654 16.4952 20.7459 16.2805C20.8138 16.2759 20.8819 16.2703 20.9503 16.2654C20.9506 15.6883 21.6645 15.0255 22.0124 14.4964C22.0211 14.483 21.9161 14.3895 21.9901 14.3228C21.9953 14.3189 22.0443 14.3581 22.0828 14.3067C22.2115 14.1415 22.725 13.5021 22.764 13.4177C22.9202 13.1139 22.8526 13.0124 22.9299 12.8216C23.0289 12.5707 23.1312 12.5682 23.2194 12.3217C23.2605 12.2054 23.1873 12.0608 23.2712 11.8874C23.3206 11.784 23.4145 11.8063 23.4525 11.7234C23.5861 11.4297 23.5994 11.1856 23.7966 10.9421C23.522 10.7893 23.773 10.7212 23.8293 10.5829C24.0497 10.0626 24.0269 9.34272 24.0359 8.85067C24.0365 8.8298 24.0374 8.80933 24.0385 8.78927C24.1112 7.27251 24.242 5.88008 23.8102 4.34112C23.7349 4.09269 23.5698 4.08573 23.4778 3.83509C23.4348 3.72174 23.4862 3.56118 23.3954 3.37731C23.3231 3.23 23.1586 3.05213 23.0469 2.88175C23.0173 2.8368 23.1011 2.77438 23.0552 2.70607C22.7059 2.18899 22.2058 1.79955 21.6745 1.49768C21.4793 1.38683 21.4274 1.19932 21.337 1.42411C21.2959 1.33051 21.2493 1.24472 21.2054 1.15454C20.8648 1.14273 20.7097 0.894005 20.3092 0.782974C20.2649 0.770093 19.9263 0.825882 19.7964 0.66261C19.7596 0.740757 19.764 0.818017 19.7364 0.890533C19.726 0.889418 19.7153 0.887746 19.7045 0.885579C19.534 0.848173 19.3093 0.720102 19.1942 0.70008C19.0733 0.677169 18.9876 0.785991 18.9533 0.785911C18.8211 0.786063 18.8505 0.64183 18.8402 0.639031C18.1839 0.530392 18.237 0.63251 17.9328 0.924364C17.8572 0.990353 17.2147 1.05207 17.1734 1.27091C17.1391 1.20898 17.1453 1.1381 17.1273 1.07243C16.9435 1.13434 16.7696 1.20066 16.5915 1.27761C16.6593 1.31762 16.7343 1.35435 16.7978 1.39798C16.4339 1.52414 16.2541 1.82813 16.0012 1.99525C15.8581 2.09066 15.7884 1.95746 15.7237 2.04414C15.7112 2.06122 15.798 2.12311 15.7548 2.16462C15.4076 2.50409 15.179 2.55357 14.7989 2.85685C14.6216 3.00046 14.5999 3.26777 14.2835 3.40327C14.2545 3.41477 13.9098 3.52219 13.9386 3.82733C13.8421 3.82012 13.7757 3.83263 13.6985 3.82302C13.6743 4.35036 13.5033 4.0324 13.0773 4.37944C12.8558 4.5555 12.2886 5.31529 12.1316 5.57621C12.0347 5.73279 12.1455 5.81348 12.1299 5.84182C12.036 6.01115 11.9286 5.9339 11.8402 6.08324C11.7453 6.24134 11.7284 6.51157 11.6137 6.64349C11.5199 6.75281 11.4504 6.56947 11.3794 6.76389C11.3651 6.80478 11.5486 6.78871 11.375 6.93581C11.353 6.95078 11.0252 7.15326 10.9588 7.19525C10.9859 6.99577 11.2081 6.49212 11.3022 6.30869C11.8711 5.18835 12.8283 3.76829 14.1726 2.43158C15.4986 1.19929 17.3549 -0.494103 19.9319 0.136188C21.4626 0.551891 22.8838 1.61531 23.4982 2.73383C23.7071 3.08612 23.6882 3.3868 23.7767 3.61882C23.863 3.85611 23.9038 3.60942 23.9785 3.82579C24.0514 4.04627 24.0152 4.23066 24.0678 4.43121C24.4125 5.79186 24.435 7.12356 24.4342 8.41303C24.4334 8.56777 24.4564 8.71007 24.4807 8.85067C24.5078 9.01804 24.5317 9.1836 24.5189 9.35968C24.5089 9.48931 24.3707 9.48196 24.3633 9.56914C24.2725 10.5226 24.1517 11.4072 23.801 12.2702C23.6554 12.6253 23.3824 12.9583 23.2113 13.2906C23.0685 13.568 22.9965 13.8829 22.8649 14.1315C22.7947 14.2646 22.6647 14.2823 22.6314 14.3256C22.5162 14.4763 22.6599 14.4816 22.6124 14.5658C22.4795 14.7986 22.2797 14.833 22.1631 15.0507C22.1171 15.1362 22.2081 15.1767 22.1471 15.3057C22.0692 15.469 22.0263 15.3651 21.9562 15.4712C21.9518 15.4775 22.0249 15.4937 21.9913 15.5526C21.7754 15.9318 21.5189 16.4173 21.274 16.7597C20.7688 17.4689 20.1438 18.0697 19.623 18.6799C19.4911 18.8347 19.5964 18.85 19.5595 18.903C19.3818 19.1565 19.225 19.1744 19.0484 19.4491C19.0184 19.4954 18.9798 19.7405 18.8179 19.8813C18.7315 19.9564 18.5884 20.0015 18.5126 20.0612C18.4366 20.121 18.5162 20.208 18.4408 20.2951C18.3023 20.455 18.2811 20.3564 18.0953 20.5895C18.0236 20.6797 17.8323 21.0617 17.6217 21.2802C17.2641 21.6534 16.7736 22.0305 16.3522 22.4644C16.2106 22.6099 16.1147 22.881 15.8878 23.1114C15.6217 23.3834 15.0887 23.8692 14.7933 24.1458C14.6475 24.2829 14.5465 24.2044 14.5247 24.2178C14.393 24.2928 14.5264 24.3608 14.4476 24.4261C14.4407 24.4309 14.3974 24.4658 14.3944 24.4616L14.0774 24.7354L13.7211 24.5869C13.6227 24.5184 13.5468 24.4057 13.4353 24.3522C13.3603 24.3156 13.3117 24.4074 13.2942 24.4008C12.6441 24.1565 12.1294 23.899 11.5244 23.6031C8.33873 22.0221 5.19052 20.0102 2.9229 17.0954C2.73573 16.8503 2.8328 16.7613 2.65561 16.5584C2.48073 16.3561 2.09582 16.2979 2.23055 15.9381C2.17425 15.9671 2.13733 15.9925 2.08566 16.0183C1.84768 15.5014 1.48368 15.064 1.22044 14.5701C1.02707 14.2071 0.88459 13.8658 0.749612 13.5094C0.631976 13.1904 0.746701 13.1822 0.514103 12.951C0.179545 11.7442 -0.0388309 10.4793 0.0529002 9.23865C0.0681937 9.03744 0.088768 8.83379 0.115722 8.63251C-0.109381 8.2999 0.0509562 7.98626 0.121536 7.53771C0.130623 7.48199 0.0399508 7.53504 0.0618782 7.36913C0.0906034 7.16007 0.229608 7.0658 0.267308 6.71502C0.27345 6.62414 0.239052 5.90812 0.371085 5.66645C0.496397 5.42574 0.629274 5.07084 0.775524 4.83186C0.710867 4.85263 0.645697 4.88471 0.580718 4.91146C0.60879 4.77682 0.639609 4.64353 0.673689 4.50874C0.743941 4.5107 0.814181 4.51308 0.884431 4.51671C0.84863 4.42182 0.814874 4.32643 0.781743 4.22786C1.16811 4.18457 0.993758 4.31341 1.05692 3.9238C1.09224 3.72733 1.21109 3.61252 1.27003 3.41773C1.29126 3.34758 1.22239 3.25928 1.25026 3.18049C1.32021 2.98922 1.38546 3.1602 1.44568 3.05388C1.50572 2.94892 1.47011 2.7108 1.65829 2.56293C1.7483 2.90669 2.06159 2.32394 1.93173 2.16216C1.98498 2.09855 2.03731 2.05231 2.0953 1.98052C2.43554 2.40376 2.43565 1.84639 2.52671 1.67446C2.60934 1.50513 2.69811 1.62255 2.72472 1.59306C2.80448 1.50934 2.70166 1.51404 2.76467 1.46239C3.18956 1.12101 3.69051 0.958889 4.18244 0.800599C4.25452 0.777756 4.16465 0.721089 4.2524 0.701188C4.33923 0.682285 4.44059 0.736853 4.56369 0.699439C4.59686 0.68959 4.59019 0.617062 4.64391 0.604285C5.07796 0.503959 5.508 0.468926 5.93525 0.474416C6.78052 0.491063 7.41074 0.925844 7.93078 1.36012C8.01043 1.42854 8.15318 1.38128 8.298 1.52368C8.44001 1.66326 8.56067 1.95519 8.70889 2.13926C8.74789 2.18763 8.8395 2.13067 8.89146 2.19622C9.06876 2.42143 9.14784 2.66398 9.30624 2.90368C9.57341 3.30884 9.90359 3.69657 10.1004 4.14561C10.1373 4.22976 10.0543 4.26359 10.0998 4.38992C10.177 4.60739 10.2454 4.46862 10.2836 4.49967C10.4083 4.60424 10.282 4.73059 10.3906 4.8343C10.4075 4.85077 10.481 4.77292 10.4923 4.78995C10.6592 5.05592 10.456 5.18277 10.7211 5.41182C10.7345 5.73602 10.468 5.32415 10.3797 5.316C10.1668 5.29408 10.1312 5.6691 10.157 5.86703C10.1769 6.03232 10.2762 5.98465 10.305 6.04146C10.4587 6.34406 10.6892 6.78247 10.748 7.04392C10.7826 7.19821 10.6249 6.959 10.6249 7.04757C10.6265 7.13933 10.7189 7.14275 10.6703 7.25774C10.6191 7.366 10.4358 7.61854 10.3039 7.63415ZM4.59245 17.3626C3.9162 17.2909 3.05488 16.1683 2.69516 15.5157C2.38036 14.9769 2.42797 14.3503 2.06274 14.6976C2.39033 15.2877 2.72874 15.7182 3.13938 16.2965C3.18081 16.3572 3.41534 16.7341 3.50747 16.8574C3.55864 16.9272 3.49823 16.9804 3.57438 17.0708C3.59111 17.0904 3.76311 17.1317 3.79465 17.1727C3.90079 17.3146 4.13581 17.8153 4.1924 17.8666C4.34358 18.0079 4.3802 17.8641 4.45743 17.9126C4.71644 18.074 4.60478 18.2278 4.85743 18.3927C4.90293 18.4222 5.14093 18.4271 5.28284 18.5904C5.34045 18.6572 5.39209 18.8204 5.44521 18.8635C5.73332 19.0988 6.11233 19.28 6.3598 19.5097C6.56158 19.6967 6.42497 19.747 6.5272 19.852C6.6291 19.9557 6.86117 19.9527 6.94417 20.0067C7.07778 20.0944 7.18037 20.277 7.22038 20.3056C8.0146 20.8743 8.78737 21.2795 9.60075 21.7412C9.08326 21.3544 8.59408 20.9686 8.11144 20.5539C7.74695 20.4545 7.96186 20.4575 7.7968 20.2875C7.66714 20.1523 7.49654 20.3018 7.31643 20.135C7.31659 20.1351 7.31675 20.1353 7.31691 20.1354C7.22441 20.0492 7.10296 19.7629 6.85252 19.6443C6.84335 19.6399 6.75305 19.7156 6.59475 19.592C6.23779 19.3144 5.67282 18.9015 5.31997 18.5313C5.21635 18.4229 5.3216 18.3569 5.20543 18.2236C5.12102 18.1264 4.93577 18.1005 4.81243 17.9391C4.65785 17.7353 4.71642 17.5171 4.40254 17.5708C4.46267 17.4957 4.53575 17.438 4.59245 17.3626ZM1.47724 4.59806C1.49676 4.56368 1.94342 4.23879 1.59813 4.24927C1.22889 4.79384 1.1123 5.49555 0.917471 6.14758C1.26795 5.97552 1.21801 5.57907 1.32454 5.11769C1.3246 5.1175 1.32465 5.1173 1.32471 5.11711C1.32976 5.09556 1.38332 5.20679 1.40361 5.08199C1.41289 5.02245 1.36053 4.75959 1.47724 4.59806Z" fill="var(--stroke-0, #6E3997)"/>
</g>
</svg>
