<svg preserveAspectRatio="none" width="100%" height="100%" overflow="visible" style="display: block;" viewBox="0 0 141.846 90.5918" fill="none" xmlns="http://www.w3.org/2000/svg">
<path id="cloud" d="M54.0693 0C67.2856 0 78.517 8.55902 82.6094 20.4766C90.1492 21.9614 96.8251 25.8772 101.801 31.3828C104.888 30.3095 108.201 29.7256 111.65 29.7256C128.327 29.7256 141.846 43.3507 141.846 60.1582C141.846 76.9658 128.327 90.5908 111.65 90.5908C105.271 90.5907 99.3555 88.5954 94.4805 85.1924C89.0779 88.6113 82.6879 90.5918 75.8379 90.5918C66.6415 90.5918 58.2723 87.0262 52.0127 81.1943C46.5157 86.9844 38.7733 90.5908 30.1943 90.5908C13.5182 90.5907 0 76.9658 0 60.1582C0.000113008 45.5353 10.2328 33.3226 23.875 30.3945C23.8958 13.6049 37.4061 0.000195176 54.0693 0Z" fill="var(--fill-0, #FFD700)"/>
</svg>
