<svg width="402" height="533" viewBox="0 0 402 533" fill="none" xmlns="http://www.w3.org/2000/svg">
<path d="M406.937 41.0623C406.007 41.4706 402.187 43.0432 400.52 43.7547C402.367 42.7987 410.306 39.5811 406.937 41.0623ZM243.56 124.712C244.891 124.07 246.223 123.429 247.556 122.788C243.719 124.479 238.559 126.831 234.981 128.404C234.396 128.661 235.86 127.874 234.479 128.492C233.099 129.109 233.429 129.133 231.433 130.053C229.173 131.091 218.944 135.611 215.329 137.267C202.032 143.344 188.601 149.644 175.446 155.74C188.953 149.295 175.301 155.54 171.405 157.434C170.579 157.842 170.717 158.07 157.081 164.469C148.503 168.517 156.196 164.35 141.774 171.53C153.093 166.402 141.977 171.711 133.456 175.884C131.976 176.599 119.638 182.615 114.511 185.209C112.798 186.07 109.925 187.684 107.509 188.91C105.832 189.761 104.529 190.327 102.082 191.579C90.8253 197.344 79.6897 203.175 68.1485 209.49C74.5226 205.54 62.9259 212.169 62.5146 212.404C59.8326 213.767 71.669 207.169 66.9301 209.715C60.6544 213.189 53.3143 217.379 47.2062 221.05C52.6824 217.83 39.9348 225.787 37.9033 227.004C39.3172 226.465 19.2797 238.374 12.5473 246.091C10.7383 248.084 9.94121 249.801 9.60003 250.624C9.4361 251.022 9.97015 249.956 9.8662 250.274C9.94286 250.641 8.28479 252.037 8.21525 259.089C8.27464 260.689 8.15038 260.114 8.22755 260.95C8.27196 261.415 8.9 264.287 9.74242 267.756C9.81013 268.046 9.71259 267.811 9.60709 267.546C9.5015 267.283 9.3735 266.929 9.39861 267.12C9.54512 267.471 9.62927 269.787 13.6487 278.074C12.2303 274.639 14.9048 280.733 19.2089 287.471C23.6348 294.578 29.9124 302.54 31.8284 304.912C31.0698 303.915 30.3289 302.924 29.6065 301.939C33.3074 306.764 34.2482 307.6 35.1525 308.689C38.7991 313.024 44.0667 318.923 47.7302 322.678C52.0187 327.061 52.2809 327.04 57.3941 332.144C56.2212 330.943 55.0039 329.686 53.7892 328.416C57.4316 332.042 60.8838 335.359 64.6431 338.865C55.8984 331.051 66.4718 340.621 67.1965 341.228C68.2842 342.208 66.6507 340.873 68.4736 342.514C68.6671 342.684 68.4502 342.355 71.2956 344.896C77.2943 350.206 76.3254 349.492 78.8615 351.7C79.0993 351.899 78.3252 351.128 82.7372 354.864C97.0084 366.738 82.5695 354.862 82.0729 354.413C81.3533 353.789 85.9001 358.349 74.1013 347.869C78.0647 351.419 78.3769 351.9 78.8069 352.283C79.171 352.625 86.1375 358.507 86.5562 358.828C90.0783 361.681 87.0906 359.035 87.7838 359.583C88.3813 360.084 96.7392 367.123 99.0331 368.447C102.982 372.006 96.4017 366.817 89.5997 361.263C88.5846 360.532 95.9907 366.673 96.416 366.992C106.257 374.835 100.993 370.271 103.263 371.843C104.451 372.661 108.336 375.923 104.794 372.847C113.763 379.766 108.249 375.672 108.809 376.138C109.664 376.84 112.878 379.202 113.274 379.511C113.851 379.966 111.763 378.493 114.053 380.266C114.435 380.561 118.255 383.255 113.491 379.569C119.918 384.446 119.429 383.888 121.465 385.721C126.192 388.595 124.521 388.321 126.263 389.625C130.914 393.083 129.782 391.782 130.039 391.948C131.791 393.106 144.813 402.4 148.15 404.549C146.693 403.914 137.687 397.357 135.642 395.954C128.765 391.327 145.13 402.775 140.003 399.602C142.131 400.967 144.269 402.325 146.407 403.67C150.116 406.451 144.603 402.88 155.001 409.748C156.798 410.726 147.665 404.869 149.558 405.953C150.667 406.606 156.685 410.599 156.832 410.632C156.979 410.669 151.513 407.103 152.417 407.6C154.34 408.742 174.243 421.884 158.97 412.062C163.208 414.838 165.202 416.566 168.957 418.825C171.402 420.266 158.17 411.348 178.383 424.16C178.715 424.587 170.227 419.126 170.018 418.991C169.698 418.811 171.021 420.12 171.277 420.305C172.137 421.023 193.109 433.611 197.535 436.282C195.823 435.088 213.644 445.401 215.606 446.293C216.132 446.556 214.268 445.385 214.828 445.672C218.297 447.483 227.748 452.743 232.123 454.924C237.158 457.455 236.558 457.001 236.842 457.146C239.036 458.23 237.245 457.444 238.587 458.099C240.516 459.112 254.694 465.687 255.355 465.89C255.562 465.974 253.344 464.847 256.39 466.159C256.916 466.359 256.49 466.464 265.784 470.224C276.8 474.563 258.192 466.912 262.831 468.6C269.887 471.777 269.617 471.345 271.597 472.148C272.287 472.422 277.388 474.615 282.693 476.393C278.873 475.132 274.929 473.729 270.878 472.191C274.937 473.832 282.097 476.342 285.503 477.467C287.087 477.996 285.745 477.761 289.16 478.818C289.849 478.999 292.958 479.63 283.827 476.867C283.145 476.489 287.471 478.022 289.425 478.562C289.721 478.643 290.972 478.779 293.365 479.62C293.975 479.713 287.221 479.061 304.343 482.587C304.873 482.682 303.059 482.206 303.578 482.297C303.803 482.354 308.455 483.295 308.882 483.33C309.384 483.403 307.269 482.935 307.866 483.02C310.927 483.457 314.717 484.392 308.585 483.41C310.706 483.82 312.566 484.136 314.713 484.416C312.413 483.869 318.185 484.745 320.803 484.726C321.224 484.733 321.623 484.735 322 484.734C338.575 483.95 326.855 484.292 329.952 484.039C335.037 483.297 331.237 484.43 338.625 482.98C338.971 482.908 336.874 483.254 336.896 483.202C336.912 483.065 339.157 483.095 347.581 480.473C345.13 481.31 342.598 482.02 340.075 482.589C341.615 482.66 349.151 480.045 349.623 479.749C356.007 477.035 351.918 479.324 360.786 474.285C361.565 473.804 363.3 472.799 364.853 471.649C371.353 466.941 356.014 477.506 355.147 477.119C355.029 477.141 359.52 475.045 363.72 472.143C367.928 469.328 371.703 465.746 371.956 465.51C374.253 463.691 365.137 471.514 366.923 470.096C367.269 469.862 373.194 465.382 378.121 459.041C383.184 452.808 386.8 444.894 387.818 442.203C390.26 436.026 391.064 433.106 390.699 432.982C391.537 431.24 391.53 429.567 391.666 428.719C392.9 418.571 392.757 418.444 391.59 409.899C391.246 408.02 390.969 406.437 390.773 405.799C390.653 405.428 390.736 406.163 390.154 404.347C389.758 403.085 388.29 398.69 386.029 394.952C383.842 391.166 380.94 388.158 380.559 387.74C380.175 387.313 381.357 388.432 382.417 389.645C383.488 390.85 384.43 392.128 384.069 391.533C380.705 387.055 376.484 383.56 371.464 380.983C369.362 379.943 370.484 380.4 369.564 379.974C369.244 379.61 361.377 377.23 361.613 377.484C362.057 377.589 368.507 379.134 373.236 382.03C378.01 384.807 381.113 388.247 378.678 386.048C377.788 385.206 374.193 382.486 374.647 383.119C367.509 378.447 358.584 376.389 349.5 376.391C335.423 376.249 321.778 383.11 309.309 391.499C320.827 383.43 335.259 376.168 349.098 376.254C349.215 376.253 349.35 376.252 349.5 376.252C351.961 376.172 357.428 376.747 356.762 376.585C354.432 376.292 352.13 376.143 349.5 376.14C339.271 375.986 328.281 380.132 319.863 384.782C319.523 384.966 320.713 384.184 319.435 384.867C317.053 386.053 309.678 390.97 308.477 391.798C308.269 391.91 312.322 389.05 311.014 389.803C307.66 391.73 307.084 392.788 304.289 394.765C302.173 396.12 287.764 406.922 284.394 409.906C280.769 413 294.842 401.747 293.918 402.703C284.41 410.262 274.723 418.036 265.546 425.3C265.388 425.426 266.83 424.427 264.836 426.023C261.343 428.81 260.279 429.434 258.501 430.782C256.575 432.259 249.984 437.298 248.98 437.961C248.86 438.042 250.15 436.88 250.354 436.72C253.266 434.445 254.393 433.828 254.661 433.628C255.656 432.876 256.543 432.096 257.465 431.39C258.985 430.224 259.86 429.635 261.819 428.11C263.165 427.061 261.786 427.968 263.08 426.96C263.541 426.608 268.854 422.801 269.143 422.155C269.515 422.234 226.634 454.297 221.74 456.72C225.555 454.277 229.463 451.69 233.25 449.106C225.436 454.461 216.243 460.597 215.262 460.749C186.068 479.139 154.049 494.027 121.394 504.74C115.516 506.613 118.607 505.421 108.912 508.461C111.349 507.811 114.015 507.068 116.553 506.341C111.508 508.055 89.1946 514.158 85.7027 514.933C85.2302 515.051 84.674 515.443 79.0216 516.793C73.9973 517.974 73.0362 518.002 70.4565 518.533C68.2528 518.984 65.7595 519.545 65.0935 519.672C64.5829 519.769 64.3624 519.712 63.1295 519.944C59.2231 520.668 62.4451 520.322 58.4904 520.761C59.4384 520.565 60.3828 520.368 61.3234 520.169C56.6107 521.06 50.0028 522.115 57.0426 520.727C58.2451 520.484 57.2292 520.778 58.1267 520.606C92.5258 513.372 65.332 519.159 52.8473 521.538C49.7302 522.037 32.2189 524.93 31.4981 524.944C30.6579 525.023 33.7311 524.464 29.6659 524.947C28.9347 525.138 5.28017 528.078 13.7978 526.863C15.6153 526.637 26.831 525.246 29.5048 524.833C23.2357 525.467 8.11794 527.671 6.30341 527.811C-0.679367 528.501 19.6513 526.12 4.00468 527.745C-7.67184 528.855 3.321 527.998 -1.17306 528.517C-3.65094 528.836 -17.2561 529.689 -16.9042 529.929C-21.6367 530.291 -18.8774 529.942 -19.4622 529.972C-20.0149 530.012 -28.9258 530.653 -31.9094 530.728C-32.2675 530.738 -31.1492 530.529 -31.5196 530.535C-32.2193 530.563 -41.0682 530.991 -41.4464 531.006C-41.6735 531.024 -39.5413 531.073 -40.4143 531.14C-41.4638 531.231 -49.9598 531.483 -50.358 531.521C-51.0608 531.613 -40.6069 531.225 -42.3231 531.427C-47.3744 531.588 -54.8112 531.876 -58.0537 532.049C-57.2732 532.004 -52.647 531.898 -51.0601 531.863C-51.7797 532.116 -61.7512 532.309 -58.3445 532.07C-60.5163 532.201 -59.0312 532.224 -60.2562 532.332C-60.5754 532.36 -63.6837 532.408 -64.2875 532.45C-64.3634 532.46 -61.1509 532.501 -61.7937 532.553C-62.9324 532.663 -72.4624 532.712 -73.2714 532.679C-75.482 532.625 -67.6547 532.534 -67.0233 532.428C-66.9225 532.419 -73.5585 532.267 -73.6691 532.246C-74.0485 532.082 -66.6651 532.174 -67.5158 532.02C-69.3323 532.001 -71.1576 531.977 -72.9922 531.946C-65.872 531.809 -53.1548 531.648 -49.9636 531.359C-59.9762 531.71 -70.9225 531.738 -70.9036 531.336C-70.8922 531.171 -66.4075 531.045 -66.5849 531.001C-67.2352 530.86 -73.4814 531.051 -73.7216 531.038C-73.9127 531.029 -74 531.019 -74 531.011C-74 531.011 -74 531.011 -74 531.011C-73.9822 530.932 -65.0924 530.823 -64.6707 530.766C-63.9285 530.687 -67.8587 530.425 -67.856 530.357C-67.7097 530.348 -61.4453 530.209 -63.5601 530.117C-65.6878 530.032 -71.2187 530.06 -71.4192 530.044C-72.4631 529.988 -62.8135 529.857 -62.5511 529.799C-62.3957 529.78 -67.5498 529.706 -67.7066 529.666C-67.8333 529.632 -63.9075 529.517 -62.3785 529.378C-61.2344 529.276 -64.571 529.253 -63.9852 529.231C-63.5461 529.229 -54.5866 529.075 -54.1698 529.039C-53.5202 529.001 -55.6025 528.945 -55.3005 528.912C-54.8691 528.867 -52.0083 528.835 -52.3821 528.805C-52.634 528.802 -63.8343 528.65 -63.7893 528.537C-63.644 528.384 -51.7567 528.561 -62.834 528.096C-62.91 528.094 -65.6233 528.17 -65.7008 528.165C-67.3837 528.062 -58.6512 527.805 -69.3375 527.925C-49.5415 527.509 -66.8533 527.669 -63.9304 527.362C-62.787 527.253 -55.2069 527.075 -55.1847 527.051C-55.9178 526.935 -58.3229 527.086 -59.1475 527.034C-59.5906 527.011 -52.8466 526.729 -54.3683 526.669C-55.1384 526.647 -62.3363 526.791 -62.648 526.779C-65.5218 526.728 -61.9998 526.591 -62.6321 526.537C-63.0466 526.504 -67.4433 526.544 -67.5627 526.535C-67.7416 526.525 -61.776 526.298 -60.5551 526.214C-59.6181 526.155 -63.1393 526.136 -62.4857 526.106C-58.5244 525.943 -50.243 526.054 -58.2507 525.801C-58.7391 525.786 -61.7894 525.844 -61.8816 525.839C-63.7717 525.748 -58.1455 525.655 -57.1577 525.533C-55.4432 525.333 -63.4775 525.574 -56.7983 525.333C-61.8078 525.318 -64.6183 525.363 -70.6157 525.423C-54.0977 525.203 -48.4853 524.602 -66.5985 524.888C-60.7856 524.838 -61.4519 524.588 -59.731 524.559C-58.6481 524.549 -50.3986 524.602 -54.1901 524.142C-54.6594 524.088 -59.6935 524.273 -58.119 524.103C-46.0806 523.875 -57.8508 524.017 -57.8767 523.99C-57.8596 523.79 -27.9296 522.986 -23.0891 522.479C-17.3176 522.073 -11.8391 521.381 -10.6037 521.279C-6.37418 520.93 -9.87222 521.349 -8.92309 521.318C-7.91921 521.308 3.87718 519.953 4.41953 519.885C6.79297 519.693 4.40418 520.096 4.65044 520.078C7.68686 519.91 23.7295 517.863 28.0176 517.234C27.8714 517.168 19.0451 518.344 24.5388 517.446C30.8771 516.389 31.5264 516.708 31.6546 516.714C61.5218 512.313 91.1483 505.637 119.707 496.105C119.331 496.092 100.504 502.088 100.077 502.074C97.5985 502.829 129.07 492.959 133.045 491.224C130.139 492.245 127.028 493.302 124.184 494.231C129.178 492.255 140.107 488.584 147.269 485.475C149.558 484.492 145.094 486.215 145.176 486.168C147.755 485.018 151.883 483.366 148.861 484.781C155.072 482.026 154.125 482.578 158.906 480.479C159.153 480.367 157.045 481.199 160.835 479.444C162.673 478.626 171.815 474.288 173.032 473.546C173.492 473.281 168.688 475.159 168.267 475.75C158.11 480.325 165.122 477.414 161.157 479.234C160.589 479.464 161.721 478.846 151.913 483.18C153.624 482.114 165.336 477.151 167.201 476.16C171.244 474.198 154.382 481.81 151.473 483.225C152.796 482.351 150.291 483.703 146.464 485.257C142.263 486.949 144.041 486.135 141.775 487.038C135.713 489.402 138.311 488.614 133.147 490.359C138.402 489.018 124.216 493.734 120.269 494.828C126.639 492.663 133.516 490.145 139.814 487.657C139.439 487.771 139.064 487.886 138.688 488C140.381 487.349 142.012 486.712 143.777 486.008C143.51 486.146 143.243 486.283 142.975 486.42C151.812 482.666 153.848 481.911 154.573 481.619C163.706 477.697 174.037 472.74 182.853 468.069C184.149 467.355 183.203 467.779 192.886 462.544C195.925 460.871 193.16 462.614 196.541 460.648C200.606 457.842 200.732 458.101 201.996 457.352C205.648 455.165 207.742 453.737 208.072 453.534C212.53 450.76 218.898 446.643 223.689 443.352C223.778 443.29 221.212 444.891 224.349 442.799C225.454 442.08 235.437 435.793 243.534 429.47C241.293 431.107 239.224 432.595 237.028 434.153C239.553 432.505 257.118 418.858 252.724 422.051C249.995 424.082 243.873 429.138 242.909 429.453C248.935 425.376 280.609 399.629 283.277 397.688C283.627 397.424 281.583 399.169 282.064 398.806C282.356 398.568 289.92 392.631 290.89 391.974C291.491 391.541 288.248 394.101 288.534 393.931C288.705 393.78 298.32 386.64 298.768 386.238C296.49 387.888 289.788 392.882 293.221 390.169C293.665 389.816 296.03 388.171 296.557 387.771C301.455 383.957 286.57 395.019 284.317 396.928C293.321 389.65 307.995 378.647 320.811 372.637C326.027 370.272 313.35 376.478 319.126 373.727C331.434 368.354 322.318 372.082 322.673 371.886C325.571 370.201 336.807 367.441 336.799 367.216C341.735 366.364 340.105 366.49 347.18 365.939C346.243 365.947 345.307 365.976 344.375 366.028C345.822 365.853 347.585 365.738 349.5 365.744C357.79 365.477 368.37 368.837 367.315 368.674C364.043 367.642 355.494 366.292 354.854 366.367C354.221 366.336 352.966 366.346 349.5 366.375C347.101 366.417 343.714 366.489 338.889 367.198C335.356 367.958 347.398 366.097 349.5 366.518C349.856 366.531 349.901 366.545 349.5 366.562C349.109 366.581 348.288 366.599 346.922 366.684C347.596 366.651 348.467 366.622 349.5 366.623C354.544 366.578 363.207 367.355 370.789 370.32C378.408 373.114 384.223 377.986 385.682 379.274C386.018 379.673 384.689 377.547 389.752 383.18C392.078 385.915 386.28 379.494 387.31 380.782C389.18 382.122 401.943 397.407 402.007 416.732C403.117 435.85 393.748 454.028 390.222 459.042C389.781 459.726 389.864 459.431 389.427 460.092C388.189 462.18 382.727 469.341 379.447 472.265C386.006 465.945 373.538 478.565 369.429 480.658C363.638 484.404 363.898 483.841 361.27 485.231C351.22 490.724 333.896 494.477 325.186 494.045C325.33 494.144 324.074 494.227 322 494.215C317.295 494.301 308.192 492.89 303.25 491.802C298.094 490.785 290.278 488.903 297.421 490.887C288.103 488.601 278.986 485.619 270.822 482.581C269.453 482.068 271.377 482.685 269.033 481.805C268.836 481.73 268.436 481.693 266.51 480.952C250.547 474.595 258.33 477.451 255.361 476.164C253.643 475.387 252.527 474.878 251.628 474.475C260.903 478.589 271.77 482.679 274.762 483.716C272.278 482.74 253.653 475.533 248.681 473.076C248.501 472.992 249.185 473.161 249.001 473.078C248.997 473.076 248.993 473.074 248.989 473.073C247.004 472.231 234.517 466.37 237.034 467.719C237.65 468.058 243.434 470.858 250.278 473.882C248.425 473.086 249.742 473.828 249.415 473.689C245.398 472.005 235.808 467.321 232.453 465.618C231.677 465.231 231.693 465.339 231.565 465.276C228.473 463.717 229.85 464.119 226.553 462.753C221.136 459.674 237.092 467.971 236.038 467.165C235.033 466.853 200.035 448.449 200.079 448.461C199.972 448.37 199.51 448.071 198.546 447.479C196.447 446.214 186.93 440.699 185.252 439.73C184.969 439.573 184.954 439.85 184.608 439.647C183.719 439.151 172.354 432.03 167.998 429.423C170.279 430.898 172.589 432.376 174.885 433.829C160.902 425.144 163.105 426.518 167.65 429.501C167.88 429.647 168.099 429.796 168.319 429.935C171.897 432.252 176.508 435.139 176.568 435.196C176.732 435.51 153.195 420.608 157.852 423.27C158.491 423.674 169.288 430.667 164.002 427.112C163.075 426.501 156.093 422.049 155.741 421.786C153.357 420.128 168.639 429.762 166.875 428.404C163.095 426.211 158.405 423.097 154.167 420.363C152.247 419.125 151.713 418.916 151.476 418.763C147.946 416.46 149.989 417.66 148.815 416.883C148.181 416.476 141.139 412.048 142.655 412.613C119.976 397.234 136.168 408.687 150.167 417.969C145.663 415.163 137.094 409.236 133.254 406.573C131.874 405.621 132.613 406.297 130.284 404.688C125.448 401.494 103.068 384.765 97.5317 380.209C101.045 382.895 100.107 381.992 97.4146 379.898C94.6796 377.761 96.8579 379.707 96.3135 379.304C95.6481 378.859 83.2622 368.776 81.1281 366.963C90.5636 374.651 88.5549 372.846 80.5694 366.213C81.7457 367.143 82.9295 368.074 84.1202 369.004C79.2993 365.149 69.9275 356.819 67.2107 354.454C66.7912 354.096 68.1984 355.495 67.9631 355.294C65.5685 353.285 58.0516 346.274 57.6139 345.889C57.2792 345.629 60.5469 348.775 59.2766 347.669C59.0096 347.438 55.8937 344.357 52.8286 341.479C51.6912 340.411 52.2948 341.139 52.0068 340.872C49.5972 338.618 51.2035 339.949 46.8003 335.655C43.583 332.483 41.2334 330.376 37.0464 325.847C50.7198 340.322 39.2247 328.545 33.3251 322.118C32.417 321.107 33.016 322.186 27.7978 316.042C39.3945 328.635 24.5377 312.247 21.9146 308.638C21.757 308.435 21.839 308.343 20.4574 306.57C20.3401 306.417 20.4301 306.69 19.1315 305.004C7.62585 289.232 15.02 299.225 12.919 296.135C11.893 294.675 6.90222 286.786 5.66342 284.178C5.38815 283.637 5.57124 283.837 4.54609 281.757C2.84092 278.297 1.20275 274.351 0.421646 271.839C0.361702 271.477 0.331871 271.694 -0.939186 266.201C-1.2542 264.688 -1.54422 263.009 -1.24288 265.157C-0.334259 272.694 5.44136 284.488 9.45805 291.029C12.841 297.147 1.83257 278.047 1.87264 276.437C1.6964 276.021 3.50258 280.246 1.76273 275.924C0.355637 272.378 -2.09316 265.5 -2.1196 259.222C-2.22444 258.711 -1.67345 253.772 -1.61105 254.024C-1.84758 254.184 -1.84106 261.858 -1.70566 260.751C-1.78638 260.6 -1.7766 255.731 -1.57384 255.137C-1.46196 254.398 -0.596878 252.377 -0.318581 251.37C0.407227 248.782 -0.183937 250.432 0.355804 248.776C0.963814 246.895 2.91811 242.894 5.65906 239.954C7.56947 237.824 9.76842 235.866 9.84695 235.668C8.31565 237.035 6.9545 238.359 5.76527 239.658C9.15521 236.004 10.7748 234.802 11.0091 234.515C11.3175 234.213 10.6553 234.745 11.2852 234.179C12.56 233.056 12.1524 233.573 14.8674 231.429C15.4596 230.763 27.3156 222.375 27.1856 222.497C20.4863 227.143 22.9764 225.256 22.625 225.474C21.4529 226.275 20.3337 227.201 18.5428 228.513C7.68918 236.826 18.3939 228.317 15.8379 230.236C14.9327 230.905 13.3416 232.303 13.0083 232.575C11.8654 233.494 11.9281 233.276 11.014 234.069C9.02104 235.838 11.4792 233.934 11.3359 234.078C9.30187 235.79 3.71218 241.474 7.05248 237.715C6.16942 238.564 5.67803 239.134 5.28358 239.619C4.52318 240.556 4.03172 241.238 3.01888 242.618C0.423271 246.618 2.97277 241.912 5.19983 239.545C5.49461 239.21 5.76256 238.917 5.95483 238.705C11.0644 233.423 12.6517 232.276 20.9743 226.182C23.6868 224.238 27.2483 221.73 28.7312 220.76C29.8277 220.001 37.851 215.454 37.9339 214.684C41.4548 212.599 46.5081 210.104 49.9163 208.121C52.9714 206.343 51.8969 206.704 52.1769 206.533C52.5657 206.291 56.5484 204.055 57.6484 203.407C59.0425 202.584 58.2853 202.906 60.5382 201.614C66.206 198.382 66.2462 198.643 66.8407 198.332C74.0236 194.635 70.7889 196.022 72.3553 195.146C73.4763 194.457 94.0925 183.809 98.165 181.7C96.4472 182.627 94.7457 183.549 93.0614 184.466C96.1745 183.027 99.3824 181.134 99.5582 181.334C99.9782 180.65 106.671 177.58 108.629 176.591C109.373 176.214 109.282 176.18 110.217 175.709C113.844 173.875 122.333 169.744 124.406 168.693C133.242 164.178 110.388 175.129 108.832 175.933C112.136 174.248 132.419 164.181 122.988 168.591C121.528 169.273 119.073 170.691 118.278 171.093C112.901 173.809 117.071 171.558 116.64 171.753C115.905 172.087 112.45 173.984 111.524 174.426C111.218 174.573 113.112 173.454 108.076 175.97C110.397 174.624 124.967 167.553 126.973 166.551C127.634 166.22 123.29 167.97 135.735 162.264C135.579 162.307 135.422 162.351 135.266 162.394C142.155 159.044 149.266 155.624 156.101 152.367C155.376 152.785 151.552 154.751 156.432 152.401C159.25 151.047 157.096 151.903 157.351 151.777C159.937 150.415 204.973 129.525 213.871 125.542C216.85 124.178 225.103 120.306 225.744 120.015C229.534 118.282 243.06 112.287 245.731 111.079C247.404 110.318 245.758 110.918 247.259 110.253C248.655 109.635 247.261 110.39 247.677 110.21C251.109 108.705 277.17 96.9672 283.391 94.3729C279.605 95.9916 260.79 104.583 261.205 104.499C261.292 104.473 265.925 102.517 266.855 102.057C268.464 101.457 273.712 98.7878 276.659 97.5567C276.991 97.418 275.764 98.1525 280.989 95.8856C282.778 95.1096 287.455 92.8996 292.269 90.9593C299.116 87.8462 335.232 72.423 337.781 71.1396C337.854 71.0971 332.699 73.2491 336.133 71.6821C340.688 69.6045 336.707 71.7029 342.06 69.4306C342.873 69.0816 357.629 62.7081 358.175 62.4544C362.648 60.3234 349.466 65.8845 349.72 65.7528C350.066 65.5395 361.006 60.8135 361.422 60.6522C361.848 60.4855 353.116 64.5054 363.686 59.8761C362.463 60.3648 361.237 60.8554 360.007 61.3476C364.975 59.1561 365.504 59.1282 366.71 58.6248C370.453 57.065 374.308 55.1216 380.561 52.8314C382.196 52.2338 379.578 53.4558 379.783 53.3834C381.757 52.6756 384.078 51.3366 387.029 50.3472C387.24 50.2778 380.692 53.2114 392.25 48.3108C391.45 48.6245 390.648 48.9392 389.844 49.2549C391.354 48.5559 403.345 43.4497 404.918 42.8014C409.567 40.8786 405.603 42.7311 410.222 40.7619C407.131 41.8152 421.3 35.8178 420.617 36.3208C422.662 35.1922 434.374 30.4855 440.374 27.9875C444.061 26.45 451.027 23.4296 452.255 22.9323C453.702 22.3465 453.34 22.6794 455.924 21.6447C456.777 21.3015 463.864 18.2205 470.667 15.5919C471.999 15.0763 474.81 14.2218 472.437 15.2813C468.113 17.2027 460.805 19.988 460.882 20.1391C461.067 20.2563 471.175 15.9463 474.116 14.7567C486.75 9.65128 479.516 12.8502 479.906 12.7514C480.581 12.6242 487.978 9.56792 488.208 9.48781C489.469 9.02917 484.445 11.2207 484.366 11.347C484.373 11.4645 491.285 8.83516 489.738 9.51333C487.652 10.43 480.948 13.0136 480.781 13.0921C475.972 15.1965 482.5 12.7792 484.82 11.9606C485.454 11.7413 483.012 12.8184 483.529 12.6176C491.327 9.58983 485.082 11.5827 490.078 9.56294C494.403 7.8167 488.925 10.256 489.069 10.2075C489.328 10.1112 494.445 8.01516 495.188 7.77541C495.838 7.53803 482.165 13.5291 482.686 13.4773C487.286 11.5429 491.681 9.69741 495.725 7.99946C496.126 8.0437 490.104 10.3669 489.394 10.6817C488.106 11.2556 491.773 9.85136 491.627 9.97781C491.574 10.0413 487.375 11.921 491.23 10.3956C492.612 9.84793 494.925 8.74798 500.207 6.72933C483.347 13.8516 495.155 9.11455 495.468 9.0596C496.044 8.89696 488.177 12.3065 497.845 8.3004C498.498 8.43922 497.468 8.58361 494.887 9.71655C491.607 11.1548 499.509 8.03377 487.074 13.0546C488.109 12.8169 497.34 9.00398 498.311 8.6221C498.805 8.43284 496.465 9.48818 497.323 9.16713C507.156 5.4979 500.442 8.08646 503.267 7.16224C503.396 7.11996 505.599 6.24357 506.869 5.75239C507.158 5.64104 507.539 5.49232 507.746 5.41464C507.964 5.33279 508.067 5.29748 508.006 5.32887C507.946 5.36041 507.722 5.4583 507.273 5.64782C506.874 5.81718 506.359 6.03299 505.567 6.3617C493.132 11.5227 488.362 13.2271 486.26 14.6703C495.547 11.0891 506.208 6.34486 509.045 5.17897C513.481 3.35481 508.943 5.32899 509.49 5.13838C509.735 5.04872 513.404 3.53882 513.408 3.54679C516.391 2.76337 496.75 10.3718 491.337 12.6859C492.929 12.0962 494.477 11.525 495.98 10.9728C493.973 11.8008 491.883 12.6638 489.714 13.5604C499.803 9.53888 490.216 13.4021 487.616 14.8323C487.059 15.1421 493.927 12.1732 486.088 15.6279C491.959 13.2585 490.162 14.0723 495.081 11.9468C495.289 12.0028 483.206 17.1421 479.098 18.9168C495.058 12.4879 485.943 15.7209 499.829 10.2866C502.508 9.00934 495.389 11.9686 496.131 11.6347C497.954 10.7798 503.069 8.84442 507.977 6.46702C508.917 6.02192 504.788 7.52559 510.807 5.07135C511.501 4.78822 514.986 3.52331 514.904 3.56863C514.565 3.83124 511.076 5.21036 510.9 5.33461C510.826 5.41386 514.691 3.80446 514.654 3.83355C514.859 3.9054 511.512 5.17719 511.996 5.02804C512.986 4.72917 527.202 -0.74281 508.688 6.72521C523.995 0.292044 510.72 5.71688 504.759 8.23051C503.287 8.85102 502.954 9.08051 500.738 10.0229C497.715 11.306 494.622 12.5335 493.223 13.1267C491.659 13.7898 500.576 10.3368 487.763 15.5497C494.481 12.9969 505.457 8.25433 512.268 5.6252C524.763 0.830477 503.431 9.6134 501.104 10.6071C500.485 10.8694 502.613 10.1217 502.2 10.2989C501.317 10.6708 489.236 15.5826 487.857 16.2582C486.654 16.8579 492.504 14.3377 492.869 14.2964C493.285 14.1953 477.954 20.6513 486.225 17.2877C492.139 14.8798 502.057 10.5106 504.007 10.0279C501.987 10.863 499.856 11.7447 497.618 12.6712C495.693 13.4693 493.743 14.2781 491.694 15.1286C487.554 16.8468 483.293 18.6189 479.374 20.2525C483.672 18.5951 488.512 16.7181 492.989 14.9949C483.443 18.9643 475.768 22.0031 467.025 25.8031C488.218 17.4035 460.383 28.862 460.059 29.0518C460.009 29.0998 468.343 25.9503 469.582 25.495C462.565 28.5173 440.212 37.9006 453.237 32.8558C450.942 33.7244 445.32 36.2864 445.389 36.2744C446.266 36.0767 458.346 30.9309 456.516 31.8484C454.089 33.0378 450.975 34.0929 447.328 35.6347C428.368 43.663 434.32 42.059 415.412 49.8718C415.788 49.7452 416.163 49.6189 416.538 49.4929C396.195 58.0111 376.16 66.4728 355.775 75.1691C348.101 78.7279 327.055 87.9762 316.744 92.4408C314.626 93.3539 304.432 97.657 303.654 97.9742C302.218 98.5527 310.011 95.1307 306.454 96.5934C305.719 96.8892 288.443 104.402 289.726 103.997C291.672 103.158 297.698 100.438 298.699 100.036C305.716 97.1739 252.572 120.421 250.023 121.738C251.213 121.255 252.404 120.773 253.595 120.291C250.246 121.763 246.9 123.236 243.56 124.712ZM393.319 47.2508C395.188 46.3058 400.52 44.1649 403.482 42.8718C407.641 41.0546 414.326 37.6502 411.562 39.405C405.627 41.9518 399.398 44.6294 393.319 47.2508ZM304.524 85.1699C308.593 83.4782 305.585 85.1205 302.218 86.4529C301.844 86.6009 299.011 87.4649 304.524 85.1699ZM347.233 66.8382C347.066 66.914 343.562 68.4117 343.436 68.4609C340.249 69.6986 350.809 65.1855 347.233 66.8382ZM142.553 159.136C147.003 156.984 143.648 158.286 140.941 159.716C140.771 159.806 142.26 159.277 142.553 159.136ZM145.727 157.62C149.364 156.149 155.863 152.501 150.485 155.119C149.987 155.361 145.572 157.68 145.727 157.62ZM319.088 78.9651C318.67 79.2496 314.454 81.0303 312.645 81.7927C312.661 81.6911 317.339 79.7348 319.088 78.9651ZM213.132 126.011C213.013 126.141 227.416 119.602 228.384 119.064C226.095 120.137 213.298 125.857 213.132 126.011ZM176.124 143.185C176.489 143.028 181.449 140.695 181.279 140.703C178.807 141.756 174.464 143.896 176.124 143.185ZM103.097 178.486C102.85 178.633 106.704 177.14 97.8359 181.333C96.5385 181.947 101.057 179.527 100.601 179.743C99.6292 180.203 98.8702 180.573 98.2655 180.878C102.295 178.787 106.621 176.597 107.053 176.409C109.072 175.529 103.201 178.422 103.097 178.486ZM65.3957 198.566C64.576 199.086 59.3659 201.919 58.2251 202.53C58.0272 202.635 58.7909 202 56.536 203.28C54.609 204.378 57.6096 202.894 53.7693 205.031C49.9283 207.182 54.9738 204.161 54.646 204.34C54.1508 204.596 48.3584 208.009 48.5127 207.805C48.5627 207.674 54.8867 204.117 56.4845 203.213C58.3523 202.142 55.9955 203.307 59.1763 201.565C61.1922 200.465 60.1929 201.286 60.6229 201.061C60.9453 200.882 68.1222 196.802 65.3841 198.572C65.3879 198.57 65.3919 198.568 65.3957 198.566ZM97.1762 181.444C97.4763 181.283 97.8315 181.097 98.2655 180.878C97.8992 181.068 97.5354 181.257 97.1762 181.444ZM381.648 52.3132C379.49 53.153 385.782 50.379 388.171 49.4678C388.251 49.5156 382.002 52.1744 381.648 52.3132ZM93.5455 183.513C87.6522 186.482 91.8777 184.204 97.1762 181.444C95.5073 182.345 95.5428 182.511 93.5455 183.513ZM266.855 102.057C266.588 102.156 266.412 102.204 266.373 102.173C267.076 101.915 267.148 101.911 266.855 102.057ZM252.449 108.375C247.581 110.694 257.581 106.228 257.48 106.169C257.435 106.149 252.643 108.282 252.449 108.375ZM136.879 161.857C137.332 161.653 130.604 165.357 140.499 160.237C135.112 162.783 140.751 160.012 140.656 160.019C140.373 160.037 131.454 164.462 129.507 165.368C128.05 166.281 135.378 162.531 136.867 161.863C136.871 161.861 136.875 161.859 136.879 161.857ZM1.05956 243.892C1.49728 242.963 2.76675 240.88 4.51878 238.938C5.34483 238.011 6.28772 237.055 7.14164 236.234C6.65682 236.776 5.61642 237.827 4.58305 238.995C3.22862 240.508 1.92988 242.337 1.05956 243.892ZM227.32 440.711C243.241 429.311 245.509 428.045 230.818 438.463C230.546 438.658 226.38 441.422 227.32 440.711ZM378.441 372.985C380.141 374.192 374.233 370.684 369.902 369.229C368.978 368.871 365.495 367.592 369.532 368.838C369.372 368.96 375.493 371.37 378.441 372.985ZM90.2822 185.33C88.6409 186.317 83.005 189.145 80.2144 190.597C81.847 189.614 87.7696 186.577 90.2822 185.33ZM278.756 401.533C280.417 400.227 281.41 399.229 281.121 399.44C279.825 400.385 276.811 402.966 278.756 401.533ZM107.724 176.483C107.994 176.428 100.734 180.169 100.171 180.249C101.697 179.486 107.508 176.535 107.724 176.483ZM5.00166 238.603C5.2571 238.343 5.06158 238.57 4.64742 239.053C3.27964 240.494 0.880814 244.235 0.233681 245.771C0.127235 245.549 2.96605 240.585 4.61288 239.022C4.7898 238.826 4.9268 238.68 5.00166 238.603ZM306.021 381.201C307.688 380.107 311.806 377.614 312.228 377.312C312.754 376.868 306.723 380.569 306.021 381.201ZM-2.82327 519.884C-2.99904 519.876 3.80778 519.008 7.1637 518.691C13.2374 518.154 -2.62991 519.932 -2.82327 519.884ZM263.408 413.941C258.674 417.507 263.922 413.527 263.608 413.562C260.436 416.099 252.844 422.048 258.186 418.056C259.191 417.305 261.962 415.082 263.408 413.941ZM267.644 410.624C268.051 410.23 271.359 407.356 268.442 409.713C267.135 410.77 265.164 412.59 267.644 410.624ZM41.2329 514.2C46.5189 513.554 22.4718 517.165 21.9685 517.086C21.6097 517.12 21.3738 517.137 21.2391 517.144C20.3875 517.306 15.9056 517.874 15.3629 517.817C16.7219 517.666 20.3813 517.193 20.8021 517.15C20.9853 517.132 21.1218 517.119 21.2162 517.112C22.638 516.891 40.3208 514.388 41.2329 514.2ZM80.2046 506.506C74.4172 508.112 73.237 507.969 73.7561 507.846C80.1517 506.217 76.0199 507.449 76.2225 507.417C76.6839 507.337 81.1704 506.138 80.1864 506.511C80.1924 506.509 80.1986 506.508 80.2046 506.506ZM49.1561 512.902C48.9283 512.953 44.0609 513.788 43.8505 513.812C39.8418 514.383 53.6041 512.016 49.1561 512.902ZM37.5324 214.876C34.3612 216.786 37.3477 214.776 39.5493 213.504C39.7368 213.398 40.3792 213.177 37.5324 214.876ZM269.896 408.771C270.613 408.204 287.399 394.933 286.406 395.52C284.87 396.664 265.735 411.9 269.896 408.771ZM402.515 414.08C402.115 409.976 402.805 414.433 402.793 416.626C402.8 417.439 402.61 415.103 402.515 414.08ZM117.353 171.882C120.856 170.032 120.277 170.716 117.149 172.126C117.027 172.181 117.216 171.954 117.353 171.882ZM390.643 383.42C395.318 389.086 396.146 391.854 395.443 390.624C394.583 389.542 392.041 384.372 384.894 378.065C385.357 378.42 385.831 378.8 386.29 379.182C368.574 366.337 385.765 377.421 389.091 381.857C390.467 383.362 389.41 382.012 390.634 383.408C390.637 383.412 390.64 383.416 390.643 383.42ZM400.854 435.409C397.076 448.383 404.099 423.478 402.41 415.811C402.962 423.014 401.932 432.402 402.842 419.648C402.657 429.012 401.634 431.635 401.612 432.101C401.488 432.565 401.746 430.845 401.674 431.206C401.526 432.066 401.016 434.85 400.854 435.409ZM399.642 399.907C399.453 399.136 397.264 393.474 396.113 391.596C398.017 394.113 401.387 404.951 399.642 399.907ZM120.143 494.96C119.751 495.211 118.751 495.654 114.629 496.937C115.885 496.474 118.477 495.574 120.143 494.96ZM397.418 46.1822C400.241 44.9966 405.756 42.7157 404.021 43.3154C403.845 43.3777 397.412 46.1096 397.418 46.1822ZM322.149 372.497C322.569 371.8 339.346 366.598 333.512 368.238C331.547 368.29 316.945 374.615 322.149 372.497ZM252.375 422.755C253.489 421.899 257.837 418.463 257.899 418.374C258.149 418.062 252.821 422.303 252.375 422.755ZM411.381 40.4166C411.678 40.3036 420.16 36.7115 419.221 37.0457C417.314 37.7304 410.134 40.8963 411.381 40.4166ZM26.3752 222.306C25.713 222.752 24.7859 223.225 24.5633 223.374C24.2546 223.581 21.3813 225.548 18.9792 227.289C16.3538 229.189 14.6028 230.526 16.7958 228.753C17.789 227.681 34.4591 216.663 36.7823 215.436C37.6308 215.103 30.5665 219.307 28.6334 220.623C28.3077 220.841 28.1541 221.108 26.3802 222.301C26.3785 222.303 26.3769 222.304 26.3752 222.306ZM98.8405 501.66C98.2828 502.002 82.561 506.207 82.7387 505.963C88.0389 504.642 93.4645 503.196 98.8405 501.66ZM106.694 499.387C109.971 498.481 102.362 500.805 100.026 501.415C99.9964 501.357 106.234 499.526 106.694 499.387ZM276.91 403.774C278.178 402.724 274.152 405.743 275.011 405.015C275.532 404.571 278.491 402.279 279.391 401.498C279.661 401.262 276.529 403.569 275.729 404.22C274.549 405.177 275.776 404.347 274.478 405.388C270.121 408.888 266.223 411.918 262.114 415.189C261.742 415.486 264.688 413.249 261.502 415.782C260.969 416.204 258.051 418.368 254.254 421.354C246.096 428.177 239.722 432.576 228.804 440.418C229.199 440.218 237.508 434.399 237.95 434.05C247.096 427.541 262.924 415.043 272.147 407.585C274.52 405.68 273.316 406.542 274.33 405.724C275.128 405.08 274.273 405.961 276.91 403.774ZM395.957 46.8919C397.364 46.4612 402.007 44.3932 404.946 43.1615C403.863 43.4693 398.919 45.6744 395.957 46.8919ZM174.442 472.803C175.887 472.087 180.272 469.893 180.598 469.664C181.049 469.377 174.723 472.565 174.442 472.803ZM10.6919 293.188C10.7619 293.316 12.9841 296.717 13.0868 296.853C14.9811 299.958 8.34116 289.759 10.6919 293.188ZM74.2112 361.325C76.4346 363.207 78.7382 365.082 79.4193 365.813C77.9807 364.591 73.8898 361.168 74.2112 361.325ZM177.758 435.877C177.329 435.437 184.783 440.061 186.255 440.935C185.655 440.677 178.072 436.219 177.758 435.877ZM120.892 495.244C115.882 496.906 117.007 496.783 113.739 497.718C113.196 497.866 111.359 497.937 116.995 496.313C117.997 496.015 114.159 497.424 120.892 495.244ZM382.477 376.153C381.195 375.283 377.243 372.713 374.321 371.416C375.012 371.541 380.678 374.674 382.477 376.153ZM426.683 34.1161C429.003 33.3049 439.687 28.7123 437.004 29.7272C436.489 29.9274 428.199 33.4853 426.683 34.1161ZM78.2535 192.164C74.1183 194.489 82.8043 189.927 85.6413 188.33C84.337 189.013 78.5147 192.012 78.2535 192.164ZM151.908 419.364C152.098 419.488 156.364 422.299 156.555 422.426C159.988 424.824 147.926 416.873 151.908 419.364ZM51.7001 340.698C53.0215 341.887 61.9726 350.317 63.8783 352.108C61.8774 350.602 49.8848 339.193 51.7001 340.698ZM141.332 487.715C137.881 489.078 134.525 490.315 131.214 491.478C131.92 491.162 140.982 487.815 141.332 487.715ZM167.65 429.501C167.88 429.647 168.099 429.796 168.319 429.935C168.091 429.788 167.868 429.643 167.65 429.501ZM216.572 448.901C219.234 447.198 218.593 447.431 218.432 447.534C216.435 448.795 213.535 450.828 216.572 448.901ZM399.488 45.6415C400.588 45.324 405.564 43.1071 408.406 41.9442C407.551 42.1877 401.835 44.6332 399.488 45.6415ZM396.016 448.977C394.35 452.912 400.627 436.661 400.878 432.89C401.421 432.741 396.713 448.544 396.016 448.977ZM91.653 185.402C91.9641 185.358 97.977 182.135 96.6668 182.749C95.82 183.143 91.4473 185.431 91.653 185.402ZM402.102 424.192C402.219 422.539 402.358 418.716 402.407 420.064C402.489 421.797 402.086 424.621 402.102 424.192ZM295.73 389.28C296.242 388.875 303.739 383.453 300.537 385.573C298.255 387.088 298.103 387.402 297.586 387.773C297.046 388.099 285.027 396.911 295.73 389.28ZM316.829 494.3C318.486 494.398 320.256 494.47 322 494.475C324.225 494.481 326.449 494.418 328.462 494.285C327.655 494.377 324.794 494.558 322 494.548C319.767 494.552 317.54 494.392 316.829 494.3ZM68.0169 197.913C69.0362 197.354 88.6749 186.997 77.37 192.824C76.7981 193.098 65.7095 199.003 68.0169 197.913ZM120.892 495.244C121.521 495.033 122.247 494.793 123.085 494.516C122.255 494.797 121.527 495.036 120.892 495.244ZM176.491 472.071C175.436 472.698 180.957 469.913 182.506 469.036C182.97 468.7 176.661 471.991 176.491 472.071ZM328.735 494.158C330.79 493.993 334.869 493.604 337.435 493.156C337.077 493.365 329.577 494.255 328.735 494.158ZM192.06 443.956C195.583 446.059 199.979 448.524 200.111 448.495C200.18 448.55 200.348 448.662 200.632 448.839C200.92 449.021 204.81 451.154 206.469 452.099C216.307 458.026 167.996 430.105 196.075 446.086C194.738 445.382 193.4 444.672 192.06 443.956ZM40.2242 328.957C38.771 327.32 34.0067 322.383 35.1857 323.713C35.9887 324.667 41.7692 330.733 40.2242 328.957ZM108.156 387.99C107.601 387.554 102.476 383.732 102.318 383.674C105.175 385.962 110.654 389.988 108.156 387.99ZM28.1261 315.499C27.1462 314.336 25.7886 312.985 25.8961 313.124C26.8093 314.327 29.7229 317.5 28.1261 315.499ZM131.433 492.041C133.509 491.353 139.823 488.818 141.122 488.17C141.394 488.087 142.041 487.865 143.375 487.371C143.371 487.372 143.367 487.374 143.363 487.375C145.575 487.318 195.313 463.723 161.819 479.362C160.741 479.84 162.272 479.278 157.862 481.225C157.569 481.353 157.407 481.334 156.537 481.712C154.618 482.594 143.582 487.132 141.368 488.026C141.344 488.019 141.199 488.06 140.896 488.164C138.231 489.11 129.859 492.588 131.433 492.041ZM118.323 395.535C117.301 394.752 114.018 392.363 113.639 392.171C115.224 393.403 120.688 397.355 118.323 395.535ZM68.7948 197.837C71.2756 196.555 76.9113 193.421 75.1575 194.288C74.2255 194.731 66.0203 199.257 68.7948 197.837ZM86.0516 370.652C97.6358 380.138 88.8268 372.895 90.6776 374.253C89.1246 373.054 87.5825 371.854 86.0516 370.652ZM65.493 510.427C67.7758 509.969 65.1522 510.75 62.5914 511.153C61.7883 511.279 64.2157 510.683 65.493 510.427ZM-40.4307 523.102C-38.358 523.217 -48.4328 523.477 -44.5085 523.205C-44.3224 523.196 -40.5742 523.103 -40.4307 523.102ZM33.8913 516.258C35.4732 515.885 36.5302 515.719 40.9832 515.028C34.3828 516.123 40.5545 515.267 33.8913 516.258ZM200.079 448.461C200.1 448.479 200.118 448.493 200.111 448.495C200.088 448.477 200.079 448.466 200.079 448.461ZM19.0802 304.38C17.9562 302.753 14.884 298.469 15.7102 299.811C15.7681 299.935 18.5084 303.787 19.0802 304.38ZM141.122 488.17C140.89 488.24 141 488.183 141.368 488.026C141.391 488.033 141.3 488.084 141.122 488.17ZM37.7402 326.084C37.614 326.098 43.0334 331.777 43.3126 332.019C46.6464 335.194 40.0125 328.537 37.7402 326.084ZM115.838 173.687C116.201 173.497 113.741 174.482 112.343 175.272C111.259 175.884 114.474 174.399 115.838 173.687ZM18.717 518.411C16.2455 518.724 12.7145 519.139 12.0473 519.113C13.7443 518.94 18.765 518.335 18.717 518.411ZM-36.5216 523.071C-33.5309 522.823 -26.7917 522.467 -22.5762 522.208C-22.4601 522.374 -33.6816 522.93 -36.5216 523.071ZM124.962 494.284C125.081 494.262 131.166 492.143 130.291 492.34C129.034 492.646 123.269 494.817 124.962 494.284ZM104.798 179.082C102.207 180.469 108.425 177.578 110.86 176.176C112.204 175.405 105.269 178.827 104.798 179.082ZM9.70734 290.442C7.68002 287.232 12.5004 295.327 13.487 296.444C12.4432 294.909 10.4016 291.575 9.70734 290.442ZM99.953 381.343C90.8249 373.787 95.5367 378.206 97.2444 379.49C97.4907 379.677 100.172 381.524 99.953 381.343ZM453.83 23.4509C455.377 22.7597 449.475 25.0464 448.865 25.4135C448.451 25.6562 452.727 23.9398 453.83 23.4509ZM251.628 474.475C251.175 474.277 250.724 474.079 250.278 473.882C250.615 474.025 251.055 474.219 251.628 474.475ZM-0.894592 256.363C-1.33627 261.046 -0.856125 263.121 -0.731567 264.044C-0.551476 265.006 -0.467186 264.952 -0.400551 265.336C-0.13607 267 0.733643 270.959 1.7886 273.759C0.596382 270.58 -0.473465 266.823 -0.982231 263.277C-0.895432 264.692 0.401176 271.623 3.05863 277.703C5.4505 283.516 8.793 289.083 8.85028 289.126C9.31757 289.817 5.51807 283.047 5.50871 282.851C5.37545 282.561 5.11222 281.387 4.83228 280.766C4.67023 280.398 2.17581 275.235 0.733665 270.009C-0.997604 264.269 -1.12407 258.146 -0.894592 256.363ZM80.6168 365.826C82.0665 367.081 82.4182 367.517 83.1242 368.066C83.3652 368.254 83.4707 368.202 84.2932 368.844C83.0596 367.839 81.834 366.833 80.6168 365.826ZM4.93023 240.445C5.92249 239.427 4.20205 241.239 2.7434 243.614C1.23957 245.957 0.183159 248.981 0.130005 249.168C-0.2155 250.17 0.225548 248.266 1.28506 246.012C2.29755 243.762 4.12527 241.279 4.93023 240.445ZM35.0207 323.023C34.7161 322.719 29.3724 316.675 29.3935 316.772C30.6503 318.382 38.0798 326.495 35.0207 323.023ZM85.2753 369.642C87.4425 371.445 91.577 374.91 91.1985 374.396C91.1952 374.393 91.1919 374.39 91.1886 374.388C89.1987 372.808 87.2272 371.226 85.2753 369.642ZM96.2466 183.805C101.04 181.65 98.6541 182.496 94.5124 184.524C93.3265 185.262 95.4628 184.159 96.2466 183.805ZM111.456 176.339C112.696 175.755 126.28 168.993 124.163 169.89C123.374 170.219 115.616 174.188 115.276 174.351C114.733 174.606 117.12 173.25 113.029 175.318C113.289 175.245 111.006 176.546 111.456 176.339ZM100.198 181.977C104.989 179.767 105.918 178.899 102.347 180.701C100.958 181.403 99.5175 182.291 100.198 181.977ZM81.1475 191.785C82.8136 190.944 87.3871 188.609 90.474 186.882C86.2589 189.048 82.0512 191.236 78.0166 193.363C77.5824 193.67 79.6703 192.527 81.1587 191.779C81.1549 191.781 81.1513 191.783 81.1475 191.785ZM-67.7927 524.81C-63.59 524.883 -73.2754 524.986 -73.7106 524.948C-74.9369 524.867 -69.6623 524.782 -67.7927 524.81ZM485.071 14.0533C486.208 13.6286 487.007 13.4441 489.359 12.3986C487.005 13.2614 484.192 14.3144 482.012 15.1078C480.381 16.0271 483.672 14.5816 485.071 14.0533ZM494.449 11.0873C494.119 11.2288 496.048 10.8126 491.762 12.3247C490.316 12.8349 493.398 11.4808 497.256 9.85354C501.564 8.04079 505.964 6.23806 507.277 5.78412C504.666 6.93002 496.984 9.99484 494.449 11.0873ZM522.683 1.16443C522.761 1.14771 521.594 1.6405 520.023 2.29282C518.514 2.91962 516.382 3.79518 516.173 3.87002C512.463 5.27193 522.186 1.20285 522.683 1.16443ZM503.658 8.86629C506.453 7.79326 500.35 10.3437 498.235 11.1712C498.063 11.1712 503.284 9.0088 503.658 8.86629ZM-25.6322 528.491C-22.3626 528.532 -19.5083 527.833 -24.4849 528.25C-24.7227 528.27 -25.7715 528.487 -25.6322 528.491ZM516.951 3.88C513.87 5.06406 520.906 2.14597 522.291 1.62567C522.376 1.62612 521.36 2.06203 520.063 2.60257C518.785 3.13536 517.208 3.78075 516.951 3.88ZM-23.3092 528.915C-18.9983 528.81 -20.5554 528.333 -21.0896 528.346C-23.2837 528.41 -30.9352 529.074 -32.5325 529.2C-21.0004 528.493 -25.3639 528.95 -23.3092 528.915ZM-3.03352 527.013C0.993423 526.587 -9.32317 527.404 -11.3447 527.703C-9.29699 527.539 -4.17071 527.139 -3.03352 527.013ZM21.6064 524.49C23.7854 524.239 30.0787 523.417 31.2633 523.146C28.7224 523.54 22.5549 524.281 21.6064 524.49ZM26.4959 524.112C29.8364 523.773 30.5863 523.305 26.7677 523.945C26.6192 523.97 26.3727 524.122 26.4959 524.112ZM45.6577 521.304C47.8756 521.071 50.298 520.294 46.7628 520.899C45.7096 521.078 45.4224 521.327 45.6577 521.304ZM-17.8034 529.168C-14.5104 528.996 -10.3235 528.432 -17.3139 528.919C-14.8519 528.706 -12.4098 528.483 -9.98745 528.248C-19.0547 528.822 -18.5176 529.087 -21.0179 529.249C-24.551 529.457 -24.2977 529.152 -23.5893 529.02C-26.4441 529.393 -38.9964 530.063 -46.4835 530.311C-39.9218 530.185 -29.4741 529.813 -23.3125 529.458C-21.5316 529.36 -19.894 529.174 -18.2787 529.07C-15.7621 528.908 -17.9879 529.177 -17.8164 529.169C-17.812 529.168 -17.8077 529.168 -17.8034 529.168ZM70.5276 516.506C77.0539 515.23 72.7638 515.835 69.2477 516.655C69.0952 516.693 70.3695 516.537 70.5276 516.506ZM525.703 1.45647C517.404 4.67797 523.208 2.09255 506.257 9.3451C513.234 6.26364 506.429 9.11365 507.836 8.44732C508.942 7.92244 513.478 6.12611 510.842 7.06064C513.963 5.93476 528.394 0.0153253 528.514 -2.36034e-05C528.513 0.000192881 528.512 0.000440598 528.512 0.000719786C528.521 0.000676155 528.527 0.0231311 528.536 0.053571C528.539 0.0866816 528.549 0.126717 528.36 0.244937C528.263 0.30487 528.113 0.386066 527.862 0.506329C527.736 0.566513 527.585 0.636577 527.4 0.71931C527.356 0.739213 527.3 0.76408 527.262 0.781448C527.245 0.790165 527.228 0.799017 527.21 0.808006C527.175 0.825985 527.138 0.844515 527.099 0.86363C526.786 1.01676 526.35 1.20606 525.703 1.45647ZM21.754 525.387C23.9767 525.521 24.7397 524.754 28.9986 524.511C34.561 523.255 13.4344 526.612 10.5787 526.403C34.223 523.693 -5.16844 527.759 11.4916 526.518C-2.28288 527.772 7.00066 527.083 4.8844 527.394C2.73576 527.715 -4.84276 528.324 -4.45428 528.439C-4.45013 528.439 -4.44586 528.438 -4.44171 528.438C0.256531 528.008 4.65295 527.563 9.53072 527.016C4.8362 527.188 14.5779 526.232 17.8136 526.092C19.1338 525.86 20.4472 525.625 21.754 525.387ZM-4.70773 527.941C-4.21941 527.924 5.77676 526.906 5.10622 526.891C3.83676 527.017 -10.5015 528.361 -4.70773 527.941ZM-49.6736 530.616C-46.1992 530.523 -40.2498 530.365 -38.2806 530.148C-41.9852 530.312 -47.7985 530.439 -49.6736 530.616ZM135.826 497.885C140.231 496.166 126.521 501.119 130.531 499.796C130.74 499.735 135.622 497.974 135.826 497.885ZM32.2395 523.877C37.0386 523.293 34.7293 523.23 31.1893 523.854C30.9842 523.89 32.0174 523.904 32.2395 523.877ZM519.036 4.22326C518.989 4.26963 518.044 4.67059 516.797 5.18763C515.762 5.61829 514.305 6.2139 512.657 6.88493C511.069 7.53166 509 8.37218 507.725 8.88947C506.431 9.41401 505.335 9.85908 504.826 10.0682C505.404 9.78037 508.771 8.36002 512.509 6.8208C514.256 6.10055 515.806 5.46894 516.879 5.04189C518.263 4.48758 519.122 4.15715 519.036 4.22326ZM-56.032 531.149C-48.8851 531.379 -38.8674 530.564 -37.7642 530.516C-36.6739 530.477 -38.3769 530.71 -38.1283 530.703C-37.527 530.707 -26.0537 530.105 -25.5397 530.042C-25.1481 530.01 -27.2096 529.911 -24.8777 529.702C-29.2671 530.179 -50.7711 530.945 -51.6034 530.925C-52.4417 530.963 -46.1364 531.048 -56.0195 531.149C-56.0237 531.149 -56.0279 531.149 -56.032 531.149ZM-35.0293 530.44C-37.9152 530.485 -29.8342 530.088 -27.9222 530.002C-23.6248 529.84 -34.6288 530.451 -35.0293 530.44ZM-15.7435 529.371C-14.7866 529.335 -6.43614 528.684 -5.76203 528.509C-9.66069 528.728 -17.8645 529.48 -15.7435 529.371ZM75.7884 516.063C77.9446 515.57 83.7621 514.259 84.0599 514.086C81.9833 514.619 76.1157 515.904 75.7884 516.063ZM478.982 21.5337C482.289 20.2477 474.713 23.4143 472.299 24.3765C472.186 24.3575 478.741 21.6254 478.982 21.5337ZM33.178 524.614C34.5983 524.569 60.2004 520.109 63.8261 519.164C60.2577 519.982 34.8772 524.337 33.5816 524.429C33.2385 524.49 33.013 524.634 33.178 524.614ZM-22.992 530.489C-25.3259 530.769 -26.8796 530.697 -27.177 530.712C-30.0874 530.866 -36.235 531.191 -34.8945 530.997C-29.615 530.824 -18.3513 529.93 -22.992 530.489ZM77.7601 516.229C86.5031 514.148 69.6026 517.906 71.8714 517.504C71.9634 517.498 76.8749 516.446 77.7601 516.229ZM30.2372 525.081C28.5266 525.571 2.16653 528.63 -1.71617 528.847C1.98425 528.3 4.82673 528.175 10.0105 527.596C11.3843 527.441 11.0075 527.399 11.155 527.383C13.5259 527.11 11.7628 527.407 13.2222 527.241C14.2717 527.19 32.8058 524.611 30.2372 525.081ZM-24.3248 530.664C-25.6823 530.869 -42.0065 531.691 -42.7422 531.656C-47.6771 531.733 -25.4439 530.788 -24.3248 530.664ZM32.6846 524.904C29.6996 525.606 17.2272 527.092 25.8319 525.833C26.6456 525.714 30.1686 525.328 32.6846 524.904ZM76.8726 516.659C77.3361 516.581 86.3721 514.462 86.4858 514.337C85.2576 514.662 71.9523 517.721 76.8726 516.659ZM72.1647 517.971C72.4071 517.914 70.1767 518.267 74.5108 517.321C74.864 517.239 75.6063 517.259 80.9442 515.94C82.0259 515.672 83.6671 515.165 83.5449 515.188C77.9062 516.374 61.3674 520.378 72.1647 517.971ZM-24.6101 530.811C-23.7438 530.825 -25.8094 531.153 -27.7057 531.158C-28.5194 531.16 -27.0087 530.959 -24.6101 530.811ZM105.349 509.326C100.257 510.965 116.344 506.202 117.234 505.807C116.664 505.946 105.832 509.207 105.349 509.326ZM471.42 25.6747C471.424 25.6729 471.429 25.6712 471.433 25.6695C467.403 27.3107 469.856 26.1849 469.663 26.2613C461.011 29.6919 463.293 28.9934 461.948 29.5806C458.986 30.8756 459.297 30.4452 454.273 32.662C462.658 28.9872 454.945 32.2752 454.686 32.2767C453.565 32.3062 466.106 27.7276 469.886 26.0712C470.442 25.8278 466.288 27.4126 467.7 26.7872C472.165 24.804 487.905 18.9624 471.42 25.6747ZM-29.1643 531.257C-31.1664 531.53 -47.2968 532.07 -43.0289 531.797C-42.2702 531.795 -26.0772 530.943 -29.1643 531.257ZM205.699 441.437C209.072 443.218 201.41 438.768 200.023 438.046C199.303 437.682 204.198 440.652 205.699 441.437ZM153.629 408.884C149.885 406.408 145.729 404.094 150.395 407.173C150.891 407.501 154.024 409.22 153.629 408.884ZM392.477 427.08C391.686 431.398 391.964 431.188 392.479 427.994C392.637 426.866 392.497 426.944 392.477 427.08ZM254.291 465.843C253.882 465.66 248.957 463.453 249.103 463.583C250.931 464.48 256.992 467.113 254.291 465.843ZM392.599 425.699C392.34 428.279 393.148 423.861 392.981 420.687C392.987 422.283 392.637 425.447 392.599 425.699ZM42.5429 524.005C44.8992 523.509 51.1827 522.464 55.1475 521.695C55.5042 521.801 45.2326 523.565 42.5429 524.005ZM169.512 419.437C165.873 417.25 173.501 422.196 172.873 421.624C172.779 421.559 169.655 419.525 169.512 419.437ZM293.294 402.748C295.693 400.762 287.818 406.761 290.059 405.21C290.158 405.137 293.172 402.845 293.294 402.748ZM259.525 429.508C261.461 428.058 269.3 421.836 266.165 424.207C265.694 424.572 259.648 429.318 259.525 429.508ZM461.743 29.7834C463.014 29.422 456.024 32.2895 454.996 32.6895C454.566 32.856 460.153 30.2259 461.743 29.7834ZM382.789 453.673C381.653 455.652 378.051 460.335 377.402 461.131C379.271 459.081 383.373 453.16 382.789 453.673ZM185.987 429.639C182.922 427.603 177.521 424.288 178.739 425.297C184.702 428.938 178.108 424.704 185.987 429.639ZM392.168 411.295C392.419 413.053 392.736 414.418 392.731 414.214C392.66 412.242 391.969 409.539 392.168 411.295ZM300.921 482.248C300.873 482.173 294.878 480.683 295.648 480.929C295.936 481.048 301.014 482.364 300.921 482.248ZM122.999 504.432C125.768 503.597 117.423 506.464 114.817 507.156C113.566 507.422 122.685 504.553 122.999 504.432ZM362.184 377.419C362.004 377.322 370.279 380.062 367.055 378.819C366.264 378.443 362.329 377.366 362.184 377.419ZM283.147 411.119C288.142 406.906 266.617 424.03 272.38 419.662C272.727 419.408 282.77 411.432 283.147 411.119ZM247.451 438.988C248.388 438.308 248.197 439.031 244.322 441.662C243.813 442.008 246.065 440.206 245.642 440.483C245.457 440.629 236.968 446.686 236.601 446.927C236.197 447.226 236.764 447.003 236.356 447.31C235.911 447.655 230.674 451.157 227.844 453.049C222.652 456.532 222.158 456.956 221.726 457.247C220.473 458.064 218.308 459.365 215.684 461.015C202.828 469.285 182.223 480.504 171.07 485.342C180.815 480.842 189.951 475.968 199.304 470.607C196.685 472.454 212.916 462.423 203.397 468.357C208.181 466.157 244.767 441.505 247.441 438.995C247.445 438.993 247.448 438.99 247.451 438.988ZM139.058 398.782C141.39 400.244 129.83 392.14 128.753 391.544C130.261 392.684 138.752 398.607 139.058 398.782ZM194.194 433.742C195.34 434.378 196.576 434.782 202.422 438.303C202.427 438.306 202.432 438.309 202.438 438.312C204.151 439.339 202.137 438.276 202.442 438.48C202.53 438.547 207.992 441.808 203.393 439.232C196.51 435.341 202.854 438.674 199.202 436.572C198.759 436.329 191.746 432.412 192.129 432.67C192.168 432.699 194.274 433.899 194.61 434.113C195.883 434.923 195.203 434.633 195.384 434.744C195.969 435.128 207.032 441.279 208.62 442.289C209.057 442.659 190.991 432.402 190.298 431.881C189.861 431.604 190.182 431.492 189.735 431.196C189.465 431.032 182.306 426.826 181.382 426.219C181.116 426.048 180.914 425.915 180.766 425.817C181.806 426.557 175.336 422.552 175.583 422.589C175.714 422.634 180.158 425.411 180.314 425.51C180.382 425.555 180.441 425.596 180.497 425.633C179.61 425.022 194.746 434.122 191.561 432.031C196.034 434.579 190.824 431.848 194.194 433.742ZM215.688 445.7C215.215 445.475 214.742 445.249 214.269 445.022C222.189 449.265 231.244 454.136 240.576 458.637C242.908 459.758 240.302 458.325 243.331 459.822C245.698 460.991 248.539 462.474 247.125 461.856C246.736 461.692 241.797 459.257 239.289 458.039C231.847 454.426 233.637 455.436 233.206 455.235C232.678 454.98 228.147 452.575 225.631 451.266C219.281 447.959 216.335 446.506 207.859 441.663C212.843 444.323 210.246 442.662 215.688 445.7ZM325.339 382.341C325.048 382.537 320.123 384.937 318.286 386.057C318.542 385.771 323.528 383.151 325.339 382.341ZM217.394 136.287C218.984 135.396 206.557 141.033 209.88 139.651C210.611 139.345 215.826 136.999 217.394 136.287ZM161.902 161.949C160.276 162.764 166.937 159.727 166.884 159.628C166.855 159.6 162.106 161.845 161.902 161.949ZM321.968 484.392C321.976 484.392 321.987 484.392 322 484.392C322.575 484.419 327.071 484.307 327.195 484.28C328.952 484.261 324.773 484.555 322 484.499C320.141 484.463 319.1 484.395 321.968 484.392ZM95.5092 194.83C101.089 191.83 84.0203 200.638 89.291 198.04C89.5191 197.923 95.3546 194.911 95.5092 194.83ZM72.0425 207.272C73.3881 206.527 79.4785 203.31 79.4464 203.281C79.625 203.096 72.6551 206.788 72.0425 207.272ZM391.426 410.21C391.48 410.869 389.869 403.025 388.62 400.589C388.635 399.868 391.124 407.392 391.426 410.21ZM378.306 458.522C388.544 444.519 388.998 437.146 389.004 438.512C388.575 439.552 386.384 448.911 377.082 460.17C376.969 460.129 376.964 460.233 378.306 458.522ZM392.066 417.521C392.24 418.767 392.171 422.639 391.863 425.268C391.89 424.794 392.223 419.42 392.066 417.521ZM232.219 129.814C230.122 130.906 220.589 135.048 222.25 134.234C222.628 134.046 232.971 129.39 232.219 129.814ZM324.971 484.202C324.164 484.195 334.695 483.414 335.436 483.154C338.689 482.914 325.855 484.388 324.971 484.202ZM361.685 378.078C359.996 377.759 354.943 376.914 351.641 376.863C353.164 376.734 359.095 377.376 361.685 378.078ZM381.196 389.154C381.113 388.974 377.939 385.959 377.763 385.892C376.415 384.744 378.16 386.018 379.713 387.517C381.258 388.995 382.563 390.614 381.196 389.154ZM477.834 24.3399C477.69 24.4036 474.046 25.9036 473.904 25.9577C470.606 27.191 481.522 22.6983 477.834 24.3399Z" fill="#6E3997"/>
</svg>
